<svg width="14" height="15" viewBox="0 0 14 15" fill="none" xmlns="http://www.w3.org/2000/svg">
<path d="M11.9401 8.16659C11.7934 8.16659 11.6401 8.11992 11.4934 8.08659C11.1967 8.02023 10.9049 7.93335 10.6201 7.82659C10.3108 7.71407 9.97088 7.71991 9.66565 7.84299C9.36043 7.96606 9.1115 8.19768 8.96678 8.49325L8.82011 8.79992C8.17266 8.43272 7.57453 7.98468 7.04011 7.46659C6.52202 6.93217 6.07398 6.33404 5.70678 5.68659L6.01345 5.54659C6.30903 5.40186 6.54064 5.15294 6.66371 4.84771C6.78679 4.54249 6.79263 4.20253 6.68011 3.89325C6.57424 3.60594 6.48739 3.31197 6.42011 3.01325C6.38678 2.86659 6.36011 2.71325 6.34011 2.56659C6.25916 2.097 6.0132 1.67175 5.64653 1.36741C5.27986 1.06308 4.81658 0.899658 4.34012 0.906585H2.33345C2.05161 0.906216 1.77288 0.965417 1.51553 1.08031C1.25817 1.1952 1.028 1.36318 0.840115 1.57325C0.648328 1.78902 0.505525 2.04375 0.421517 2.31994C0.337509 2.59613 0.314287 2.88724 0.353448 3.17325C0.71584 5.94801 1.98359 8.52569 3.96011 10.5066C5.94101 12.4831 8.51869 13.7509 11.2934 14.1133C11.38 14.1199 11.4669 14.1199 11.5534 14.1133C12.0451 14.114 12.5197 13.9336 12.8868 13.6066C13.0968 13.4187 13.2648 13.1885 13.3797 12.9312C13.4946 12.6738 13.5538 12.3951 13.5534 12.1133V10.1133C13.5499 9.65261 13.3874 9.20733 13.0934 8.85265C12.7995 8.49797 12.3921 8.25563 11.9401 8.16659ZM12.2668 12.1666C12.2666 12.2596 12.2469 12.3516 12.209 12.4365C12.1711 12.5215 12.1158 12.5976 12.0468 12.6599C11.9737 12.7265 11.8868 12.776 11.7922 12.8048C11.6977 12.8336 11.5979 12.8411 11.5001 12.8266C9.0123 12.5017 6.70028 11.3679 4.92011 9.59992C3.13843 7.81823 1.9948 5.49816 1.66678 2.99992C1.6523 2.90214 1.65974 2.80237 1.68856 2.70782C1.71739 2.61327 1.76688 2.52632 1.83345 2.45325C1.89653 2.38335 1.9737 2.32761 2.05988 2.28969C2.14606 2.25177 2.2393 2.23254 2.33345 2.23325H4.33345C4.48756 2.22949 4.63821 2.27924 4.75976 2.37405C4.88131 2.46886 4.96625 2.60286 5.00011 2.75325C5.00011 2.93325 5.06011 3.11992 5.10011 3.29992C5.17717 3.64916 5.27966 3.9923 5.40678 4.32659L4.47345 4.76659C4.31302 4.84023 4.18835 4.97449 4.12678 5.13992C4.0601 5.30223 4.0601 5.48428 4.12678 5.64659C5.08625 7.70176 6.73828 9.35378 8.79345 10.3133C8.95576 10.3799 9.13781 10.3799 9.30011 10.3133C9.46555 10.2517 9.59981 10.127 9.67345 9.96659L10.0934 9.03325C10.4374 9.15867 10.7893 9.26111 11.1468 9.33992C11.3201 9.37992 11.5068 9.41325 11.6868 9.43992C11.8372 9.47379 11.9712 9.55873 12.066 9.68028C12.1608 9.80183 12.2105 9.95248 12.2068 10.1066L12.2668 12.1666ZM8.33345 0.833252C8.18011 0.833252 8.02011 0.833252 7.86678 0.833252C7.68997 0.848281 7.52637 0.932932 7.41197 1.06858C7.29758 1.20423 7.24175 1.37977 7.25678 1.55659C7.27181 1.7334 7.35646 1.897 7.49211 2.01139C7.62776 2.12579 7.8033 2.18161 7.98011 2.16659H8.33345C9.39431 2.16659 10.4117 2.58801 11.1619 3.33816C11.912 4.0883 12.3334 5.10572 12.3334 6.16659C12.3334 6.28659 12.3334 6.39992 12.3334 6.51992C12.3187 6.69579 12.3742 6.87035 12.488 7.00532C12.6017 7.14029 12.7643 7.22465 12.9401 7.23992H12.9934C13.1603 7.2406 13.3214 7.17865 13.4448 7.06633C13.5683 6.954 13.6451 6.79947 13.6601 6.63325C13.6601 6.47992 13.6601 6.31992 13.6601 6.16659C13.6601 4.75325 13.0991 3.39771 12.1004 2.3977C11.1016 1.3977 9.74678 0.835019 8.33345 0.833252ZM9.66678 6.16659C9.66678 6.3434 9.73702 6.51297 9.86204 6.63799C9.98707 6.76301 10.1566 6.83325 10.3334 6.83325C10.5103 6.83325 10.6798 6.76301 10.8049 6.63799C10.9299 6.51297 11.0001 6.3434 11.0001 6.16659C11.0001 5.45934 10.7192 4.78106 10.2191 4.28097C9.71897 3.78087 9.04069 3.49992 8.33345 3.49992C8.15664 3.49992 7.98707 3.57016 7.86204 3.69518C7.73702 3.82021 7.66678 3.98977 7.66678 4.16659C7.66678 4.3434 7.73702 4.51297 7.86204 4.63799C7.98707 4.76301 8.15664 4.83325 8.33345 4.83325C8.68707 4.83325 9.02621 4.97373 9.27626 5.22378C9.52631 5.47382 9.66678 5.81296 9.66678 6.16659Z" fill="#0077C0"/>
</svg>
