<svg width="49" height="50" viewBox="0 0 49 50" fill="none" xmlns="http://www.w3.org/2000/svg">
<rect y="0.5" width="49" height="49" rx="24.5" fill="#0077C0"/>
<path d="M24.5003 11.3909C26.233 11.3909 27.8948 12.06 29.12 13.2512C30.3453 14.4423 31.0336 16.0579 31.0336 17.7424C31.0336 19.4269 30.3453 21.0425 29.12 22.2336C27.8948 23.4248 26.233 24.0939 24.5003 24.0939C22.7675 24.0939 21.1057 23.4248 19.8805 22.2336C18.6553 21.0425 17.9669 19.4269 17.9669 17.7424C17.9669 16.0579 18.6553 14.4423 19.8805 13.2512C21.1057 12.06 22.7675 11.3909 24.5003 11.3909ZM24.5003 27.2697C31.7196 27.2697 37.5669 30.112 37.5669 33.6212V36.797H11.4336V33.6212C11.4336 30.112 17.2809 27.2697 24.5003 27.2697Z" fill="white"/>
</svg>
