<?xml version="1.0" encoding="utf-8"?>
<!-- Generator: Adobe Illustrator 19.0.0, SVG Export Plug-In . SVG Version: 6.00 Build 0)  -->
<svg version="1.1" id="Layer_1" xmlns="http://www.w3.org/2000/svg" xmlns:xlink="http://www.w3.org/1999/xlink" x="0px" y="0px"
	 viewBox="0 0 512 512" style="enable-background:new 0 0 512 512;" xml:space="preserve">
<g id="XMLID_1_">
	<path id="XMLID_6_" d="M256,0C115.4,0,0,115.4,0,256s115.4,256,256,256s256-115.4,256-256S396.6,0,256,0z M256,77.3
		c41.9,0,77.3,34.4,77.3,77.3s-34.4,77.3-77.3,77.3s-77.3-34.4-77.3-76.3S214.1,77.3,256,77.3L256,77.3z M256,446.8
		c-64.2,0-120.1-33.5-153.6-81.9c0.9-51.2,102.4-79.1,153.6-79.1s152.7,27.9,153.6,79.1C376.1,413.3,320.2,446.8,256,446.8z"/>
</g>
</svg>
