<svg width="21" height="22" viewBox="0 0 21 22" fill="none" xmlns="http://www.w3.org/2000/svg">
<path fill-rule="evenodd" clip-rule="evenodd" d="M9.82341 9.57145C9.40823 9.57145 9.07166 9.90801 9.07166 10.3232V16.4123C9.07166 16.8275 9.40823 17.1641 9.82341 17.1641H15.9125C16.3277 17.1641 16.6643 16.8275 16.6643 16.4123V10.3232C16.6643 9.90801 16.3277 9.57145 15.9125 9.57145H9.82341ZM7.86887 10.3232C7.86887 9.24373 8.74394 8.36865 9.82341 8.36865H15.9125C16.992 8.36865 17.8671 9.24373 17.8671 10.3232V16.4123C17.8671 17.4918 16.992 18.3669 15.9125 18.3669H9.82341C8.74394 18.3669 7.86887 17.4918 7.86887 16.4123V10.3232Z" fill="#1A1B1E"/>
<path fill-rule="evenodd" clip-rule="evenodd" d="M7.79857 10.3234C7.79857 9.20497 8.7052 8.29834 9.82358 8.29834H15.9127C17.0311 8.29834 17.9377 9.20497 17.9377 10.3234V16.4125C17.9377 17.5309 17.0311 18.4375 15.9127 18.4375H9.82358C8.7052 18.4375 7.79857 17.5309 7.79857 16.4125V10.3234ZM9.82358 8.43929C8.78304 8.43929 7.93952 9.28282 7.93952 10.3234V16.4125C7.93952 17.453 8.78304 18.2966 9.82358 18.2966H15.9127C16.9533 18.2966 17.7968 17.453 17.7968 16.4125V10.3234C17.7968 9.28282 16.9533 8.43929 15.9127 8.43929H9.82358ZM9.82358 9.64209C9.44733 9.64209 9.14231 9.9471 9.14231 10.3234V16.4125C9.14231 16.7888 9.44733 17.0938 9.82358 17.0938H15.9127C16.289 17.0938 16.594 16.7888 16.594 16.4125V10.3234C16.594 9.9471 16.289 9.64209 15.9127 9.64209H9.82358ZM9.00136 10.3234C9.00136 9.86925 9.36948 9.50113 9.82358 9.50113H15.9127C16.3668 9.50113 16.7349 9.86925 16.7349 10.3234V16.4125C16.7349 16.8666 16.3668 17.2347 15.9127 17.2347H9.82358C9.36948 17.2347 9.00136 16.8666 9.00136 16.4125V10.3234Z" fill="#1A1B1E"/>
<path fill-rule="evenodd" clip-rule="evenodd" d="M5.08779 4.83561C4.88842 4.83561 4.69721 4.91481 4.55623 5.05579C4.41525 5.19677 4.33605 5.38798 4.33605 5.58735V11.6765C4.33605 11.8759 4.41525 12.0671 4.55623 12.2081C4.69721 12.349 4.88842 12.4282 5.08779 12.4282H5.76436C6.09651 12.4282 6.36576 12.6975 6.36576 13.0296C6.36576 13.3618 6.09651 13.631 5.76436 13.631H5.08779C4.56942 13.631 4.07227 13.4251 3.70573 13.0586C3.33918 12.692 3.13326 12.1949 3.13326 11.6765V5.58735C3.13326 5.06898 3.33918 4.57183 3.70573 4.20528C4.07227 3.83874 4.56942 3.63281 5.08779 3.63281H11.1769C11.6953 3.63281 12.1925 3.83874 12.559 4.20528C12.9255 4.57183 13.1315 5.06897 13.1315 5.58735V6.26392C13.1315 6.59606 12.8622 6.86532 12.5301 6.86532C12.1979 6.86532 11.9287 6.59606 11.9287 6.26392V5.58735C11.9287 5.38798 11.8495 5.19677 11.7085 5.05579C11.5675 4.91481 11.3763 4.83561 11.1769 4.83561H5.08779Z" fill="#212327"/>
<path fill-rule="evenodd" clip-rule="evenodd" d="M5.08752 3.5625C4.55045 3.5625 4.03538 3.77585 3.65561 4.15561C3.27585 4.53538 3.0625 5.05045 3.0625 5.58752V11.6767C3.0625 12.2137 3.27585 12.7288 3.65561 13.1086C4.03538 13.4883 4.55045 13.7017 5.08752 13.7017H5.76409C6.13515 13.7017 6.43596 13.4009 6.43596 13.0298C6.43596 12.6587 6.13515 12.3579 5.76409 12.3579H5.08752C4.90683 12.3579 4.73355 12.2861 4.60578 12.1584C4.47802 12.0306 4.40625 11.8573 4.40625 11.6767V5.58752C4.40625 5.40683 4.47802 5.23355 4.60578 5.10578C4.73355 4.97802 4.90683 4.90625 5.08752 4.90625H11.1767C11.3573 4.90625 11.5306 4.97802 11.6584 5.10578C11.7861 5.23355 11.8579 5.40683 11.8579 5.58752V6.26409C11.8579 6.63515 12.1587 6.93596 12.5298 6.93596C12.9009 6.93596 13.2017 6.63515 13.2017 6.26409V5.58752C13.2017 5.05045 12.9883 4.53538 12.6086 4.15561C12.2288 3.77585 11.7137 3.5625 11.1767 3.5625H5.08752ZM3.75528 4.25528C4.10861 3.90195 4.58783 3.70345 5.08752 3.70345H11.1767C11.6763 3.70345 12.1556 3.90195 12.5089 4.25528C12.8622 4.60861 13.0607 5.08783 13.0607 5.58752V6.26409C13.0607 6.55731 12.823 6.79501 12.5298 6.79501C12.2366 6.79501 11.9989 6.55731 11.9989 6.26409V5.58752C11.9989 5.36945 11.9123 5.16031 11.7581 5.00612C11.6039 4.85192 11.3947 4.76529 11.1767 4.76529H5.08752C4.86945 4.76529 4.66031 4.85192 4.50612 5.00612C4.35192 5.16031 4.26529 5.36945 4.26529 5.58752V11.6767C4.26529 11.8947 4.35192 12.1039 4.50612 12.2581C4.66031 12.4123 4.86945 12.4989 5.08752 12.4989H5.76409C6.05731 12.4989 6.29501 12.7366 6.29501 13.0298C6.29501 13.323 6.05731 13.5607 5.76409 13.5607H5.08752C4.58783 13.5607 4.10861 13.3622 3.75528 13.0089C3.40195 12.6556 3.20345 12.1763 3.20345 11.6767V5.58752C3.20345 5.08783 3.40195 4.60861 3.75528 4.25528ZM10.1619 8.375C8.89889 8.375 7.875 9.39889 7.875 10.6619V16.1506C7.875 17.4136 8.89889 18.4375 10.1619 18.4375H15.6506C16.9136 18.4375 17.9375 17.4136 17.9375 16.1506V10.6619C17.9375 9.39889 16.9136 8.375 15.6506 8.375H10.1619Z" fill="#212327"/>
</svg>
