<svg width="17" height="14" viewBox="0 0 17 14" fill="none" xmlns="http://www.w3.org/2000/svg">
<path d="M7.05418 12.3257V12.4076C7.05591 12.4489 7.06118 12.49 7.06993 12.5304V12.8076C7.07264 12.8432 7.07264 12.8791 7.06993 12.9147C7.06564 12.9561 7.05827 12.9972 7.04788 13.0375C7.03861 13.0774 7.02596 13.1164 7.01008 13.1541C6.99604 13.1879 6.97182 13.2166 6.94078 13.236C6.91713 13.259 6.88777 13.2753 6.85573 13.2832C6.81704 13.2883 6.77787 13.2883 6.73918 13.2832H3.51677C3.13659 13.2865 2.7596 13.2137 2.40798 13.069C2.05701 12.9188 1.73668 12.7052 1.46299 12.4391C1.19681 12.1654 0.983259 11.845 0.833002 11.4941C0.692989 11.1479 0.622353 10.7776 0.625104 10.4042V3.32936C0.621851 2.94918 0.694679 2.57219 0.839302 2.22057C0.989559 1.8696 1.20311 1.54927 1.46929 1.27559C1.74298 1.0094 2.06331 0.795849 2.41428 0.645592C2.76438 0.503948 3.13913 0.433281 3.51677 0.437695H6.72973C6.77273 0.437306 6.81543 0.444778 6.85573 0.459744C6.89538 0.476081 6.93168 0.499572 6.96283 0.529044C6.9923 0.560192 7.01579 0.596495 7.03213 0.636142C7.04683 0.676519 7.0543 0.719172 7.05418 0.762141V0.83144C7.05568 0.874865 7.06095 0.918077 7.06993 0.960589V1.22204C7.07317 1.26082 7.07317 1.2998 7.06993 1.33858C7.06993 1.37323 7.06993 1.41733 7.04788 1.46773C7.04013 1.50496 7.02741 1.54098 7.01008 1.57483C6.99421 1.60665 6.97033 1.63379 6.94078 1.65358C6.9206 1.68316 6.89039 1.70442 6.85573 1.71343C6.81716 1.71995 6.77776 1.71995 6.73918 1.71343H3.51677C3.30841 1.71168 3.10177 1.7513 2.90883 1.82998C2.71218 1.91111 2.53263 2.02867 2.37963 2.17647C2.23183 2.32947 2.11427 2.50902 2.03314 2.70567C1.95238 2.90351 1.91273 3.11571 1.91659 3.32936V10.4042C1.91484 10.6125 1.95446 10.8192 2.03314 11.0121C2.11427 11.2088 2.23183 11.3883 2.37963 11.5413C2.53263 11.6891 2.71218 11.8067 2.90883 11.8878C3.10177 11.9665 3.30841 12.0061 3.51677 12.0044H6.66673C6.70174 12.0136 6.73766 12.0188 6.77383 12.0201H6.86833C6.88723 12.0201 6.89668 12.0201 6.89668 12.0453C6.89668 12.0705 6.89668 12.0611 6.91243 12.0674L6.97543 12.1052C6.99899 12.1108 7.02003 12.1241 7.03528 12.143C7.04342 12.1541 7.04882 12.1671 7.05103 12.1808C7.0431 12.2032 7.0431 12.2276 7.05103 12.2501C7.04722 12.2752 7.04829 12.3009 7.05418 12.3257V12.3257ZM16.1891 6.42263C16.2497 6.48115 16.297 6.55206 16.3277 6.63052C16.3589 6.70648 16.3749 6.7878 16.3749 6.86992C16.3763 6.9542 16.3602 7.03785 16.3277 7.11562C16.2959 7.19169 16.2487 7.26034 16.1891 7.31722L10.705 12.7887C10.6456 12.8483 10.5749 12.8954 10.4971 12.9273C10.4221 12.9577 10.3417 12.9727 10.2608 12.9714C10.1758 12.9737 10.0911 12.9587 10.012 12.9273C9.93816 12.8932 9.87097 12.8463 9.81355 12.7887C9.74973 12.7271 9.69746 12.6545 9.6592 12.5745C9.62676 12.4956 9.61069 12.411 9.61195 12.3257V9.43399H5.1327C5.04559 9.43608 4.95891 9.4211 4.87756 9.38989C4.79958 9.35821 4.72875 9.31122 4.66924 9.25171C4.60973 9.1922 4.56274 9.12137 4.53106 9.0434C4.49961 8.9621 4.48462 8.87538 4.48696 8.78825V4.94529C4.48487 4.85818 4.49985 4.7715 4.53106 4.69015C4.56274 4.61217 4.60973 4.54134 4.66924 4.48183C4.72875 4.42232 4.79958 4.37533 4.87756 4.34365C4.95891 4.31244 5.04559 4.29746 5.1327 4.29955H9.6214V1.40788C9.62014 1.32259 9.63621 1.23793 9.66865 1.15904C9.70691 1.079 9.75918 1.00646 9.823 0.944839C9.88042 0.887253 9.94761 0.840325 10.0214 0.80624C10.0999 0.771645 10.1846 0.753423 10.2703 0.752691C10.3512 0.751439 10.4315 0.766435 10.5065 0.796791C10.5844 0.828646 10.6551 0.875773 10.7144 0.935389L16.1891 6.42263Z" fill="#212121"/>
</svg>
