<svg width="15" height="14" viewBox="0 0 15 14" fill="none" xmlns="http://www.w3.org/2000/svg">
<path d="M1.77778 13.2223C1.28889 13.2223 0.870518 13.0484 0.522666 12.7005C0.174222 12.3521 0 11.9334 0 11.4445V5.22228H1.77778V11.4445H9.77778V13.2223H1.77778ZM5.33333 9.66672C4.84444 9.66672 4.42607 9.4925 4.07822 9.14405C3.72978 8.7962 3.55556 8.37783 3.55556 7.88894V2.55561C3.55556 2.06672 3.72978 1.64805 4.07822 1.29961C4.42607 0.951758 4.84444 0.777832 5.33333 0.777832H12.4444C12.9333 0.777832 13.352 0.951758 13.7004 1.29961C14.0483 1.64805 14.2222 2.06672 14.2222 2.55561V7.88894C14.2222 8.37783 14.0483 8.7962 13.7004 9.14405C13.352 9.4925 12.9333 9.66672 12.4444 9.66672H5.33333ZM5.33333 7.88894H12.4444V4.33339H5.33333V7.88894Z" fill="#2196F3"/>
</svg>
