<svg width="15" height="16" viewBox="0 0 15 16" fill="none" xmlns="http://www.w3.org/2000/svg">
    <path d="M4.25495 0.5C4.54489 0.5 4.77994 0.734933 4.77994 1.02474L4.77975 2.00675H10.4175L10.4176 1.03111C10.4176 0.741302 10.6527 0.506369 10.9426 0.506369C11.2325 0.506369 11.4676 0.741302 11.4676 1.03111L11.4675 2.00675L13.5 2.00676C14.3284 2.00676 15 2.678 15 3.50601V14.0008C15 14.8288 14.3284 15.5 13.5 15.5H1.5C0.671573 15.5 0 14.8288 0 14.0008V3.50601C0 2.678 0.671573 2.00676 1.5 2.00676L3.72975 2.00675L3.72995 1.02474C3.72995 0.734933 3.965 0.5 4.25495 0.5ZM1.05 6.3065V14.0008C1.05 14.2492 1.25147 14.4505 1.5 14.4505H13.5C13.7485 14.4505 13.95 14.2492 13.95 14.0008V6.317L1.05 6.3065ZM5 11.464V12.7136H3.75V11.464H5ZM8.125 11.464V12.7136H6.875V11.464H8.125ZM11.25 11.464V12.7136H10V11.464H11.25ZM5 8.48132V9.73092H3.75V8.48132H5ZM8.125 8.48132V9.73092H6.875V8.48132H8.125ZM11.25 8.48132V9.73092H10V8.48132H11.25ZM3.72975 3.056L1.5 3.05624C1.25147 3.05624 1.05 3.25761 1.05 3.50601V5.25725L13.95 5.26775V3.50601C13.95 3.25761 13.7485 3.05624 13.5 3.05624L11.4675 3.056L11.4676 3.75273C11.4676 4.04253 11.2325 4.27747 10.9426 4.27747C10.6527 4.27747 10.4176 4.04253 10.4176 3.75273L10.4175 3.056H4.77975L4.77994 3.74636C4.77994 4.03617 4.54489 4.2711 4.25495 4.2711C3.965 4.2711 3.72995 4.03617 3.72995 3.74636L3.72975 3.056Z" fill="#828282"/>
</svg>
