<svg width="34" height="40" viewBox="0 0 34 40" fill="none" xmlns="http://www.w3.org/2000/svg">
    <path d="M33.5736 23.559L28.6628 18.6493C28.5267 18.5149 28.345 18.4393 28.155 18.4393C27.9651 18.4393 27.7827 18.5148 27.6479 18.6493L26.7919 19.5057C26.5125 19.7861 26.5125 20.2397 26.7919 20.52L30.3383 24.066L26.7919 27.6145C26.5125 27.8949 26.5116 28.3484 26.7919 28.6287L27.6479 29.4854C27.7828 29.6199 27.9651 29.6954 28.155 29.6954C28.345 29.6954 28.5267 29.6199 28.6628 29.4854L33.5736 24.5731C33.7089 24.4387 33.7842 24.2559 33.7842 24.066C33.7842 23.876 33.7088 23.6932 33.5736 23.559Z" fill="#0077C0"/>
    <path d="M21.2427 14.1367L18.1882 15.2983L15.9115 12.2686V11.8071C15.9115 9.96867 14.4205 8.47772 12.5819 8.47772H11.1591C10.0563 8.47772 9.08464 9.02097 8.47851 9.84844L4.29205 11.97C3.96814 12.1348 3.70712 12.4016 3.5493 12.7292L1.12293 17.7796C0.727946 18.6033 1.07506 19.5911 1.89836 19.9872C2.1279 20.0976 2.37262 20.1506 2.61252 20.1506C3.22885 20.1506 3.82036 19.8049 4.10484 19.2125L6.28842 14.6671L7.83021 13.8862V23.8277L8.22768 28.7672L1.36187 32.4786C0.301237 33.0521 -0.0943904 34.3764 0.479776 35.4372C0.873315 36.1679 1.62578 36.5825 2.40057 36.5825C2.75251 36.5825 3.10774 36.4978 3.43718 36.3197L11.5957 31.9092C12.3776 31.4868 12.8262 30.6321 12.7282 29.7489L12.3584 26.4031L14.7253 30.6649V37.8171C14.7253 39.0224 15.7039 39.9999 16.9092 39.9999C18.1146 39.9999 19.0922 39.0225 19.0922 37.8171V30.0991C19.0922 29.7282 18.9968 29.3632 18.817 29.039L15.9115 23.8275V17.7736L16.2913 18.2794C16.6107 18.7046 17.1038 18.9403 17.613 18.9403C17.8111 18.9403 18.0098 18.9055 18.2012 18.8325L22.4178 17.2284C23.2721 16.9034 23.7011 15.948 23.3752 15.0947C23.0515 14.2415 22.0975 13.8093 21.2427 14.1367Z" fill="#0077C0"/>
    <path d="M11.8712 7.73345C14.0058 7.73345 15.7373 6.00284 15.7373 3.86689C15.7373 1.73061 14.0058 0 11.8712 0C9.73442 0 8.00293 1.73061 8.00293 3.86697C8.00293 6.00292 9.73434 7.73345 11.8712 7.73345Z" fill="#0077C0"/>
</svg>
