<svg width="18" height="17" viewBox="0 0 18 17" fill="none" xmlns="http://www.w3.org/2000/svg">
<path d="M6.90233 2.97559C4.97625 2.97559 3.41815 4.53372 3.41815 6.4552C3.41815 7.27291 3.69976 8.02241 4.16768 8.6175C4.80364 9.42153 5.79395 9.93939 6.90233 9.93939C8.0107 9.93939 8.99644 9.42153 9.6324 8.6175C10.1003 8.02241 10.382 7.27291 10.382 6.4552C10.382 4.53372 8.82384 2.97559 6.90233 2.97559Z" fill="white"/>
<path d="M10.3771 8.89282C10.3305 8.95928 10.2849 9.0262 10.2343 9.0906C9.41696 10.1236 8.19574 10.715 6.88165 10.715C5.56464 10.715 4.34154 10.1236 3.52566 9.09247C3.47482 9.0278 3.429 8.96054 3.38219 8.89377C1.38907 9.77695 0 11.7671 0 14.0865V16.2015H13.7631V14.0865C13.7631 11.7674 12.3707 9.77368 10.3771 8.89282Z" fill="white"/>
<path d="M11.1185 0C9.61061 0 8.3297 0.94739 7.82837 2.27659C9.72886 2.70894 11.153 4.4091 11.153 6.43875C11.153 6.63965 11.1343 6.83693 11.107 7.03224C11.1109 7.03228 11.1146 7.03293 11.1185 7.03293C12.2379 7.03293 13.2334 6.50997 13.8757 5.69793C14.3482 5.09698 14.6327 4.34002 14.6327 3.5142C14.6327 1.5736 13.0591 0 11.1185 0Z" fill="white"/>
<path d="M14.614 5.96826C14.5675 6.03472 14.5219 6.10164 14.4713 6.16604C13.6539 7.19897 12.4327 7.79041 11.1186 7.79041C11.0572 7.79041 10.9972 7.78272 10.9362 7.78017C10.8849 7.9351 10.826 8.08752 10.7571 8.23602C12.7967 9.16859 14.1874 11.0874 14.4659 13.2769H18V11.162C18 8.84281 16.6077 6.84912 14.614 5.96826Z" fill="white"/>
</svg>
