<svg fill="none" height="240" viewBox="0 0 375 240" width="375" xmlns="http://www.w3.org/2000/svg">
    <path
        d="M294.037 188.257L76.1859 182.01C71.2876 181.874 66.607 179.955 63.0209 176.613C59.4348 173.271 57.1893 168.735 56.7049 163.855L46.1894 59.8762C45.9094 57.0929 46.2101 54.2818 47.0725 51.6209C47.9348 48.96 49.34 46.5074 51.1989 44.4184C53.0579 42.3293 55.3302 40.6495 57.8717 39.4852C60.4133 38.321 63.1688 37.6977 65.9636 37.6548L308.449 34.3007C311.333 34.2617 314.191 34.8411 316.832 36C319.473 37.1589 321.836 38.8703 323.761 41.0193C325.686 43.1682 327.129 45.7048 327.993 48.4584C328.856 51.212 329.121 54.1188 328.768 56.9832L314.65 170.564C314.02 175.547 311.562 180.118 307.752 183.388C303.943 186.658 299.054 188.393 294.037 188.257Z"
        fill="#EAF0F9" />
    <path
        d="M228.928 193.031L229.682 210.012C229.682 211.68 229.02 213.279 227.841 214.459C226.663 215.638 225.065 216.301 223.398 216.301H49.2842C47.6175 216.301 46.0191 215.638 44.8406 214.459C43.6621 213.279 43 211.68 43 210.012V111.189C43 109.521 43.6621 107.922 44.8406 106.742C46.0191 105.563 47.6175 104.9 49.2842 104.9H223.356C225.023 104.9 226.621 105.563 227.8 106.742C228.978 107.922 229.64 109.521 229.64 111.189V178.021"
        stroke="#B8C1D8" stroke-linecap="round" stroke-linejoin="round" stroke-width="1.8" />
    <path
        d="M267.932 178.442V81.1289C267.932 79.4609 268.594 77.8613 269.772 76.6819C270.951 75.5024 272.549 74.8398 274.216 74.8398H326.165C327.832 74.8398 329.43 75.5024 330.609 76.6819C331.787 77.8613 332.449 79.4609 332.449 81.1289V225.484C332.449 227.152 331.787 228.751 330.609 229.931C329.43 231.11 327.832 231.773 326.165 231.773H274.216C272.549 231.773 270.951 231.11 269.772 229.931C268.594 228.751 267.932 227.152 267.932 225.484V194.08"
        stroke="#B8C1D8" stroke-linecap="round" stroke-linejoin="round" stroke-width="1.8" />
    <path
        d="M82.004 75.4268H44.3408V71.6953H82.004C82.1032 71.6948 82.2015 71.7139 82.2932 71.7516C82.385 71.7894 82.4683 71.8449 82.5385 71.9151C82.6086 71.9853 82.6641 72.0687 82.7018 72.1605C82.7395 72.2524 82.7587 72.3507 82.7581 72.45V74.6302C82.7664 74.7334 82.7529 74.8371 82.7185 74.9347C82.684 75.0323 82.6295 75.1215 82.5584 75.1967C82.4873 75.2718 82.4012 75.3311 82.3057 75.3707C82.2101 75.4104 82.1074 75.4295 82.004 75.4268V75.4268Z"
        stroke="#B8C1D8" stroke-linecap="round" stroke-linejoin="round" stroke-width="1.8" />
    <path
        d="M76.1443 105.075H67.6397C67.1966 105.076 66.7685 104.914 66.4365 104.621C66.1044 104.327 65.8916 103.922 65.8383 103.482L65.1679 97.4441C65.1403 97.1908 65.1663 96.9344 65.2442 96.6918C65.3221 96.4491 65.4502 96.2256 65.6201 96.0357C65.79 95.8459 65.998 95.694 66.2305 95.5899C66.463 95.4858 66.7147 95.4319 66.9694 95.4316H76.8146C77.0691 95.4326 77.3206 95.4869 77.5527 95.5912C77.7849 95.6955 77.9926 95.8474 78.1624 96.0371C78.3322 96.2268 78.4603 96.4501 78.5385 96.6924C78.6166 96.9348 78.6431 97.1909 78.6161 97.4441L77.9458 103.482C77.8987 103.924 77.6877 104.334 77.3543 104.628C77.0209 104.923 76.5892 105.083 76.1443 105.075V105.075Z"
        stroke="#B8C1D8" stroke-linecap="round" stroke-linejoin="round" stroke-width="1.8" />
    <path
        d="M70.9076 95.4724C70.9076 95.4724 67.5561 95.137 66.8857 90.6089C66.8857 90.6089 69.9021 91.4893 70.8657 93.6276C70.8657 93.6276 71.2847 88.8479 73.547 88.3867C73.547 88.3867 74.5524 91.9505 72.9604 93.7115C72.9604 93.7115 74.1754 91.699 77.2756 91.7409C76.9827 92.6239 76.4783 93.4218 75.8065 94.0649C75.1346 94.708 74.3158 95.1768 73.4213 95.4305"
        fill="#B8C1D8" />
    <path
        d="M305.051 74.8405H296.546C296.103 74.8417 295.675 74.6801 295.343 74.3865C295.011 74.0928 294.798 73.6875 294.745 73.2473L294.074 67.2098C294.047 66.9564 294.073 66.7 294.15 66.4574C294.228 66.2147 294.356 65.9912 294.526 65.8014C294.696 65.6115 294.904 65.4596 295.137 65.3555C295.369 65.2515 295.621 65.1975 295.876 65.1973H305.721C305.975 65.1982 306.227 65.2525 306.459 65.3568C306.691 65.4611 306.899 65.613 307.069 65.8027C307.238 65.9924 307.367 66.2157 307.445 66.4581C307.523 66.7004 307.549 66.9565 307.522 67.2098L306.852 73.2473C306.799 73.6875 306.586 74.0928 306.254 74.3865C305.922 74.6801 305.494 74.8417 305.051 74.8405V74.8405Z"
        stroke="#B8C1D8" stroke-linecap="round" stroke-linejoin="round" stroke-width="1.8" />
    <path
        d="M299.772 65.238C299.772 65.238 296.42 64.9026 295.75 60.3745C295.75 60.3745 298.766 61.255 299.73 63.3932C299.73 63.3932 300.149 58.6135 302.411 58.1523C302.411 58.1523 303.417 61.7162 301.825 63.4771C301.825 63.4771 303.04 61.4646 306.14 61.5065C305.847 62.3895 305.343 63.1874 304.671 63.8305C303.999 64.4737 303.18 64.9425 302.286 65.1961"
        fill="#B8C1D8" />
    <path
        d="M222.057 125.74H184.268C183.803 125.737 183.357 125.551 183.028 125.221C182.699 124.891 182.512 124.445 182.509 123.979V112.491C182.512 112.025 182.699 111.579 183.028 111.25C183.357 110.92 183.803 110.734 184.268 110.73H222.057C222.523 110.734 222.969 110.92 223.298 111.25C223.627 111.579 223.814 112.025 223.817 112.491V123.979C223.814 124.445 223.627 124.891 223.298 125.221C222.969 125.551 222.523 125.737 222.057 125.74V125.74Z"
        stroke="#B8C1D8" stroke-linecap="round" stroke-linejoin="round" stroke-width="1.8" />
    <path
        d="M207.358 114.969H198.644C198.479 114.965 198.321 114.897 198.204 114.78C198.087 114.663 198.02 114.505 198.016 114.34C198.02 114.174 198.087 114.017 198.204 113.9C198.321 113.783 198.479 113.715 198.644 113.711H207.358C207.523 113.715 207.681 113.783 207.798 113.9C207.915 114.017 207.982 114.174 207.987 114.34C207.988 114.423 207.973 114.505 207.942 114.583C207.911 114.66 207.865 114.73 207.806 114.788C207.748 114.847 207.678 114.893 207.601 114.924C207.524 114.955 207.441 114.97 207.358 114.969Z"
        fill="#B8D8C7" />
    <path
        d="M222.057 144.985H184.268C183.803 144.981 183.357 144.795 183.028 144.465C182.699 144.136 182.512 143.69 182.509 143.224V131.736C182.512 131.27 182.699 130.824 183.028 130.494C183.357 130.164 183.803 129.978 184.268 129.975H222.057C222.523 129.978 222.969 130.164 223.298 130.494C223.627 130.824 223.814 131.27 223.817 131.736V143.224C223.814 143.69 223.627 144.136 223.298 144.465C222.969 144.795 222.523 144.981 222.057 144.985V144.985Z"
        stroke="#B8C1D8" stroke-linecap="round" stroke-linejoin="round" stroke-width="1.8" />
    <path
        d="M207.358 134.172H198.644C198.479 134.168 198.321 134.1 198.204 133.983C198.087 133.866 198.02 133.708 198.016 133.543C198.02 133.378 198.087 133.22 198.204 133.103C198.321 132.986 198.479 132.918 198.644 132.914H207.358C207.523 132.918 207.681 132.986 207.798 133.103C207.915 133.22 207.982 133.378 207.987 133.543C207.988 133.626 207.973 133.709 207.942 133.786C207.911 133.863 207.865 133.933 207.806 133.991C207.748 134.05 207.678 134.096 207.601 134.127C207.524 134.158 207.441 134.174 207.358 134.172Z"
        fill="#B8D8C7" />
    <path
        d="M173.879 125.74H136.09C135.624 125.737 135.178 125.551 134.849 125.221C134.52 124.891 134.333 124.445 134.33 123.979V112.491C134.333 112.025 134.52 111.579 134.849 111.25C135.178 110.92 135.624 110.734 136.09 110.73H173.879C174.344 110.734 174.79 110.92 175.119 111.25C175.448 111.579 175.635 112.025 175.638 112.491V123.979C175.635 124.445 175.448 124.891 175.119 125.221C174.79 125.551 174.344 125.737 173.879 125.74V125.74Z"
        stroke="#B8C1D8" stroke-linecap="round" stroke-linejoin="round" stroke-width="1.8" />
    <path
        d="M159.341 114.797H150.626C150.461 114.793 150.304 114.725 150.187 114.608C150.07 114.491 150.002 114.333 149.998 114.168C150.002 114.003 150.07 113.845 150.187 113.728C150.304 113.611 150.461 113.543 150.626 113.539H159.341C159.506 113.543 159.663 113.611 159.78 113.728C159.897 113.845 159.965 114.003 159.969 114.168C159.965 114.333 159.897 114.491 159.78 114.608C159.663 114.725 159.506 114.793 159.341 114.797Z"
        fill="#B8C1D8" />
    <path
        d="M173.879 144.985H136.09C135.624 144.981 135.178 144.795 134.849 144.465C134.52 144.136 134.333 143.69 134.33 143.224V131.736C134.333 131.27 134.52 130.824 134.849 130.494C135.178 130.164 135.624 129.978 136.09 129.975H173.879C174.344 129.978 174.79 130.164 175.119 130.494C175.448 130.824 175.635 131.27 175.638 131.736V143.224C175.635 143.69 175.448 144.136 175.119 144.465C174.79 144.795 174.344 144.981 173.879 144.985V144.985Z"
        stroke="#B8C1D8" stroke-linecap="round" stroke-linejoin="round" stroke-width="1.8" />
    <path
        d="M159.341 134H150.626C150.461 133.996 150.304 133.928 150.187 133.811C150.07 133.694 150.002 133.537 149.998 133.371C150.002 133.206 150.07 133.048 150.187 132.931C150.304 132.814 150.461 132.746 150.626 132.742H159.341C159.506 132.746 159.663 132.814 159.78 132.931C159.897 133.048 159.965 133.206 159.969 133.371C159.965 133.537 159.897 133.694 159.78 133.811C159.663 133.928 159.506 133.996 159.341 134Z"
        fill="#B8C1D8" />
    <path
        d="M222.057 163.768H184.268C183.803 163.764 183.357 163.578 183.028 163.248C182.699 162.919 182.512 162.473 182.509 162.007V150.519C182.512 150.053 182.699 149.607 183.028 149.277C183.357 148.948 183.803 148.761 184.268 148.758H222.057C222.523 148.761 222.969 148.948 223.298 149.277C223.627 149.607 223.814 150.053 223.817 150.519V162.007C223.814 162.473 223.627 162.919 223.298 163.248C222.969 163.578 222.523 163.764 222.057 163.768V163.768Z"
        stroke="#B8C1D8" stroke-linecap="round" stroke-linejoin="round" stroke-width="1.8" />
    <path
        d="M207.478 152.824H198.764C198.599 152.82 198.441 152.752 198.325 152.635C198.208 152.518 198.14 152.361 198.136 152.195C198.14 152.03 198.208 151.872 198.325 151.755C198.441 151.638 198.599 151.571 198.764 151.566H207.478C207.644 151.571 207.801 151.638 207.918 151.755C208.035 151.872 208.102 152.03 208.107 152.195C208.108 152.278 208.093 152.361 208.062 152.438C208.031 152.515 207.985 152.585 207.926 152.644C207.868 152.703 207.798 152.749 207.721 152.78C207.644 152.811 207.561 152.826 207.478 152.824Z"
        fill="#B8C1D8" />
    <path
        d="M173.879 163.768H136.09C135.624 163.764 135.178 163.578 134.849 163.248C134.52 162.919 134.333 162.473 134.33 162.007V150.519C134.333 150.053 134.52 149.607 134.849 149.277C135.178 148.948 135.624 148.761 136.09 148.758H173.879C174.344 148.761 174.79 148.948 175.119 149.277C175.448 149.607 175.635 150.053 175.638 150.519V162.007C175.635 162.473 175.448 162.919 175.119 163.248C174.79 163.578 174.344 163.764 173.879 163.768V163.768Z"
        stroke="#B8C1D8" stroke-linecap="round" stroke-linejoin="round" stroke-width="1.8" />
    <path
        d="M159.341 152.824H150.626C150.461 152.82 150.304 152.752 150.187 152.635C150.07 152.518 150.002 152.361 149.998 152.195C150.002 152.03 150.07 151.872 150.187 151.755C150.304 151.638 150.461 151.571 150.626 151.566H159.341C159.506 151.571 159.663 151.638 159.78 151.755C159.897 151.872 159.965 152.03 159.969 152.195C159.965 152.361 159.897 152.518 159.78 152.635C159.663 152.752 159.506 152.82 159.341 152.824Z"
        fill="#B8C1D8" />
    <path
        d="M343.844 118.779H276.855C276.345 118.774 275.858 118.569 275.498 118.208C275.138 117.848 274.933 117.36 274.928 116.85V83.4345C274.933 82.9247 275.138 82.4373 275.498 82.0768C275.858 81.7163 276.345 81.5113 276.855 81.5059H343.844C344.354 81.5113 344.841 81.7163 345.201 82.0768C345.561 82.4373 345.766 82.9247 345.771 83.4345V116.85C345.775 117.105 345.728 117.357 345.633 117.593C345.537 117.829 345.396 118.043 345.216 118.223C345.036 118.403 344.822 118.545 344.586 118.64C344.351 118.736 344.098 118.783 343.844 118.779V118.779Z"
        stroke="#B8C1D8" stroke-linecap="round" stroke-linejoin="round" stroke-width="1.8" />
    <path
        d="M343.844 160.287H276.855C276.345 160.281 275.858 160.076 275.498 159.716C275.138 159.355 274.933 158.868 274.928 158.358V124.942C274.933 124.433 275.138 123.945 275.498 123.585C275.858 123.224 276.345 123.019 276.855 123.014H343.844C344.354 123.019 344.841 123.224 345.201 123.585C345.561 123.945 345.766 124.433 345.771 124.942V158.358C345.772 158.612 345.722 158.863 345.626 159.097C345.529 159.331 345.387 159.544 345.208 159.723C345.029 159.902 344.816 160.044 344.582 160.141C344.348 160.238 344.097 160.287 343.844 160.287V160.287Z"
        stroke="#B8C1D8" stroke-linecap="round" stroke-linejoin="round" stroke-width="1.8" />
    <path d="M291.817 97.8633H287.67V118.953H291.817V97.8633Z" stroke="#B8C1D8" stroke-linecap="round"
        stroke-linejoin="round" stroke-width="1.8" />
    <path d="M296.091 103.648H291.776V118.994H296.091V103.648Z" stroke="#B8C1D8" stroke-linecap="round"
        stroke-linejoin="round" stroke-width="1.8" />
    <path d="M66.838 50.6055H62.6904V71.6948H66.838V50.6055Z" stroke="#B8C1D8" stroke-linecap="round"
        stroke-linejoin="round" stroke-width="1.8" />
    <path d="M71.111 56.3496H66.7959V71.6949H71.111V56.3496Z" stroke="#B8C1D8" stroke-linecap="round"
        stroke-linejoin="round" stroke-width="1.8" />
    <path d="M58.3751 59.3672H54.2275V71.6938H58.3751V59.3672Z" stroke="#B8C1D8" stroke-linecap="round"
        stroke-linejoin="round" stroke-width="1.8" />
    <path d="M62.6901 47H58.375V71.6531H62.6901V47Z" stroke="#B8C1D8" stroke-linecap="round"
        stroke-linejoin="round" stroke-width="1.8" />
    <path
        d="M289.22 142.139L289.681 135.892C289.69 135.794 289.678 135.695 289.646 135.603C289.614 135.51 289.563 135.425 289.495 135.354C289.428 135.282 289.346 135.226 289.256 135.189C289.165 135.151 289.067 135.134 288.969 135.137H285.408C285.311 135.138 285.215 135.158 285.126 135.196C285.037 135.235 284.957 135.291 284.89 135.362C284.824 135.432 284.772 135.516 284.739 135.607C284.705 135.698 284.691 135.795 284.696 135.892L285.157 142.139C285.157 142.139 281.386 144.571 281.428 146.583C281.47 148.135 282.392 155.556 282.811 158.826C282.864 159.266 283.077 159.671 283.409 159.965C283.741 160.259 284.169 160.42 284.612 160.419H289.807C290.25 160.42 290.678 160.259 291.01 159.965C291.342 159.671 291.555 159.266 291.608 158.826C292.027 155.556 292.949 148.135 292.991 146.583C292.991 144.571 289.22 142.139 289.22 142.139Z"
        fill="#B8C1D8" />
    <path
        d="M309.413 100.67L309.874 94.4231C309.883 94.3253 309.871 94.2267 309.839 94.1339C309.807 94.0411 309.755 93.9561 309.688 93.8848C309.62 93.8134 309.539 93.7572 309.448 93.7198C309.357 93.6825 309.259 93.665 309.161 93.6684H305.558C305.461 93.6688 305.366 93.6889 305.277 93.7276C305.188 93.7662 305.107 93.8225 305.041 93.8931C304.974 93.9636 304.923 94.047 304.889 94.1381C304.856 94.2292 304.841 94.3261 304.846 94.4231L305.307 100.67C305.307 100.67 301.537 103.102 301.578 105.114C301.62 106.666 302.542 114.087 302.961 117.357C303.014 117.797 303.227 118.203 303.559 118.496C303.891 118.79 304.319 118.952 304.762 118.95H309.957C310.4 118.952 310.829 118.79 311.161 118.496C311.493 118.203 311.705 117.797 311.759 117.357C312.178 114.087 313.099 106.666 313.141 105.114C313.183 103.102 309.413 100.67 309.413 100.67Z"
        fill="#B8C1D8" />
    <path d="M48.5781 176.225L343.097 179.453" stroke="#B8C1D8" stroke-linecap="round"
        stroke-linejoin="round" stroke-width="1.8" />
    <path
        d="M203.629 27.0058C201.995 30.4858 198.225 32.7918 195.586 32.079C193.281 31.4501 192.862 28.7248 194.329 25.9996C195.753 23.4001 198.602 21.3037 201.074 21.2618C203.797 21.1779 205.138 23.6936 203.629 27.0058Z"
        fill="#F8AB5D" />
    <path
        d="M202.834 26.2929C201.2 29.7729 197.429 32.0789 194.79 31.3661C192.486 30.7372 192.067 28.0119 193.533 25.2867C194.957 22.6872 197.806 20.5908 200.278 20.5489C203.001 20.4651 204.342 22.9807 202.834 26.2929Z"
        fill="#FFE779" />
    <path
        d="M201.493 26.124C200.278 28.7234 197.429 30.4844 195.418 30.0232C193.617 29.6039 193.198 27.5075 194.329 25.3693C195.418 23.3148 197.722 21.6797 199.607 21.6797C201.744 21.7216 202.666 23.6503 201.493 26.124Z"
        fill="#F8AB5D" />
    <path
        d="M196.046 28.3461L196.214 28.0526C196.256 27.9268 196.256 27.843 196.172 27.801C195.987 27.7655 195.822 27.6605 195.711 27.5075C195.669 27.4656 195.669 27.3398 195.753 27.2141L195.795 27.1721C195.879 27.0464 196.046 27.0044 196.088 27.0883C196.233 27.2426 196.424 27.3456 196.633 27.3818C196.848 27.4125 197.066 27.3716 197.256 27.2656C197.445 27.1595 197.594 26.9941 197.68 26.7948C197.728 26.7187 197.759 26.6335 197.772 26.5446C197.786 26.4557 197.78 26.3651 197.757 26.2784C197.733 26.1918 197.692 26.1109 197.635 26.041C197.579 25.9711 197.509 25.9137 197.429 25.8724C197.318 25.8185 197.22 25.7413 197.141 25.6461C197.062 25.5508 197.005 25.4397 196.973 25.3203C196.942 25.2009 196.936 25.0761 196.957 24.9543C196.977 24.8325 197.024 24.7167 197.094 24.6146C197.211 24.3653 197.387 24.1478 197.605 23.9801C197.824 23.8123 198.079 23.6993 198.35 23.6503C198.434 23.6503 198.518 23.5664 198.602 23.4406L198.769 23.1471C198.791 23.0863 198.831 23.0336 198.883 22.9961C198.936 22.9586 198.998 22.9381 199.063 22.9375C199.146 22.9375 199.188 23.0214 199.146 23.1471L199.021 23.3987C198.979 23.5245 198.979 23.6083 199.105 23.6083C199.243 23.6297 199.373 23.6876 199.482 23.776C199.565 23.818 199.524 23.9437 199.44 24.0695L199.398 24.1115C199.314 24.2372 199.146 24.2792 199.105 24.1953C198.961 24.0836 198.784 24.0244 198.602 24.0276C198.411 24.0154 198.221 24.0608 198.057 24.158C197.893 24.2552 197.761 24.3997 197.68 24.5727C197.513 24.9081 197.638 25.1177 198.015 25.4112C198.131 25.4775 198.232 25.5675 198.31 25.6754C198.389 25.7833 198.444 25.9066 198.472 26.0372C198.499 26.1679 198.499 26.3029 198.471 26.4335C198.443 26.564 198.388 26.6872 198.309 26.7948C198.176 27.0738 197.977 27.3157 197.728 27.4986C197.48 27.6816 197.19 27.7999 196.884 27.843C196.827 27.851 196.773 27.8748 196.729 27.9119C196.684 27.9489 196.651 27.9977 196.633 28.0526L196.465 28.388C196.439 28.4454 196.398 28.4949 196.346 28.5316C196.295 28.5684 196.235 28.5911 196.172 28.5977C196.004 28.5977 195.962 28.4719 196.046 28.3461Z"
        fill="#FFE779" />
    <path
        d="M280.003 101.93L263.748 100.924C263.481 100.907 263.219 100.836 262.979 100.717C262.739 100.597 262.525 100.431 262.35 100.228C262.174 100.026 262.041 99.79 261.957 99.5351C261.874 99.2802 261.842 99.0113 261.863 98.7439L264.335 65.3699C264.382 64.8115 264.627 64.2885 265.027 63.896C265.427 63.5036 265.954 63.2678 266.513 63.2317L283.145 62.2254C283.433 62.2104 283.721 62.2569 283.99 62.3617C284.259 62.4666 284.502 62.6274 284.705 62.8335C284.907 63.0397 285.063 63.2864 285.162 63.5575C285.262 63.8285 285.302 64.1176 285.282 64.4056L282.517 99.7921C282.452 100.403 282.155 100.966 281.687 101.364C281.219 101.762 280.616 101.965 280.003 101.93Z"
        fill="#22272E" />
    <path
        d="M278.872 101.93L262.617 100.924C262.35 100.907 262.088 100.836 261.848 100.717C261.608 100.597 261.394 100.431 261.219 100.228C261.044 100.026 260.91 99.79 260.827 99.5351C260.743 99.2802 260.711 99.0113 260.732 98.7439L263.204 65.3699C263.251 64.8115 263.496 64.2885 263.896 63.896C264.296 63.5036 264.823 63.2678 265.382 63.2317L282.014 62.2254C282.302 62.2104 282.59 62.2569 282.859 62.3617C283.128 62.4666 283.372 62.6274 283.574 62.8335C283.776 63.0397 283.932 63.2864 284.031 63.5575C284.131 63.8285 284.172 64.1176 284.151 64.4056L281.386 99.7921C281.321 100.403 281.024 100.966 280.556 101.364C280.088 101.762 279.485 101.965 278.872 101.93Z"
        fill="#22272E" />
    <path
        d="M273.886 66.1235L270.786 66.2912C270.73 66.2949 270.674 66.2866 270.621 66.2669C270.569 66.2471 270.521 66.2164 270.482 66.1767C270.442 66.137 270.411 66.0892 270.391 66.0367C270.372 65.9841 270.363 65.928 270.367 65.872C270.368 65.75 270.417 65.6333 270.503 65.5471C270.589 65.4608 270.706 65.4119 270.828 65.4108L273.928 65.243C273.984 65.2393 274.04 65.2476 274.093 65.2674C274.145 65.2872 274.193 65.3179 274.233 65.3576C274.272 65.3973 274.303 65.445 274.323 65.4976C274.342 65.5501 274.351 65.6063 274.347 65.6623C274.346 65.7843 274.297 65.901 274.211 65.9872C274.125 66.0735 274.008 66.1224 273.886 66.1235Z"
        fill="#63737A" />
    <path
        d="M275.688 66.0404H275.604C275.548 66.0441 275.492 66.0358 275.44 66.0161C275.387 65.9963 275.339 65.9655 275.3 65.9259C275.26 65.8862 275.229 65.8384 275.21 65.7859C275.19 65.7333 275.181 65.6772 275.185 65.6212C275.201 65.4932 275.259 65.3743 275.35 65.2831C275.441 65.192 275.56 65.1339 275.688 65.118H275.772C275.828 65.1143 275.884 65.1226 275.936 65.1424C275.989 65.1622 276.036 65.1929 276.076 65.2326C276.116 65.2723 276.147 65.32 276.166 65.3726C276.186 65.4251 276.194 65.4813 276.191 65.5373C276.175 65.6652 276.117 65.7842 276.026 65.8753C275.935 65.9665 275.816 66.0246 275.688 66.0404Z"
        fill="#63737A" />
    <path
        d="M270.828 71.7006L266.681 71.8264C266.579 71.8278 266.479 71.8074 266.386 71.7667C266.294 71.726 266.211 71.6659 266.143 71.5904C266.076 71.5149 266.025 71.4257 265.995 71.329C265.965 71.2323 265.956 71.1303 265.968 71.0298C265.99 70.8149 266.086 70.6142 266.238 70.4614C266.391 70.3087 266.592 70.2132 266.806 70.1912L270.954 70.0235C271.055 70.0221 271.155 70.0425 271.248 70.0832C271.341 70.1239 271.424 70.184 271.491 70.2595C271.559 70.335 271.609 70.4241 271.639 70.5209C271.67 70.6176 271.679 70.7196 271.666 70.8201C271.66 71.0448 271.572 71.2593 271.417 71.422C271.262 71.5847 271.052 71.684 270.828 71.7006Z"
        fill="#63737A" />
    <path
        d="M269.739 86.1235L265.633 86.0815C265.534 86.0762 265.437 86.0513 265.348 86.0083C265.258 85.9654 265.178 85.9052 265.112 85.8311C265.046 85.7571 264.995 85.6708 264.962 85.5771C264.929 85.4833 264.915 85.384 264.921 85.2849C264.944 85.0746 265.041 84.8792 265.195 84.7334C265.348 84.5877 265.548 84.5008 265.759 84.4883L269.865 84.5302C269.965 84.5321 270.064 84.5546 270.155 84.5964C270.246 84.6382 270.327 84.6984 270.394 84.7732C270.461 84.8479 270.512 84.9357 270.543 85.0309C270.575 85.1262 270.586 85.2269 270.577 85.3268C270.561 85.5401 270.467 85.74 270.312 85.8873C270.157 86.0346 269.953 86.1188 269.739 86.1235Z"
        fill="#63737A" />
    <path
        d="M268.859 97.7795L264.754 97.5698C264.651 97.563 264.552 97.5357 264.46 97.4896C264.368 97.4434 264.287 97.3794 264.221 97.3012C264.154 97.223 264.104 97.1323 264.073 97.0344C264.043 96.9365 264.032 96.8334 264.042 96.7313C264.05 96.5267 264.138 96.3334 264.287 96.1926C264.435 96.0517 264.633 95.9743 264.838 95.9766L268.943 96.1443C269.047 96.1475 269.149 96.1724 269.242 96.2174C269.335 96.2624 269.418 96.3264 269.485 96.4054C269.552 96.4845 269.602 96.5766 269.631 96.6761C269.661 96.7756 269.669 96.8801 269.655 96.9829C269.655 97.1941 269.572 97.3968 269.422 97.5462C269.273 97.6956 269.071 97.7795 268.859 97.7795Z"
        fill="#63737A" />
    <path
        d="M278.411 80.9651L266.178 81.007C266.055 81.0076 265.933 80.9824 265.821 80.933C265.708 80.8836 265.607 80.8111 265.524 80.7202C265.441 80.6294 265.378 80.5222 265.339 80.4055C265.3 80.2888 265.286 80.1652 265.298 80.0427L265.675 74.718C265.691 74.5047 265.785 74.3048 265.94 74.1575C266.095 74.0102 266.299 73.926 266.513 73.9214L278.788 73.5859C278.911 73.5854 279.033 73.6106 279.145 73.66C279.258 73.7094 279.359 73.7819 279.442 73.8727C279.525 73.9636 279.588 74.0708 279.626 74.1875C279.665 74.3042 279.679 74.4278 279.668 74.5503L279.249 80.1266C279.249 80.349 279.161 80.5622 279.003 80.7195C278.846 80.8768 278.633 80.9651 278.411 80.9651Z"
        fill="#358ECE" />
    <path
        d="M269.445 93.292L265.256 93.1243C265.136 93.1203 265.018 93.0917 264.91 93.0402C264.802 92.9887 264.706 92.9154 264.627 92.8249C264.548 92.7344 264.489 92.6286 264.453 92.5142C264.417 92.3998 264.405 92.2792 264.418 92.1599L264.669 88.9735C264.675 88.8633 264.702 88.7553 264.749 88.6556C264.796 88.5559 264.862 88.4665 264.944 88.3925C265.026 88.3185 265.121 88.2614 265.225 88.2244C265.329 88.1874 265.439 88.1712 265.549 88.1769L269.781 88.2607C270.024 88.2738 270.253 88.3822 270.418 88.5626C270.582 88.743 270.669 88.9809 270.66 89.2251L270.409 92.4953C270.371 92.7218 270.252 92.927 270.075 93.0733C269.898 93.2195 269.675 93.2972 269.445 93.292Z"
        fill="#FFE779" />
    <path
        d="M277.406 93.5428L272.923 93.3751C272.803 93.3711 272.685 93.3425 272.577 93.291C272.469 93.2395 272.373 93.1662 272.294 93.0757C272.215 92.9852 272.156 92.8794 272.12 92.765C272.084 92.6506 272.072 92.53 272.085 92.4107L272.336 89.0985C272.342 88.9883 272.369 88.8803 272.416 88.7806C272.463 88.6809 272.529 88.5915 272.611 88.5175C272.693 88.4435 272.788 88.3864 272.892 88.3494C272.996 88.3124 273.106 88.2962 273.216 88.3019L277.741 88.3857C277.985 88.3988 278.213 88.5072 278.378 88.6876C278.543 88.868 278.63 89.1059 278.621 89.3501L278.369 92.7461C278.333 92.9734 278.215 93.1796 278.037 93.3262C277.86 93.4728 277.636 93.5498 277.406 93.5428Z"
        fill="#F4C2C9" />
    <path
        d="M177.11 50.3177L163.495 50.9466C163.244 50.9567 162.995 50.9105 162.764 50.8113C162.534 50.7121 162.329 50.5624 162.164 50.3733C161.999 50.1842 161.879 49.9605 161.812 49.7187C161.745 49.4768 161.733 49.223 161.777 48.976L164.039 26.3354C164.101 25.7611 164.346 25.2221 164.739 24.7989C165.131 24.3757 165.65 24.091 166.218 23.9874L180.085 22.1846C181.3 22.0169 182.138 22.8973 182.012 24.1132L179.457 48.0536C179.384 48.6429 179.111 49.1893 178.684 49.6014C178.257 50.0135 177.702 50.2664 177.11 50.3177Z"
        fill="#22272E" />
    <path
        d="M176.105 49.8567L162.489 50.4856C162.238 50.4958 161.989 50.4496 161.758 50.3504C161.528 50.2512 161.323 50.1015 161.158 49.9124C160.993 49.7233 160.873 49.4996 160.806 49.2577C160.739 49.0159 160.727 48.7621 160.771 48.515L163.034 25.8744C163.095 25.3001 163.34 24.7611 163.733 24.3379C164.125 23.9147 164.644 23.63 165.212 23.5265L179.079 21.7236C180.294 21.5559 181.132 22.4364 181.006 23.6523L178.451 47.5927C178.386 48.1849 178.115 48.7357 177.687 49.1493C177.258 49.563 176.698 49.8132 176.105 49.8567Z"
        fill="#22272E" />
    <path
        d="M176.733 29.3547L166.134 30.4867C166.055 30.4953 165.975 30.4861 165.9 30.4596C165.824 30.4332 165.756 30.3902 165.7 30.3339C165.644 30.2776 165.601 30.2093 165.574 30.1342C165.548 30.059 165.539 29.9789 165.547 29.8997L165.799 27.3003C165.807 27.1805 165.858 27.0677 165.942 26.9829C166.027 26.8981 166.14 26.8469 166.26 26.8391L176.901 25.5813C176.98 25.5726 177.06 25.5819 177.135 25.6083C177.21 25.6348 177.278 25.6778 177.335 25.7341C177.391 25.7904 177.434 25.8587 177.46 25.9338C177.487 26.0089 177.496 26.089 177.487 26.1682L177.194 28.8935C177.193 29.0155 177.144 29.1321 177.058 29.2184C176.972 29.3047 176.855 29.3536 176.733 29.3547Z"
        fill="#F4C2C9" />
    <path
        d="M166.888 36.5646L165.506 36.6904C165.427 36.699 165.346 36.6897 165.271 36.6633C165.196 36.6368 165.128 36.5939 165.072 36.5375C165.016 36.4812 164.973 36.413 164.946 36.3378C164.92 36.2627 164.911 36.1826 164.919 36.1034L165.087 34.594C165.095 34.4743 165.146 34.3615 165.23 34.2767C165.315 34.1918 165.428 34.1407 165.548 34.1328L166.93 34.007C167.009 33.9984 167.089 34.0077 167.164 34.0341C167.239 34.0606 167.308 34.1035 167.364 34.1599C167.42 34.2162 167.463 34.2844 167.49 34.3596C167.516 34.4347 167.525 34.5148 167.517 34.594L167.349 36.1034C167.341 36.2231 167.29 36.3359 167.205 36.4208C167.121 36.5056 167.008 36.5567 166.888 36.5646Z"
        fill="#B0D7C0" />
    <path
        d="M176.063 35.7685L174.555 35.8943C174.475 35.9029 174.395 35.8936 174.32 35.8672C174.245 35.8407 174.177 35.7978 174.121 35.7415C174.065 35.6851 174.022 35.6169 173.995 35.5417C173.969 35.4666 173.959 35.3865 173.968 35.3073L174.136 33.7141C174.144 33.5943 174.195 33.4816 174.279 33.3967C174.364 33.3119 174.477 33.2607 174.597 33.2529L176.105 33.0852C176.184 33.0765 176.264 33.0858 176.339 33.1122C176.414 33.1387 176.482 33.1817 176.539 33.238C176.595 33.2943 176.638 33.3626 176.664 33.4377C176.691 33.5128 176.7 33.593 176.691 33.6721L176.524 35.2654C176.517 35.3897 176.468 35.5079 176.383 35.5997C176.299 35.6915 176.186 35.7512 176.063 35.7685Z"
        fill="#B0D7C0" />
    <path
        d="M171.413 36.1456L169.988 36.2714C169.909 36.28 169.829 36.2707 169.754 36.2443C169.679 36.2178 169.611 36.1748 169.554 36.1185C169.498 36.0622 169.455 35.994 169.429 35.9188C169.402 35.8437 169.393 35.7636 169.402 35.6844L169.569 34.1331C169.577 34.0133 169.628 33.9006 169.713 33.8157C169.798 33.7309 169.91 33.6798 170.03 33.6719L171.454 33.5461C171.534 33.5375 171.614 33.5467 171.689 33.5732C171.764 33.5996 171.832 33.6426 171.888 33.6989C171.944 33.7553 171.987 33.8235 172.014 33.8986C172.04 33.9738 172.05 34.0539 172.041 34.1331L171.873 35.6844C171.872 35.8064 171.823 35.923 171.737 36.0093C171.651 36.0955 171.534 36.1445 171.413 36.1456Z"
        fill="#B0D7C0" />
    <path
        d="M166.343 41.7217L164.961 41.8056C164.883 41.8112 164.804 41.7999 164.73 41.7724C164.656 41.7448 164.589 41.7018 164.534 41.6461C164.478 41.5905 164.435 41.5235 164.408 41.4497C164.38 41.376 164.369 41.2971 164.374 41.2186L164.542 39.7092C164.559 39.5859 164.619 39.4725 164.711 39.3884C164.802 39.3042 164.921 39.2546 165.045 39.248L166.427 39.1223C166.506 39.1136 166.586 39.1229 166.662 39.1494C166.737 39.1758 166.805 39.2188 166.861 39.2751C166.917 39.3314 166.96 39.3997 166.987 39.4748C167.013 39.5499 167.022 39.6301 167.014 39.7092L166.846 41.2186C166.837 41.3491 166.782 41.4721 166.689 41.5646C166.597 41.6571 166.474 41.7129 166.343 41.7217Z"
        fill="#B0D7C0" />
    <path
        d="M175.518 41.0928L174.01 41.2186C173.932 41.2242 173.853 41.2129 173.779 41.1854C173.705 41.1579 173.638 41.1148 173.583 41.0591C173.527 41.0035 173.484 40.9365 173.457 40.8627C173.429 40.789 173.418 40.7102 173.424 40.6316L173.591 39.0803C173.608 38.957 173.668 38.8436 173.76 38.7595C173.851 38.6753 173.97 38.6257 174.094 38.6191L175.602 38.4934C175.681 38.4847 175.761 38.494 175.836 38.5204C175.911 38.5469 175.98 38.5899 176.036 38.6462C176.092 38.7025 176.135 38.7708 176.161 38.8459C176.188 38.921 176.197 39.0012 176.189 39.0803L176.021 40.6736C175.981 40.7813 175.914 40.8767 175.825 40.9502C175.737 41.0238 175.631 41.0729 175.518 41.0928Z"
        fill="#B0D7C0" />
    <path
        d="M170.868 41.4297L169.443 41.5135C169.365 41.5191 169.286 41.5078 169.212 41.4803C169.139 41.4528 169.072 41.4097 169.016 41.3541C168.961 41.2984 168.918 41.2314 168.89 41.1577C168.863 41.0839 168.851 41.0051 168.857 40.9266L169.024 39.3753C169.042 39.252 169.101 39.1385 169.193 39.0544C169.285 38.9702 169.403 38.9206 169.527 38.9141L170.952 38.7883C171.031 38.7797 171.111 38.7889 171.186 38.8154C171.261 38.8418 171.329 38.8848 171.385 38.9411C171.442 38.9974 171.485 39.0657 171.511 39.1408C171.537 39.216 171.547 39.2961 171.538 39.3753L171.371 40.9266C171.348 41.0517 171.288 41.1668 171.198 41.2567C171.108 41.3466 170.993 41.407 170.868 41.4297Z"
        fill="#B0D7C0" />
    <path
        d="M165.799 46.8789L164.458 46.9627C164.382 46.9671 164.306 46.9545 164.235 46.926C164.164 46.8974 164.1 46.8535 164.048 46.7974C163.996 46.7414 163.957 46.6745 163.934 46.6016C163.911 46.5287 163.904 46.4516 163.914 46.3758L164.081 44.8664C164.099 44.7431 164.158 44.6296 164.25 44.5455C164.342 44.4614 164.46 44.4118 164.584 44.4052L165.925 44.3213C166.002 44.3128 166.08 44.3226 166.153 44.3497C166.226 44.3769 166.291 44.4207 166.344 44.4778C166.397 44.5348 166.436 44.6035 166.458 44.6782C166.479 44.753 166.483 44.8318 166.469 44.9083L166.302 46.4177C166.291 46.5437 166.234 46.6612 166.14 46.7466C166.047 46.8321 165.925 46.8793 165.799 46.8789Z"
        fill="#B0D7C0" />
    <path
        d="M174.931 46.3759L173.423 46.4598C173.347 46.4641 173.27 46.4516 173.2 46.423C173.129 46.3944 173.065 46.3505 173.013 46.2945C172.961 46.2384 172.922 46.1715 172.899 46.0986C172.875 46.0258 172.868 45.9486 172.878 45.8728L173.046 44.3215C173.063 44.1982 173.123 44.0847 173.215 44.0006C173.306 43.9165 173.425 43.8668 173.549 43.8603L175.057 43.7764C175.134 43.7679 175.213 43.7776 175.285 43.8048C175.358 43.832 175.424 43.8758 175.477 43.9329C175.53 43.9899 175.569 44.0586 175.59 44.1333C175.612 44.2081 175.616 44.2869 175.602 44.3634L175.434 45.9566C175.408 46.0719 175.344 46.1753 175.253 46.2511C175.162 46.3268 175.049 46.3706 174.931 46.3759Z"
        fill="#FFE779" />
    <path
        d="M170.323 46.627L168.899 46.7108C168.822 46.7152 168.746 46.7026 168.675 46.6741C168.604 46.6455 168.541 46.6016 168.489 46.5455C168.437 46.4895 168.398 46.4226 168.374 46.3497C168.351 46.2768 168.344 46.1997 168.354 46.1238L168.522 44.6144C168.539 44.4911 168.599 44.3777 168.69 44.2936C168.782 44.2094 168.9 44.1598 169.024 44.1533L170.449 44.0694C170.526 44.0609 170.604 44.0706 170.677 44.0978C170.75 44.1249 170.816 44.1688 170.869 44.2258C170.922 44.2829 170.96 44.3515 170.982 44.4263C171.004 44.501 171.008 44.5798 170.994 44.6564L170.826 46.2077C170.8 46.323 170.736 46.4264 170.645 46.5021C170.554 46.5779 170.441 46.6217 170.323 46.627Z"
        fill="#FFE779" />
    <path
        d="M190.307 50.0656L255.913 43.2734C256.197 43.2449 256.484 43.2791 256.754 43.3738C257.023 43.4684 257.268 43.6211 257.472 43.8211C257.676 44.0211 257.833 44.2635 257.933 44.5311C258.033 44.7987 258.073 45.085 258.05 45.3698L252.436 109.267C252.372 110.023 252.018 110.725 251.447 111.225C250.877 111.725 250.135 111.985 249.378 111.95L185.656 108.512C185.14 108.482 184.658 108.249 184.312 107.864C183.967 107.479 183.788 106.974 183.813 106.458L187.667 52.8328C187.716 52.1361 188.007 51.4784 188.488 50.9731C188.97 50.4679 189.613 50.1469 190.307 50.0656Z"
        fill="#F8AB5D" />
    <path
        d="M187.919 49.3521L254.28 42.476C254.569 42.4449 254.86 42.4788 255.133 42.5753C255.407 42.6717 255.655 42.8283 255.86 43.0334C256.065 43.2385 256.221 43.487 256.318 43.7606C256.414 44.0342 256.448 44.3259 256.417 44.6143L250.761 109.224C250.704 109.991 250.346 110.704 249.765 111.207C249.184 111.71 248.427 111.962 247.661 111.907L183.185 108.427C182.925 108.415 182.671 108.35 182.436 108.237C182.202 108.124 181.992 107.965 181.821 107.769C181.649 107.574 181.518 107.346 181.435 107.099C181.353 106.852 181.321 106.591 181.342 106.331L185.238 52.0774C185.312 51.3867 185.617 50.7414 186.104 50.2465C186.591 49.7516 187.231 49.4363 187.919 49.3521Z"
        fill="#FFE779" />
    <path d="M194.79 63.2734L191.774 63.4411L191.396 69.0594L194.371 68.9755L194.79 63.2734Z"
        fill="#358ECE" />
    <path d="M191.396 69.0585L191.187 71.8257L194.161 71.7418L194.371 68.9746L191.396 69.0585Z"
        fill="#B8C1D8" />
    <path d="M201.283 55.6406L198.266 55.8503L197.764 63.1036L200.738 62.9778L201.283 55.6406Z"
        fill="#358ECE" />
    <path d="M197.764 63.1063L197.136 71.6594L200.11 71.5755L200.739 62.9805L197.764 63.1063Z"
        fill="#B8C1D8" />
    <path d="M204.048 58.2839L203.713 62.812L206.687 62.6443L207.023 58.0742L204.048 58.2839Z"
        fill="#358ECE" />
    <path d="M203.713 62.8122L203.085 71.5331L206.059 71.4492L206.688 62.6445L203.713 62.8122Z"
        fill="#B8C1D8" />
    <path d="M212.637 62.3086L209.663 62.4763L209.453 65.6628L212.428 65.495L212.637 62.3086Z"
        fill="#358ECE" />
    <path d="M209.453 65.6638L209.034 71.3659L212.009 71.282L212.428 65.4961L209.453 65.6638Z"
        fill="#B8C1D8" />
    <path
        d="M218.962 57.2344L218.585 62.0141L218.376 65.1586L215.401 65.3263L215.611 62.1398L215.988 57.444L218.962 57.2344Z"
        fill="#358ECE" />
    <path d="M215.402 65.3279L214.941 71.1977L217.916 71.1557L218.377 65.1602L215.402 65.3279Z"
        fill="#B8C1D8" />
    <path
        d="M242.885 53.797L237.564 62.2244L232.914 55.8934C234.715 54.3796 236.939 53.4574 239.282 53.252C240.509 53.1633 241.739 53.3495 242.885 53.797Z"
        fill="#22272E" />
    <path
        d="M247.033 61.5534L237.564 62.2242L242.885 53.7969C245.818 54.9708 247.535 57.9057 247.033 61.5534Z"
        fill="#F4C2C9" />
    <path
        d="M247.032 61.5547C247.032 61.6805 246.99 61.8062 246.99 61.932C246.11 66.9214 241.46 71.0721 236.558 71.4495L237.564 62.2255L247.032 61.5547Z"
        fill="#B0D7C0" />
    <path
        d="M237.564 62.2246L236.558 71.4486C236.294 71.4834 236.028 71.4974 235.762 71.4905C230.777 71.4905 227.718 67.4236 228.766 62.5181C229.371 59.9203 230.832 57.6018 232.913 55.9355L237.564 62.2246Z"
        fill="white" />
    <path
        d="M245.692 78.6172L243.513 99.8742L188.757 98.868L188.841 97.2328L200.697 89.057C200.962 88.8691 201.28 88.7716 201.604 88.7792C201.929 88.7867 202.242 88.8989 202.498 89.099L206.939 92.3693C207.104 92.4915 207.291 92.5798 207.49 92.6291C207.689 92.6785 207.896 92.6878 208.098 92.6566C208.301 92.6254 208.495 92.5543 208.67 92.4474C208.845 92.3405 208.997 92.1999 209.118 92.0339L213.517 86.1641C213.663 85.9673 213.855 85.8082 214.075 85.7C214.296 85.5918 214.539 85.5375 214.784 85.5416C215.029 85.5457 215.27 85.608 215.487 85.7235C215.704 85.8391 215.89 86.0044 216.03 86.206L219.926 91.6146C220.048 91.7858 220.202 91.9307 220.381 92.0407C220.559 92.1508 220.758 92.2236 220.965 92.255C221.173 92.2863 221.384 92.2754 221.587 92.223C221.79 92.1706 221.98 92.0778 222.147 91.95C222.411 91.7501 222.731 91.6384 223.062 91.6309C223.393 91.6234 223.717 91.7204 223.99 91.9081L226.755 93.8787C226.927 94 227.122 94.0855 227.328 94.1302C227.534 94.1749 227.747 94.1777 227.954 94.1386C228.161 94.0995 228.358 94.0193 228.534 93.9026C228.709 93.7859 228.859 93.6352 228.976 93.4594L235.176 83.9C235.292 83.7242 235.443 83.5734 235.618 83.4568C235.794 83.3401 235.991 83.2598 236.198 83.2207C236.405 83.1817 236.617 83.1845 236.823 83.2292C237.029 83.2738 237.224 83.3594 237.396 83.4807L239.198 84.7805C239.362 84.9032 239.549 84.992 239.749 85.0417C239.948 85.0913 240.155 85.1008 240.357 85.0696C240.56 85.0383 240.755 84.967 240.93 84.8598C241.105 84.7526 241.256 84.6116 241.376 84.4451L245.692 78.6172Z"
        fill="#358ECE" />
    <path
        d="M205.85 85.3693H203.462C203.407 85.3678 203.353 85.3783 203.302 85.4C203.251 85.4217 203.206 85.4541 203.169 85.4951L202.624 86.0401C202.546 86.1169 202.441 86.16 202.331 86.16C202.222 86.16 202.116 86.1169 202.038 86.0401L201.619 85.4951C201.582 85.4541 201.537 85.4217 201.486 85.4C201.435 85.3783 201.381 85.3678 201.326 85.3693H199.022C198.973 85.3719 198.925 85.3635 198.88 85.3448C198.835 85.3262 198.795 85.2976 198.763 85.2614C198.731 85.2251 198.707 85.1821 198.694 85.1354C198.681 85.0888 198.678 85.0397 198.686 84.9919L199.022 80.4638C199.029 80.3552 199.076 80.253 199.153 80.176C199.23 80.099 199.332 80.0523 199.44 80.0445L206.269 79.793C206.369 79.793 206.465 79.8327 206.536 79.9035C206.607 79.9743 206.646 80.0702 206.646 80.1703L206.269 84.9081C206.275 84.9665 206.269 85.0256 206.25 85.0814C206.232 85.1372 206.202 85.1886 206.162 85.232C206.123 85.2755 206.075 85.3102 206.021 85.3339C205.967 85.3575 205.909 85.3696 205.85 85.3693Z"
        fill="white" />
    <path
        d="M228.221 87.6318L225.833 87.5898C225.778 87.5884 225.724 87.5988 225.673 87.6206C225.622 87.6423 225.577 87.6747 225.54 87.7156L224.996 88.2607C224.957 88.3021 224.91 88.3343 224.858 88.3551C224.805 88.3758 224.749 88.3845 224.692 88.3804C224.636 88.3764 224.581 88.3598 224.532 88.3318C224.483 88.3038 224.441 88.2652 224.409 88.2187L223.99 87.6737C223.953 87.6328 223.908 87.6003 223.857 87.5786C223.807 87.5569 223.752 87.5464 223.697 87.5479L221.435 87.506C221.225 87.506 221.099 87.3383 221.099 87.0867L221.435 82.5167C221.44 82.4142 221.48 82.3166 221.549 82.2403C221.618 82.164 221.71 82.1136 221.812 82.0974L228.64 81.9297C228.693 81.9306 228.745 81.9425 228.793 81.9644C228.842 81.9864 228.885 82.018 228.92 82.0573C228.955 82.0966 228.982 82.1428 228.999 82.193C229.016 82.2432 229.022 82.2963 229.017 82.349L228.64 87.2125C228.644 87.2685 228.636 87.3247 228.616 87.3772C228.596 87.4298 228.566 87.4775 228.526 87.5172C228.486 87.5569 228.439 87.5877 228.386 87.6074C228.334 87.6272 228.277 87.6355 228.221 87.6318Z"
        fill="#F4C2C9" />
    <path
        d="M113.472 208.591C113.305 209.136 112.928 211.316 112.634 213.328C109.503 213.797 106.303 213.406 103.376 212.196C103.585 210.1 103.795 207.92 103.795 207.92C103.795 206.746 113.807 207.584 113.472 208.591Z"
        fill="#22272E" />
    <path
        d="M112.634 213.288C112.383 215.049 112.132 216.601 112.132 216.601C112.132 216.601 111.001 219.242 108.152 219.242C105.303 219.242 102.999 216.852 103.041 215.846C103.082 215.385 103.208 213.791 103.376 212.156C106.301 213.371 109.503 213.762 112.634 213.288Z"
        fill="#F4C2C9" />
    <path
        d="M103.083 215.049C103.493 215.504 103.926 215.938 104.382 216.349C104.842 216.768 106.267 215.468 108.278 215.72C110.289 215.971 110.917 216.768 110.917 216.768C111.382 216.674 111.823 216.489 112.216 216.223C112.255 217.271 112.467 218.305 112.844 219.283C113.473 220.919 116.657 225.698 116.657 226.621C116.657 227.543 116.447 228.256 115.777 228.549C115.107 228.843 110.666 228.885 106.937 228.969C103.209 229.052 100.318 229.262 99.8989 227.795C99.48 226.327 101.198 221.757 101.91 218.948C102.622 216.139 102.496 215.091 103.083 215.049Z"
        fill="#22272E" />
    <path d="M103.711 222.804C103.711 222.804 108.194 220.415 112.467 222.804H103.711Z"
        fill="white" />
    <path d="M103.711 222.804C103.711 222.804 108.194 220.415 112.467 222.804" stroke="white"
        stroke-linecap="round" stroke-linejoin="round" stroke-width="1.8" />
    <path d="M104.549 220.457C106.877 219.795 109.343 219.795 111.671 220.457H104.549Z"
        fill="white" />
    <path d="M104.549 220.457C106.877 219.795 109.343 219.795 111.671 220.457" stroke="white"
        stroke-linecap="round" stroke-linejoin="round" stroke-width="1.8" />
    <path
        d="M156.959 211.486C152.183 213.121 147.239 212.115 147.281 212.157C147.114 209.809 146.904 207.335 146.904 207.335C147.533 205.868 156.54 205.197 156.624 205.826C156.624 206.161 156.791 208.928 156.959 211.486Z"
        fill="#22272E" />
    <path
        d="M157.21 215.929C157.21 215.929 156.582 217.899 153.859 218.906C151.136 219.912 147.658 217.186 147.616 216.39C147.575 216.054 147.449 214.126 147.281 212.155C147.281 212.113 152.183 213.12 156.959 211.484C157.085 213.79 157.21 215.929 157.21 215.929Z"
        fill="#F4C2C9" />
    <path
        d="M147.533 215.802C147.239 215.802 147.03 216.221 146.862 218.863C146.695 221.504 145.857 227.332 146.862 228.213C147.868 229.093 167.935 228.841 170.239 228.674C172.544 228.506 173.8 226.997 173.088 225.99C172.376 224.984 167.432 223.139 163.075 220.204C158.718 217.27 157.671 216.641 157.168 215.928C157.168 215.928 157.42 213.538 156.121 213.915C154.822 214.293 153.942 217.395 152.267 217.815C150.591 218.234 150.381 215.634 147.533 215.802Z"
        fill="#22272E" />
    <path d="M164.039 220.29C164.039 220.29 162.908 219.955 160.352 222.68L164.039 220.29Z"
        fill="white" />
    <path d="M164.039 220.29C164.039 220.29 162.908 219.955 160.352 222.68" stroke="white"
        stroke-linecap="round" stroke-linejoin="round" stroke-width="1.8" />
    <path d="M161.274 218.487C161.274 218.487 159.263 218.403 156.959 221.38L161.274 218.487Z"
        fill="white" />
    <path d="M161.274 218.487C161.274 218.487 159.263 218.403 156.959 221.38" stroke="white"
        stroke-linecap="round" stroke-linejoin="round" stroke-width="1.8" />
    <path d="M104.968 212.743L105.219 211.066" stroke="#63737A" stroke-linecap="round"
        stroke-linejoin="round" stroke-width="1.8" />
    <path d="M107.858 213.372L108.11 211.695" stroke="#63737A" stroke-linecap="round"
        stroke-linejoin="round" stroke-width="1.8" />
    <path d="M111.043 213.498L111.336 211.988" stroke="#63737A" stroke-linecap="round"
        stroke-linejoin="round" stroke-width="1.8" />
    <path d="M149.166 212.366L149.041 210.605" stroke="#63737A" stroke-linecap="round"
        stroke-linejoin="round" stroke-width="1.8" />
    <path d="M152.643 212.323L152.518 210.395" stroke="#63737A" stroke-linecap="round"
        stroke-linejoin="round" stroke-width="1.8" />
    <path d="M155.786 211.82L155.66 210.018" stroke="#63737A" stroke-linecap="round"
        stroke-linejoin="round" stroke-width="1.8" />
    <path
        d="M102.161 114.718C101.444 118.026 101.051 121.396 100.988 124.78C100.862 130.524 105.345 148.511 106.979 154.59C108.613 160.67 108.277 161.634 108.026 162.808C107.775 163.982 105.261 173.29 104.423 182.933C103.585 192.576 100.569 200.333 100.904 203.31C101.365 207.335 103.083 208.509 103.795 208.97C104.507 209.431 110.372 211.318 114.352 210.395C114.352 210.395 118.584 207.712 119.38 203.939C120.176 200.165 119.715 195.595 122.438 183.269C125.161 170.942 126.418 165.869 126.795 160.963C127.004 158.029 127.046 149.643 127.088 143.228C127.13 138.868 127.13 135.388 127.172 135.052C127.298 134.214 129.35 135.178 130.44 132.495C130.901 131.279 131.152 128.973 131.194 126.499C131.278 123.355 131.068 119.917 130.649 118.03C129.979 114.55 102.831 111.028 102.161 114.718Z"
        fill="#22272E" />
    <path
        d="M159.64 204.065C158.928 205.826 157.629 207.839 156.456 208.3C155.283 208.761 150.005 209.474 147.323 209.222C147.323 209.222 142.841 207.922 142.38 204.526C141.919 201.13 142.715 197.357 141.207 189.726C139.699 182.095 138.4 168.595 138.023 164.612C137.646 160.629 129.434 148.763 125.58 141.594C121.726 134.424 117.578 121.301 121.014 118.24C124.449 115.18 136.724 113.796 140.369 116.27C140.369 116.27 144.6 126.584 148.832 138.91C152.728 150.231 153.524 154.046 154.068 157.316C154.104 157.613 154.16 157.908 154.236 158.197C154.404 159.203 154.613 161.803 154.906 165.157C155.577 173.668 156.373 186.875 156.708 189.894C157.169 194.086 160.353 202.304 159.64 204.065Z"
        fill="#22272E" />
    <path d="M124.826 135.682C127.552 134.699 130.355 133.942 133.205 133.418" stroke="#63737A"
        stroke-linecap="round" stroke-linejoin="round" stroke-width="1.8" />
    <path
        d="M124.6 165.989C125.22 162.948 123.297 159.988 120.304 159.376C117.311 158.765 114.382 160.735 113.761 163.775C113.141 166.816 115.065 169.777 118.058 170.388C121.051 170.999 123.98 169.03 124.6 165.989Z"
        stroke="#63737A" stroke-linecap="round" stroke-linejoin="round" stroke-width="1.80036" />
    <path
        d="M154.906 165.114C154.394 165.756 153.744 166.275 153.004 166.631C152.264 166.987 151.454 167.17 150.633 167.168C149.155 167.174 147.736 166.592 146.687 165.55C145.638 164.508 145.045 163.092 145.04 161.613C145.034 160.134 145.616 158.713 146.657 157.664C147.698 156.614 149.113 156.021 150.591 156.016C151.861 156.016 153.091 156.461 154.068 157.273"
        stroke="#63737A" stroke-linecap="round" stroke-linejoin="round" stroke-width="1.8" />
    <path
        d="M103.124 134.549C104.606 133.183 105.789 131.523 106.597 129.675C107.404 127.828 107.82 125.832 107.816 123.815C106.241 123.727 104.673 123.531 103.124 123.229"
        stroke="#63737A" stroke-linecap="round" stroke-linejoin="round" stroke-width="1.8" />
    <path
        d="M127.088 143.229C127.13 138.869 127.13 135.389 127.172 135.053C127.298 134.215 129.35 135.179 130.44 132.496C130.901 131.28 131.152 128.974 131.194 126.5"
        stroke="#63737A" stroke-linecap="round" stroke-linejoin="round" stroke-width="1.8" />
    <path
        d="M139.447 66.7109C139.447 66.7109 142.882 66.8787 148.412 77.9474C153.942 89.0162 155.911 92.9992 155.911 92.9992C155.911 92.9992 159.556 92.1188 165.505 91.1544C171.454 90.1901 179.833 88.9742 179.833 88.9742C179.833 88.9742 182.095 89.0161 183.059 92.2445C183.304 93.0618 183.341 93.9276 183.165 94.7627C182.99 95.5978 182.607 96.3754 182.053 97.0242C181.845 97.2873 181.57 97.4899 181.257 97.6112C178.702 98.7013 163.787 104.99 158.718 106.08C153.146 107.254 150.423 107.087 145.48 100.295C140.536 93.5023 136.64 88.2195 134.838 85.4943C133.037 82.6432 131.738 67.1302 139.447 66.7109Z"
        fill="#358ECE" />
    <path
        d="M148.873 104.152C148.873 104.152 148.58 101.93 152.895 101.93C157.21 101.93 159.431 105.158 158.383 106.08"
        stroke="#22272E" stroke-linecap="round" stroke-linejoin="round" stroke-width="1.8" />
    <path d="M155.912 92.957C155.912 92.957 154.11 93.7956 153.733 95.0534" stroke="#22272E"
        stroke-linecap="round" stroke-linejoin="round" stroke-width="1.8" />
    <path
        d="M180.043 89.3093C180.043 89.3093 181.886 88.6385 182.347 88.3869C182.808 88.1354 183.813 86.3744 184.651 85.2843C185.489 84.1942 187.877 83.5653 188.547 83.6911C188.73 83.7156 188.905 83.7765 189.063 83.8701C189.222 83.9637 189.36 84.0882 189.469 84.2362C189.469 84.2362 191.564 83.4815 192.988 82.8945C194.413 82.3075 197.052 81.0078 197.429 82.0559C197.638 82.6848 196.005 83.6072 194.873 84.2362C193.491 85.0328 192.569 85.6197 192.569 85.6197C192.789 85.7494 192.977 85.9253 193.122 86.1353C193.267 86.3453 193.364 86.5842 193.407 86.8356C193.575 87.7161 194.036 88.6804 193.198 90.0221C192.946 90.3994 193.91 91.4476 193.156 92.412C191.857 93.9633 188.715 94.7599 187.039 95.263C185.363 95.7661 181.425 96.0177 181.425 96.0177C181.425 96.0177 180.168 95.7242 179.624 92.9989C179.079 90.2737 180.043 89.3093 180.043 89.3093Z"
        fill="#F4C2C9" />
    <path
        d="M189.469 84.2363C189.469 84.2363 189.762 84.991 190.097 86.123C190.432 87.2551 190.684 88.1355 189.804 88.1775C188.924 88.2194 188.128 86.8777 187.793 86.2069"
        stroke="#E26E85" stroke-linecap="round" stroke-linejoin="round" stroke-width="1.8" />
    <path d="M188.38 87.1719C188.38 87.1719 189.343 89.1005 187.123 90.7776" stroke="#E26E85"
        stroke-linecap="round" stroke-linejoin="round" stroke-width="1.8" />
    <path d="M192.611 85.6211L190.265 86.7112" stroke="#E26E85" stroke-linecap="round"
        stroke-linejoin="round" stroke-width="1.8" />
    <path
        d="M189.092 87.9262C189.092 87.9262 188.674 88.597 189.092 88.9744C189.511 89.3517 191.816 88.5132 193.491 87.5488"
        stroke="#E26E85" stroke-linecap="round" stroke-linejoin="round" stroke-width="1.8" />
    <path
        d="M189.469 89.0586C189.273 89.1625 189.124 89.3381 189.054 89.549C188.984 89.7598 188.998 89.9896 189.092 90.1906C189.427 90.9453 191.229 90.6518 193.198 90.0229"
        stroke="#E26E85" stroke-linecap="round" stroke-linejoin="round" stroke-width="1.8" />
    <path
        d="M189.846 90.6523C189.846 90.6523 188.799 90.7781 189.343 91.8263C189.679 92.4552 191.689 92.2456 192.108 92.4133"
        stroke="#E26E85" stroke-linecap="round" stroke-linejoin="round" stroke-width="1.8" />
    <path
        d="M177.613 89.6875C177.278 90.2745 176.859 91.4065 177.152 93.419C177.234 94.2876 177.51 95.1266 177.96 95.8741C178.409 96.6215 179.021 97.2583 179.749 97.7375"
        stroke="#22272E" stroke-linecap="round" stroke-linejoin="round" stroke-width="1.8" />
    <path
        d="M125.873 51.3657C125.873 51.3657 124.533 58.116 123.779 59.9608C123.025 61.8056 127.13 64.6985 131.236 64.8663C135.342 65.034 134.923 62.6441 134.923 62.6441L136.138 55.9358C136.138 55.9777 127.34 49.8144 125.873 51.3657Z"
        fill="#F4C2C9" />
    <path
        d="M127.716 53.3789C127.129 58.494 130.816 60.9677 134.922 62.8964V62.6448L135.592 59.081C132.534 58.0747 129.853 55.8945 127.716 53.3789Z"
        fill="#E26E85" />
    <path
        d="M108.277 64.9077C109.199 62.1824 112.718 60.5473 115.567 60.7988C118.5 61.0504 124.114 61.1343 129.518 62.8113C138.735 65.6624 140.955 67.3395 141.5 67.8426C144.558 70.7775 144.265 75.1379 142.505 87.171C141.374 95.0952 140.411 97.1077 140.662 101.007C140.913 104.906 141.626 111.824 142.086 113.25C142.547 114.675 141.374 117.149 140.369 118.029C139.363 118.91 131.236 120.755 123.695 120.587C116.154 120.419 104.298 118.365 102.412 117.107C100.527 115.849 99.1864 113.669 99.6053 111.782C100.126 108.898 100.797 106.043 101.616 103.229C102.789 99.246 102.873 94.047 104.716 85.7035C106.141 79.5402 106.35 70.6098 108.277 64.9077Z"
        fill="#FFE779" />
    <path
        d="M142.207 55.9138C143.221 55.4061 143.842 54.5916 143.593 54.0946C143.345 53.5976 142.321 53.6063 141.308 54.114C140.294 54.6216 139.673 55.4361 139.922 55.9331C140.17 56.4301 141.193 56.4214 142.207 55.9138Z"
        fill="#F8AB5D" />
    <path
        d="M149.118 60.6188C150.132 60.1112 150.753 59.2967 150.504 58.7997C150.256 58.3027 149.233 58.3113 148.219 58.819C147.205 59.3267 146.584 60.1412 146.833 60.6382C147.081 61.1352 148.105 61.1265 149.118 60.6188Z"
        fill="#F8AB5D" />
    <path
        d="M133.745 60.1579C134.759 59.6502 135.38 58.8358 135.131 58.3388C134.883 57.8417 133.86 57.8504 132.846 58.3581C131.832 58.8658 131.211 59.6802 131.46 60.1773C131.708 60.6743 132.731 60.6656 133.745 60.1579Z"
        fill="#F8AB5D" />
    <path
        d="M140.695 64.8434C141.709 64.3358 142.329 63.5213 142.081 63.0243C141.832 62.5273 140.809 62.536 139.795 63.0436C138.781 63.5513 138.16 64.3658 138.409 64.8628C138.657 65.3598 139.681 65.3511 140.695 64.8434Z"
        fill="#F8AB5D" />
    <path
        d="M148.574 68.6618C149.587 68.1541 150.208 67.3397 149.96 66.8427C149.711 66.3457 148.688 66.3543 147.674 66.862C146.66 67.3697 146.039 68.1841 146.288 68.6811C146.536 69.1781 147.56 69.1695 148.574 68.6618Z"
        fill="#F8AB5D" />
    <path
        d="M155.485 73.3669C156.499 72.8592 157.119 72.0447 156.871 71.5477C156.622 71.0507 155.599 71.0594 154.585 71.5671C153.571 72.0748 152.95 72.8892 153.199 73.3862C153.447 73.8832 154.471 73.8746 155.485 73.3669Z"
        fill="#F8AB5D" />
    <path
        d="M140.116 72.9059C141.129 72.3983 141.75 71.5838 141.502 71.0868C141.253 70.5898 140.23 70.5984 139.216 71.1061C138.202 71.6138 137.581 72.4283 137.83 72.9253C138.078 73.4223 139.102 73.4136 140.116 72.9059Z"
        fill="#F8AB5D" />
    <path
        d="M147.07 77.5915C148.084 77.0838 148.704 76.2693 148.456 75.7723C148.207 75.2753 147.184 75.284 146.17 75.7917C145.156 76.2994 144.535 77.1138 144.784 77.6108C145.032 78.1078 146.056 78.0992 147.07 77.5915Z"
        fill="#F8AB5D" />
    <path
        d="M125.33 64.3825C126.344 63.8748 126.965 63.0604 126.716 62.5634C126.468 62.0664 125.445 62.075 124.431 62.5827C123.417 63.0904 122.796 63.9049 123.045 64.4019C123.293 64.8989 124.316 64.8902 125.33 64.3825Z"
        fill="#F8AB5D" />
    <path
        d="M132.242 69.0876C133.255 68.5799 133.876 67.7654 133.627 67.2684C133.379 66.7714 132.356 66.7801 131.342 67.2878C130.328 67.7955 129.707 68.6099 129.956 69.1069C130.204 69.6039 131.228 69.5953 132.242 69.0876Z"
        fill="#F8AB5D" />
    <path
        d="M116.853 68.5876C117.867 68.0799 118.487 67.2654 118.239 66.7684C117.99 66.2714 116.967 66.2801 115.953 66.7878C114.939 67.2955 114.319 68.1099 114.567 68.6069C114.816 69.1039 115.839 69.0953 116.853 68.5876Z"
        fill="#F8AB5D" />
    <path
        d="M123.803 73.2731C124.817 72.7654 125.437 71.951 125.189 71.454C124.941 70.957 123.917 70.9657 122.903 71.4733C121.889 71.981 121.269 72.7955 121.517 73.2925C121.766 73.7895 122.789 73.7808 123.803 73.2731Z"
        fill="#F8AB5D" />
    <path
        d="M131.677 77.0915C132.691 76.5838 133.312 75.7693 133.063 75.2723C132.815 74.7754 131.791 74.784 130.777 75.2917C129.763 75.7994 129.143 76.6138 129.391 77.1108C129.64 77.6078 130.663 77.5992 131.677 77.0915Z"
        fill="#F8AB5D" />
    <path
        d="M138.609 81.8395C139.623 81.3318 140.243 80.5174 139.995 80.0204C139.746 79.5234 138.723 79.532 137.709 80.0397C136.695 80.5474 136.074 81.3619 136.323 81.8589C136.571 82.3559 137.595 82.3472 138.609 81.8395Z"
        fill="#F8AB5D" />
    <path
        d="M123.221 81.3395C124.235 80.8318 124.855 80.0174 124.607 79.5204C124.359 79.0234 123.335 79.0321 122.321 79.5397C121.307 80.0474 120.687 80.8619 120.935 81.3589C121.184 81.8559 122.207 81.8472 123.221 81.3395Z"
        fill="#F8AB5D" />
    <path
        d="M130.171 86.0251C131.185 85.5174 131.806 84.7029 131.557 84.2059C131.309 83.7089 130.285 83.7176 129.271 84.2253C128.257 84.733 127.637 85.5474 127.885 86.0444C128.134 86.5414 129.157 86.5328 130.171 86.0251Z"
        fill="#F8AB5D" />
    <path
        d="M155.114 81.7419C156.128 81.2342 156.748 80.4197 156.5 79.9227C156.251 79.4257 155.228 79.4344 154.214 79.9421C153.2 80.4498 152.579 81.2642 152.828 81.7612C153.076 82.2582 154.1 82.2496 155.114 81.7419Z"
        fill="#F8AB5D" />
    <path
        d="M162.029 86.445C163.043 85.9373 163.663 85.1229 163.415 84.6259C163.166 84.1289 162.143 84.1375 161.129 84.6452C160.115 85.1529 159.494 85.9673 159.743 86.4643C159.991 86.9613 161.015 86.9527 162.029 86.445Z"
        fill="#F8AB5D" />
    <path
        d="M146.636 85.9489C147.65 85.4412 148.27 84.6268 148.022 84.1298C147.774 83.6327 146.75 83.6414 145.736 84.1491C144.722 84.6568 144.102 85.4713 144.35 85.9683C144.599 86.4653 145.622 86.4566 146.636 85.9489Z"
        fill="#F8AB5D" />
    <path
        d="M153.59 90.6364C154.604 90.1287 155.225 89.3143 154.976 88.8173C154.728 88.3203 153.704 88.3289 152.69 88.8366C151.676 89.3443 151.056 90.1588 151.304 90.6558C151.553 91.1528 152.576 91.1441 153.59 90.6364Z"
        fill="#F8AB5D" />
    <path
        d="M161.484 94.488C162.498 93.9803 163.118 93.1658 162.87 92.6688C162.621 92.1718 161.598 92.1805 160.584 92.6882C159.57 93.1959 158.949 94.0103 159.198 94.5073C159.446 95.0043 160.47 94.9957 161.484 94.488Z"
        fill="#F8AB5D" />
    <path
        d="M168.394 99.1931C169.408 98.6854 170.028 97.8709 169.78 97.3739C169.531 96.8769 168.508 96.8856 167.494 97.3933C166.48 97.9009 165.86 98.7154 166.108 99.2124C166.357 99.7094 167.38 99.7007 168.394 99.1931Z"
        fill="#F8AB5D" />
    <path
        d="M153.006 98.695C154.02 98.1873 154.641 97.3729 154.392 96.8759C154.144 96.3789 153.12 96.3875 152.106 96.8952C151.092 97.4029 150.472 98.2174 150.72 98.7144C150.969 99.2114 151.992 99.2027 153.006 98.695Z"
        fill="#F8AB5D" />
    <path
        d="M159.956 103.381C160.97 102.873 161.591 102.058 161.342 101.561C161.094 101.064 160.071 101.073 159.057 101.581C158.043 102.088 157.422 102.903 157.671 103.4C157.919 103.897 158.942 103.888 159.956 103.381Z"
        fill="#F8AB5D" />
    <path
        d="M138.217 90.1716C139.231 89.6639 139.852 88.8494 139.603 88.3524C139.355 87.8554 138.331 87.8641 137.317 88.3718C136.303 88.8795 135.683 89.6939 135.931 90.1909C136.18 90.6879 137.203 90.6793 138.217 90.1716Z"
        fill="#F8AB5D" />
    <path
        d="M145.132 94.8766C146.146 94.369 146.767 93.5545 146.518 93.0575C146.27 92.5605 145.246 92.5692 144.232 93.0768C143.218 93.5845 142.598 94.399 142.846 94.896C143.095 95.393 144.118 95.3843 145.132 94.8766Z"
        fill="#F8AB5D" />
    <path
        d="M129.759 94.4177C130.773 93.91 131.394 93.0955 131.145 92.5985C130.897 92.1015 129.873 92.1102 128.859 92.6179C127.845 93.1255 127.225 93.94 127.473 94.437C127.722 94.934 128.745 94.9253 129.759 94.4177Z"
        fill="#F8AB5D" />
    <path
        d="M136.713 99.1052C137.727 98.5975 138.348 97.783 138.099 97.286C137.851 96.789 136.827 96.7977 135.813 97.3054C134.799 97.8131 134.179 98.6275 134.427 99.1245C134.676 99.6215 135.699 99.6129 136.713 99.1052Z"
        fill="#F8AB5D" />
    <path
        d="M144.587 102.92C145.601 102.412 146.222 101.597 145.973 101.1C145.725 100.603 144.701 100.612 143.687 101.12C142.674 101.628 142.053 102.442 142.301 102.939C142.55 103.436 143.573 103.427 144.587 102.92Z"
        fill="#F8AB5D" />
    <path
        d="M151.504 107.627C152.518 107.119 153.139 106.304 152.89 105.807C152.642 105.31 151.618 105.319 150.604 105.827C149.591 106.335 148.97 107.149 149.218 107.646C149.467 108.143 150.49 108.134 151.504 107.627Z"
        fill="#F8AB5D" />
    <path
        d="M143.079 111.849C144.093 111.342 144.714 110.527 144.465 110.03C144.217 109.533 143.194 109.542 142.18 110.05C141.166 110.557 140.545 111.372 140.794 111.869C141.042 112.366 142.065 112.357 143.079 111.849Z"
        fill="#F8AB5D" />
    <path
        d="M108.349 72.8552C109.363 72.3475 109.983 71.533 109.735 71.036C109.486 70.539 108.463 70.5477 107.449 71.0554C106.435 71.563 105.815 72.3775 106.063 72.8745C106.312 73.3715 107.335 73.3629 108.349 72.8552Z"
        fill="#F8AB5D" />
    <path
        d="M115.265 77.5622C116.279 77.0545 116.899 76.24 116.651 75.743C116.402 75.246 115.379 75.2547 114.365 75.7624C113.351 76.2701 112.731 77.0845 112.979 77.5815C113.228 78.0785 114.251 78.0699 115.265 77.5622Z"
        fill="#F8AB5D" />
    <path
        d="M99.929 77.0837C100.943 76.576 101.563 75.7615 101.315 75.2645C101.067 74.7675 100.043 74.7762 99.0292 75.2839C98.0153 75.7916 97.3948 76.606 97.6433 77.103C97.8917 77.6 98.9151 77.5914 99.929 77.0837Z"
        fill="#F8AB5D" />
    <path
        d="M106.847 81.7927C107.861 81.285 108.481 80.4705 108.233 79.9735C107.984 79.4765 106.961 79.4852 105.947 79.9929C104.933 80.5005 104.313 81.315 104.561 81.812C104.81 82.309 105.833 82.3004 106.847 81.7927Z"
        fill="#F8AB5D" />
    <path
        d="M114.72 85.6052C115.734 85.0975 116.354 84.283 116.106 83.786C115.858 83.289 114.834 83.2977 113.82 83.8054C112.806 84.313 112.186 85.1275 112.434 85.6245C112.683 86.1215 113.706 86.1129 114.72 85.6052Z"
        fill="#F8AB5D" />
    <path
        d="M121.67 90.2946C122.684 89.7869 123.305 88.9725 123.056 88.4755C122.808 87.9785 121.784 87.9871 120.77 88.4948C119.757 89.0025 119.136 89.817 119.384 90.314C119.633 90.811 120.656 90.8023 121.67 90.2946Z"
        fill="#F8AB5D" />
    <path
        d="M106.302 89.8317C107.316 89.324 107.937 88.5096 107.688 88.0126C107.44 87.5156 106.416 87.5242 105.402 88.0319C104.388 88.5396 103.768 89.3541 104.016 89.8511C104.265 90.3481 105.288 90.3394 106.302 89.8317Z"
        fill="#F8AB5D" />
    <path
        d="M113.213 94.5368C114.227 94.0291 114.848 93.2146 114.599 92.7176C114.351 92.2206 113.327 92.2293 112.313 92.737C111.299 93.2447 110.679 94.0591 110.927 94.5562C111.176 95.0532 112.199 95.0445 113.213 94.5368Z"
        fill="#F8AB5D" />
    <path
        d="M91.4739 81.3278C92.4879 80.8201 93.1084 80.0057 92.8599 79.5087C92.6114 79.0117 91.5881 79.0203 90.5742 79.528C89.5602 80.0357 88.9397 80.8502 89.1882 81.3472C89.4366 81.8442 90.46 81.8355 91.4739 81.3278Z"
        fill="#F8AB5D" />
    <path
        d="M98.4251 86.0114C99.439 85.5037 100.06 84.6893 99.8111 84.1923C99.5626 83.6953 98.5392 83.7039 97.5253 84.2116C96.5114 84.7193 95.8909 85.5338 96.1393 86.0308C96.3878 86.5278 97.4112 86.5191 98.4251 86.0114Z"
        fill="#F8AB5D" />
    <path
        d="M83.0355 85.5192C84.0494 85.0115 84.6699 84.1971 84.4215 83.7001C84.173 83.2031 83.1496 83.2117 82.1357 83.7194C81.1218 84.2271 80.5012 85.0416 80.7497 85.5386C80.9982 86.0356 82.0215 86.0269 83.0355 85.5192Z"
        fill="#F8AB5D" />
    <path
        d="M89.97 90.2595C90.984 89.7518 91.6045 88.9373 91.356 88.4403C91.1075 87.9433 90.0842 87.952 89.0702 88.4597C88.0563 88.9673 87.4358 89.7818 87.6843 90.2788C87.9327 90.7758 88.9561 90.7671 89.97 90.2595Z"
        fill="#F8AB5D" />
    <path
        d="M97.8431 94.0739C98.857 93.5662 99.4775 92.7518 99.2291 92.2548C98.9806 91.7578 97.9572 91.7664 96.9433 92.2741C95.9294 92.7818 95.3088 93.5963 95.5573 94.0933C95.8058 94.5903 96.8292 94.5816 97.8431 94.0739Z"
        fill="#F8AB5D" />
    <path
        d="M104.793 98.7634C105.807 98.2557 106.428 97.4412 106.179 96.9442C105.931 96.4472 104.907 96.4559 103.893 96.9636C102.88 97.4713 102.259 98.2857 102.508 98.7827C102.756 99.2797 103.779 99.271 104.793 98.7634Z"
        fill="#F8AB5D" />
    <path
        d="M89.4056 98.2614C90.4195 97.7537 91.04 96.9393 90.7915 96.4423C90.5431 95.9453 89.5197 95.9539 88.5058 96.4616C87.4919 96.9693 86.8713 97.7838 87.1198 98.2808C87.3683 98.7778 88.3917 98.7691 89.4056 98.2614Z"
        fill="#F8AB5D" />
    <path
        d="M96.3167 102.97C97.3306 102.463 97.9512 101.648 97.7027 101.151C97.4542 100.654 96.4309 100.663 95.4169 101.171C94.403 101.678 93.7825 102.493 94.0309 102.99C94.2794 103.487 95.3028 103.478 96.3167 102.97Z"
        fill="#F8AB5D" />
    <path
        d="M112.843 102.91C113.857 102.402 114.478 101.588 114.229 101.091C113.981 100.594 112.957 100.602 111.943 101.11C110.929 101.618 110.309 102.432 110.557 102.929C110.806 103.426 111.829 103.418 112.843 102.91Z"
        fill="#F8AB5D" />
    <path
        d="M134.58 116.123C135.594 115.615 136.215 114.801 135.966 114.304C135.718 113.807 134.695 113.815 133.681 114.323C132.667 114.831 132.046 115.645 132.295 116.142C132.543 116.639 133.566 116.63 134.58 116.123Z"
        fill="#F8AB5D" />
    <path
        d="M119.189 115.625C120.203 115.117 120.823 114.303 120.575 113.806C120.326 113.309 119.303 113.317 118.289 113.825C117.275 114.333 116.655 115.147 116.903 115.644C117.151 116.141 118.175 116.132 119.189 115.625Z"
        fill="#F8AB5D" />
    <path
        d="M126.122 120.367C127.136 119.859 127.757 119.045 127.508 118.548C127.26 118.051 126.237 118.059 125.223 118.567C124.209 119.075 123.588 119.889 123.837 120.386C124.085 120.883 125.108 120.875 126.122 120.367Z"
        fill="#F8AB5D" />
    <path
        d="M104.368 107.121C105.382 106.613 106.003 105.799 105.754 105.302C105.506 104.805 104.483 104.813 103.469 105.321C102.455 105.829 101.834 106.643 102.083 107.14C102.331 107.637 103.355 107.628 104.368 107.121Z"
        fill="#F8AB5D" />
    <path
        d="M111.317 111.802C112.331 111.295 112.951 110.48 112.703 109.983C112.454 109.486 111.431 109.495 110.417 110.003C109.403 110.51 108.782 111.325 109.031 111.822C109.279 112.319 110.303 112.31 111.317 111.802Z"
        fill="#F8AB5D" />
    <path
        d="M95.9456 111.345C96.9595 110.838 97.5801 110.023 97.3316 109.526C97.0831 109.029 96.0598 109.038 95.0458 109.546C94.0319 110.053 93.4114 110.868 93.6599 111.365C93.9083 111.862 94.9317 111.853 95.9456 111.345Z"
        fill="#F8AB5D" />
    <path
        d="M102.857 116.05C103.871 115.543 104.491 114.728 104.243 114.231C103.994 113.734 102.971 113.743 101.957 114.251C100.943 114.758 100.323 115.573 100.571 116.07C100.819 116.567 101.843 116.558 102.857 116.05Z"
        fill="#F8AB5D" />
    <path
        d="M110.735 119.865C111.749 119.357 112.369 118.543 112.121 118.046C111.872 117.549 110.849 117.557 109.835 118.065C108.821 118.573 108.2 119.387 108.449 119.884C108.697 120.381 109.721 120.373 110.735 119.865Z"
        fill="#F8AB5D" />
    <path
        d="M117.685 124.554C118.699 124.047 119.319 123.232 119.071 122.735C118.822 122.238 117.799 122.247 116.785 122.755C115.771 123.262 115.151 124.077 115.399 124.574C115.648 125.071 116.671 125.062 117.685 124.554Z"
        fill="#F8AB5D" />
    <path
        d="M102.312 124.093C103.326 123.586 103.946 122.771 103.698 122.274C103.449 121.777 102.426 121.786 101.412 122.294C100.398 122.801 99.7776 123.616 100.026 124.113C100.275 124.61 101.298 124.601 102.312 124.093Z"
        fill="#F8AB5D" />
    <path
        d="M109.231 128.797C110.245 128.289 110.865 127.474 110.617 126.977C110.368 126.48 109.345 126.489 108.331 126.997C107.317 127.504 106.697 128.319 106.945 128.816C107.193 129.313 108.217 129.304 109.231 128.797Z"
        fill="#F8AB5D" />
    <path
        d="M119.798 95.6397C124.458 96.6235 129.198 97.1709 133.959 97.2749C134.268 97.2831 134.565 97.4017 134.796 97.6091C135.026 97.8166 135.175 98.0994 135.216 98.4069C135.446 100.1 136.192 101.681 137.352 102.935C137.461 103.046 137.546 103.177 137.604 103.321C137.661 103.465 137.69 103.619 137.687 103.774C137.729 105.534 137.813 111.488 136.64 112.411C135.299 113.417 121.055 114.339 112.215 111.865C111.934 111.794 111.684 111.632 111.502 111.405C111.321 111.178 111.218 110.898 111.21 110.608C111.252 108.889 111.336 105.283 111.629 103.019C111.67 102.794 111.763 102.582 111.902 102.4C112.04 102.217 112.219 102.07 112.425 101.971C113.807 101.342 116.991 99.6647 118.123 96.5202C118.258 96.2025 118.498 95.9414 118.804 95.7809C119.109 95.6205 119.46 95.5706 119.798 95.6397V95.6397Z"
        stroke="#F8AB5D" stroke-linecap="round" stroke-linejoin="round" stroke-width="1.8" />
    <path
        d="M123.234 58.9546C123.277 58.8595 123.342 58.7761 123.424 58.7111C123.506 58.6462 123.602 58.6016 123.704 58.5811C123.806 58.5607 123.912 58.5648 124.013 58.5933C124.113 58.6218 124.205 58.6738 124.281 58.745C125.077 59.5836 126.795 60.8414 129.895 61.4284C134.629 62.3088 135.09 61.5961 135.09 61.5961C135.09 61.5961 135.844 61.8476 135.928 62.4765C135.953 63.4933 135.84 64.5088 135.593 65.4953C135.342 66.2919 131.822 66.3758 129.016 65.7888C126.535 65.3338 124.246 64.1518 122.438 62.3927C122.295 62.2547 122.198 62.0759 122.161 61.8808C122.123 61.6857 122.147 61.4837 122.229 61.3026C122.48 60.6737 122.899 59.7513 123.234 58.9546Z"
        fill="#358ECE" />
    <path
        d="M143.888 43.3985C143.929 45.1956 143.645 46.9853 143.05 48.6813C142.212 50.8615 140.83 56.9409 138.106 58.9115C135.383 60.8821 129.434 60.5047 126.837 55.4316C124.239 50.3584 125.077 45.0336 126.418 40.7571C127.759 36.4805 133.289 34.9292 138.106 36.6901C142.924 38.4511 143.888 41.5118 143.888 43.3985Z"
        fill="#F4C2C9" />
    <path
        d="M126.292 46.3355C126.578 46.7105 126.817 47.1187 127.004 47.5513C127.381 48.4318 128.177 47.9287 128.471 46.3355C128.764 44.7422 129.434 43.6102 129.937 43.6941C130.583 43.8486 131.262 43.7792 131.863 43.4975C132.464 43.2157 132.952 42.7381 133.247 42.1428C134.294 40.2141 134.755 40.5076 134.755 40.5076C134.755 40.5076 135.593 38.4951 137.771 41.3881C139.95 44.281 141.332 46.5451 143.93 46.0839C146.527 45.6227 148.831 41.3881 146.862 37.3211C144.893 33.2542 138.693 32.2899 134.085 33.5058C129.476 34.7217 127.088 33.7154 124.323 36.0633C121.558 38.4112 122.228 40.8849 122.061 43.6521C121.893 46.4193 120.469 47.8868 122.354 50.3605C124.239 52.8342 123.737 55.1402 124.784 56.5237C124.784 56.5237 125.915 52.8761 125.789 50.2347C125.664 47.5933 126.292 46.3355 126.292 46.3355Z"
        fill="#22272E" />
    <path
        d="M138.735 48.6409C138.705 49.695 138.27 50.697 137.521 51.4388C136.772 52.1805 135.766 52.605 134.713 52.624C134.188 52.6198 133.67 52.5105 133.188 52.3025C132.706 52.0946 132.271 51.7921 131.908 51.4131C131.544 51.034 131.261 50.586 131.073 50.0955C130.886 49.605 130.799 49.0819 130.817 48.557C130.813 48.0145 130.917 47.4767 131.122 46.9744C131.326 46.472 131.628 46.015 132.009 45.6294C132.391 45.2439 132.844 44.9374 133.344 44.7275C133.844 44.5176 134.38 44.4084 134.922 44.4062C135.453 44.4275 135.973 44.5547 136.454 44.7803C136.934 45.0059 137.365 45.3254 137.72 45.72C138.075 46.1145 138.348 46.5762 138.522 47.0778C138.696 47.5794 138.769 48.1109 138.735 48.6409V48.6409Z"
        stroke="#22272E" stroke-linecap="round" stroke-linejoin="round" stroke-width="1.8" />
    <path
        d="M145.197 51.1241C145.779 49.1232 145.117 47.1705 143.717 46.7625C142.318 46.3545 140.711 47.6458 140.129 49.6467C139.546 51.6475 140.209 53.6003 141.608 54.0082C143.008 54.4162 144.614 53.1249 145.197 51.1241Z"
        stroke="#22272E" stroke-linecap="round" stroke-linejoin="round" stroke-width="1.8" />
    <path d="M140.202 49.5197C140.202 49.5197 140.16 48.6812 138.693 49.1424" stroke="#22272E"
        stroke-linecap="round" stroke-linejoin="round" stroke-width="1.8" />
    <path d="M131.152 46.8375L126.292 45.957" stroke="#22272E" stroke-linecap="round"
        stroke-linejoin="round" stroke-width="1.8" />
    <path
        d="M126.711 47.0885C126.711 47.0885 126.334 44.8664 124.532 44.8245C122.731 44.7825 121.641 50.3169 126.124 51.0716"
        fill="#F4C2C9" />
    <path
        d="M124.239 46.5449C124.448 46.4914 124.668 46.5028 124.87 46.5778C125.072 46.6527 125.247 46.7874 125.37 46.9641C125.489 47.1823 125.547 47.4285 125.538 47.6769C125.538 47.8027 125.496 47.8865 125.496 48.0123C125.496 48.1381 125.454 48.18 125.454 48.2639C125.421 48.4011 125.407 48.5421 125.412 48.6831C125.403 48.7352 125.406 48.7886 125.421 48.8394C125.435 48.8902 125.461 48.9371 125.496 48.9766C125.721 49.2214 125.992 49.4207 126.292 49.5636C126.093 49.6353 125.881 49.6612 125.67 49.6395C125.46 49.6177 125.257 49.5488 125.077 49.4378C124.876 49.284 124.741 49.059 124.7 48.8089C124.671 48.5847 124.685 48.3569 124.742 48.1381C124.784 48.0542 124.784 47.9284 124.826 47.8446C124.868 47.7607 124.868 47.7188 124.868 47.635C124.91 47.5271 124.91 47.4074 124.868 47.2995C124.822 47.1364 124.743 46.9847 124.635 46.8546C124.526 46.7245 124.391 46.6189 124.239 46.5449Z"
        fill="#22272E" />
    <path
        d="M139.615 48.8496C139.643 49.3228 139.742 49.7891 139.908 50.2332C139.98 50.4275 140.079 50.6109 140.201 50.7783C140.377 50.9856 140.506 51.2289 140.578 51.491C140.645 51.7715 140.65 52.0633 140.592 52.3459C140.534 52.6284 140.415 52.8948 140.243 53.1262C140.09 53.349 139.89 53.5352 139.656 53.6712C139.435 53.8224 139.17 53.8961 138.902 53.8809C139.273 53.6079 139.551 53.2273 139.698 52.7908C139.861 52.4369 139.905 52.0397 139.824 51.6587C139.75 51.4651 139.652 51.2819 139.531 51.1137C139.403 50.864 139.318 50.5948 139.279 50.3171C139.261 49.807 139.376 49.3009 139.615 48.8496Z"
        fill="#22272E" />
    <path
        d="M135.425 55.5167C134.839 55.4952 134.27 55.3114 133.782 54.9858C133.294 54.6601 132.905 54.2052 132.66 53.6719"
        stroke="#22272E" stroke-linecap="round" stroke-linejoin="round" stroke-width="1.8" />
    <path
        d="M133.707 49.4366C133.627 49.4174 133.552 49.3827 133.485 49.3343C133.419 49.286 133.363 49.225 133.32 49.1549C133.277 49.0848 133.249 49.007 133.236 48.9258C133.223 48.8446 133.227 48.7618 133.246 48.6819L133.414 48.053C133.433 47.9731 133.468 47.8978 133.516 47.8314C133.564 47.765 133.625 47.7087 133.695 47.6659C133.765 47.623 133.843 47.5944 133.924 47.5817C134.005 47.569 134.088 47.5725 134.168 47.5918C134.248 47.611 134.323 47.6458 134.389 47.6941C134.456 47.7424 134.512 47.8034 134.555 47.8735C134.597 47.9436 134.626 48.0215 134.639 48.1026C134.651 48.1838 134.648 48.2667 134.629 48.3465L134.461 48.9754C134.442 49.0553 134.407 49.1306 134.359 49.197C134.311 49.2635 134.25 49.3197 134.18 49.3626C134.11 49.4054 134.032 49.434 133.951 49.4467C133.87 49.4594 133.787 49.456 133.707 49.4366Z"
        fill="#22272E" />
    <path
        d="M140.369 51.1554C140.289 51.1362 140.214 51.1014 140.148 51.0531C140.081 51.0047 140.025 50.9438 139.982 50.8737C139.939 50.8036 139.911 50.7257 139.898 50.6446C139.885 50.5634 139.889 50.4805 139.908 50.4007L140.076 49.7718C140.095 49.6919 140.13 49.6166 140.178 49.5501C140.226 49.4837 140.287 49.4275 140.357 49.3846C140.427 49.3418 140.505 49.3132 140.586 49.3005C140.667 49.2878 140.75 49.2912 140.83 49.3106C140.91 49.3298 140.985 49.3645 141.051 49.4129C141.118 49.4612 141.174 49.5221 141.217 49.5922C141.26 49.6623 141.288 49.7402 141.301 49.8214C141.314 49.9025 141.31 49.9854 141.291 50.0653L141.123 50.6942C141.104 50.774 141.069 50.8494 141.021 50.9158C140.973 50.9822 140.912 51.0385 140.842 51.0813C140.772 51.1241 140.694 51.1527 140.613 51.1654C140.532 51.1781 140.449 51.1747 140.369 51.1554Z"
        fill="#22272E" />
    <path
        d="M135.383 46.5432C134.922 46.6271 134.713 45.9982 134.043 46.0401C132.995 46.082 132.409 46.2917 132.325 45.8305C132.283 45.4951 133.079 44.8661 134.084 44.8242C135.551 44.8242 136.221 46.4174 135.383 46.5432Z"
        fill="#22272E" />
    <path
        d="M140.368 47.802C140.661 48.0536 141.08 47.5924 141.499 47.8859C142.128 48.2632 142.337 48.5986 142.547 48.3052C142.756 48.0117 142.547 47.2989 141.96 46.9216C140.997 46.2507 139.74 47.3408 140.368 47.802Z"
        fill="#22272E" />
    <path
        d="M87.5813 117.902C87.299 118.498 87.1151 119.135 87.0366 119.789C87.0366 120.502 87.6232 127.084 87.4556 128.384C87.288 129.684 86.8691 132.241 86.6177 132.619C86.3663 132.996 84.8581 131.822 84.8162 127.881C84.7743 123.94 83.4337 118.531 84.5649 117.902C85.696 117.273 87.2461 117.399 87.5813 117.902Z"
        fill="#F4C2C9" />
    <path
        d="M60.1403 137.358L70.195 121.51C70.3063 121.335 70.4514 121.183 70.6218 121.065C70.7922 120.947 70.9845 120.864 71.1874 120.821C71.3903 120.778 71.5997 120.776 71.8034 120.815C72.0071 120.854 72.2009 120.933 72.3735 121.048L96.0439 136.1C96.2189 136.212 96.3699 136.357 96.4881 136.527C96.6063 136.698 96.6892 136.89 96.7322 137.093C96.7751 137.296 96.7771 137.506 96.738 137.71C96.699 137.914 96.6197 138.108 96.5048 138.28L86.4501 154.129C86.3388 154.304 86.1937 154.455 86.0233 154.573C85.8528 154.692 85.6605 154.775 85.4577 154.818C85.2548 154.861 85.0454 154.863 84.8417 154.824C84.638 154.784 84.4442 154.705 84.2716 154.59L60.6012 139.538C60.2557 139.307 60.0142 138.949 59.9281 138.542C59.842 138.135 59.9182 137.71 60.1403 137.358Z"
        fill="#22272E" />
    <path
        d="M87.9169 149.476L92.9443 141.593C92.9965 141.509 93.0686 141.438 93.1543 141.388C93.24 141.338 93.3367 141.309 93.4359 141.305C93.5351 141.301 93.6339 141.321 93.7234 141.364C93.813 141.407 93.8907 141.471 93.9498 141.551L94.7458 142.6C94.8241 142.7 94.8701 142.822 94.8776 142.949C94.8851 143.077 94.8537 143.203 94.7877 143.312L90.263 150.44C90.2026 150.547 90.1073 150.631 89.993 150.676C89.8788 150.722 89.7523 150.727 89.6346 150.691L88.3359 150.44C88.2382 150.414 88.1477 150.366 88.0711 150.3C87.9945 150.234 87.9338 150.152 87.8935 150.059C87.8532 149.966 87.8344 149.866 87.8384 149.765C87.8425 149.664 87.8693 149.565 87.9169 149.476Z"
        fill="#7F99DD" />
    <path
        d="M86.4503 117.485C86.4503 117.485 86.199 124.78 86.1571 126.332C86.1152 127.883 86.1989 130.944 85.8219 132.411C85.4448 133.878 84.8164 137.568 83.6853 137.82C82.5541 138.071 83.7691 133.291 83.7691 132.369C83.6771 131.31 83.5091 130.259 83.2663 129.225C83.2663 129.225 82.8474 131.53 82.5541 132.537C82.2609 133.543 80.3337 136.688 79.5796 136.562C78.8255 136.436 79.7472 134.088 80.3337 132.663C80.8784 131.363 81.0878 128.638 81.0878 128.638C80.7611 129.471 80.3834 130.283 79.9567 131.069C79.4539 131.908 77.7363 134.507 77.0241 134.382C76.3118 134.256 77.4849 131.614 78.1971 130.398C78.6005 129.764 78.858 129.048 78.9512 128.302C78.9512 128.302 77.82 129.434 77.1078 129.979C76.3956 130.524 73.882 131.74 73.6725 131.111C73.463 130.482 74.5942 129.811 75.6415 128.847C76.6889 127.883 77.82 125.954 78.0714 125.619C78.3228 125.283 77.6106 122.348 78.7417 120.378C79.8729 118.407 80.5432 117.611 80.8365 116.269C81.1297 114.927 86.3246 116.521 86.4503 117.485Z"
        fill="#F4C2C9" />
    <path
        d="M112.634 60.7989C112.634 60.7989 107.858 60.3377 102.119 67.5492C96.3792 74.7606 90.7234 80.7981 89.1314 83.6491C87.5394 86.5002 84.0203 97.1916 82.2607 105.619C80.5011 114.046 80.3335 115.556 80.3754 116.478C80.4173 117.317 84.6487 118.491 87.4137 118.449C87.6567 118.453 87.8954 118.384 88.0976 118.249C88.2998 118.114 88.4559 117.92 88.5449 117.694C89.6341 115.136 93.4465 106.416 94.9548 103.229C96.7143 99.4976 98.7671 93.9632 99.0185 93.5859C99.2699 93.2085 110.707 81.5528 112.844 78.4921C114.98 75.4314 117.033 70.4841 116.572 66.1236C116.07 61.3859 113.64 60.757 112.634 60.7989Z"
        fill="#358ECE" />
    <path
        d="M89.7177 82.6854C89.7177 82.6854 91.0165 80.8825 92.6504 82.5177C94.368 84.2367 93.6139 87.9682 91.2259 90.3161C89.2569 92.2448 86.45 91.4481 86.7013 89.6453"
        stroke="#22272E" stroke-linecap="round" stroke-linejoin="round" stroke-width="1.8" />
    <path d="M80.9619 114.465C82.0931 115.01 85.4865 116.519 88.7962 116.1" stroke="#22272E"
        stroke-linecap="round" stroke-linejoin="round" stroke-width="1.8" />
    <path
        d="M190.643 126.374L197.681 103.314C197.783 103.007 197.98 102.74 198.244 102.551C198.507 102.363 198.823 102.263 199.147 102.266L240.79 103.44C240.952 103.441 241.112 103.48 241.256 103.554C241.401 103.627 241.527 103.732 241.624 103.862C241.721 103.992 241.787 104.142 241.817 104.302C241.847 104.461 241.839 104.625 241.796 104.781L233.626 132.914C233.528 133.258 233.307 133.554 233.007 133.746C232.706 133.939 232.345 134.016 231.992 133.963L191.564 127.715C191.407 127.707 191.254 127.663 191.117 127.586C190.98 127.509 190.862 127.401 190.773 127.272C190.684 127.142 190.626 126.994 190.604 126.838C190.581 126.682 190.594 126.523 190.643 126.374Z"
        fill="#22272E" />
    <path
        d="M190.265 127.547L166.05 129.811L207.568 140.041C208.571 140.293 209.622 140.293 210.626 140.041L233.165 134.213L190.265 127.547Z"
        fill="#63737A" />
    <path
        d="M207.609 140.041L166.092 129.811C166.095 130.194 166.223 130.566 166.458 130.869C166.693 131.172 167.02 131.389 167.391 131.488L206.52 141.886C208.172 142.319 209.911 142.29 211.547 141.802L232.076 135.764C232.42 135.665 232.721 135.455 232.933 135.167C233.145 134.879 233.256 134.529 233.249 134.171L210.71 139.999C209.698 140.284 208.629 140.299 207.609 140.041Z"
        fill="#22272E" />
    <path
        d="M217.999 107.38L215.067 117.358C215.024 117.48 214.944 117.586 214.839 117.661C214.734 117.736 214.609 117.777 214.48 117.778L198.016 116.352C197.932 116.346 197.852 116.321 197.779 116.28C197.707 116.239 197.645 116.182 197.597 116.114C197.549 116.046 197.516 115.968 197.502 115.886C197.487 115.804 197.491 115.72 197.513 115.639L200.278 106.499C200.312 106.38 200.383 106.275 200.481 106.2C200.579 106.124 200.699 106.082 200.822 106.08L217.455 106.667C217.54 106.67 217.625 106.691 217.701 106.731C217.777 106.77 217.844 106.826 217.896 106.894C217.948 106.962 217.985 107.041 218.002 107.125C218.02 107.209 218.019 107.296 217.999 107.38Z"
        fill="white" />
    <path
        d="M214.857 109.184L213.014 115.179L200.194 114.257L200.655 112.915L205.389 110.819L208.071 112.915L214.857 109.184Z"
        fill="#F4C2C9" />
    <path
        d="M205.263 121.426L204.048 125.2C204.005 125.327 203.918 125.435 203.803 125.504C203.688 125.573 203.552 125.599 203.419 125.577L195.501 124.529C195.42 124.521 195.342 124.495 195.272 124.453C195.202 124.41 195.143 124.353 195.098 124.284C195.054 124.216 195.026 124.138 195.016 124.057C195.006 123.976 195.014 123.893 195.041 123.816L196.088 120.294C196.131 120.173 196.21 120.067 196.315 119.992C196.42 119.917 196.546 119.876 196.674 119.875L204.76 120.714C204.847 120.71 204.933 120.728 205.01 120.767C205.088 120.805 205.155 120.862 205.205 120.933C205.255 121.004 205.286 121.086 205.296 121.172C205.307 121.259 205.295 121.346 205.263 121.426Z"
        fill="#FFE779" />
    <path
        d="M217.664 122.683L216.323 126.834C216.28 126.962 216.194 127.069 216.079 127.139C215.963 127.208 215.827 127.234 215.695 127.212L208.154 126.205C208.07 126.195 207.989 126.165 207.918 126.119C207.846 126.073 207.786 126.011 207.742 125.939C207.698 125.866 207.671 125.785 207.662 125.7C207.654 125.616 207.664 125.53 207.693 125.451L208.95 121.551C208.988 121.43 209.068 121.325 209.175 121.256C209.282 121.188 209.41 121.158 209.536 121.174L217.161 121.929C217.249 121.933 217.335 121.959 217.411 122.002C217.488 122.046 217.553 122.107 217.602 122.18C217.65 122.253 217.682 122.337 217.692 122.424C217.703 122.512 217.693 122.6 217.664 122.683Z"
        fill="#6DAFA7" />
    <path
        d="M231.908 124.109L230.484 128.721C230.441 128.848 230.354 128.956 230.239 129.025C230.124 129.094 229.988 129.12 229.855 129.098L220.764 127.882C220.68 127.872 220.599 127.842 220.528 127.796C220.457 127.75 220.397 127.688 220.353 127.616C220.308 127.543 220.281 127.462 220.272 127.377C220.264 127.293 220.274 127.208 220.303 127.128L221.686 122.809C221.724 122.688 221.804 122.583 221.911 122.514C222.018 122.445 222.146 122.416 222.273 122.432L231.364 123.354C231.454 123.356 231.542 123.379 231.622 123.421C231.702 123.463 231.771 123.523 231.824 123.596C231.877 123.669 231.912 123.753 231.926 123.842C231.941 123.931 231.935 124.023 231.908 124.109Z"
        fill="#F4C2C9" />
    <path
        d="M227.006 109.394C226.841 110.019 226.47 110.57 225.953 110.958C225.436 111.346 224.803 111.549 224.157 111.532C222.942 111.448 222.314 110.4 222.649 109.226C222.834 108.666 223.187 108.177 223.659 107.825C224.131 107.472 224.7 107.274 225.288 107.255C225.555 107.245 225.82 107.297 226.063 107.407C226.305 107.517 226.519 107.683 226.686 107.891C226.853 108.099 226.969 108.343 227.024 108.604C227.08 108.865 227.074 109.136 227.006 109.394Z"
        fill="#FFE779" />
    <path d="M229.981 108.008L236.098 108.217" stroke="#63737A" stroke-linecap="round"
        stroke-linejoin="round" stroke-width="1.8" />
    <path d="M220.429 115.975L233.542 116.897" stroke="#63737A" stroke-linecap="round"
        stroke-linejoin="round" stroke-width="1.8" />
    <path d="M229.269 110.482L235.385 110.734" stroke="#63737A" stroke-linecap="round"
        stroke-linejoin="round" stroke-width="1.8" />
    <path
        d="M262.827 47.8424L230.987 50.3161C230.797 50.3284 230.606 50.3 230.427 50.2327C230.249 50.1654 230.087 50.0608 229.952 49.9259C229.817 49.791 229.713 49.6289 229.646 49.4503C229.578 49.2718 229.55 49.0809 229.562 48.8906L230.903 30.4846C230.941 29.9509 231.162 29.4467 231.528 29.0571C231.894 28.6675 232.384 28.4164 232.914 28.3463L265.257 23.9439C265.453 23.9194 265.653 23.9387 265.841 24.0004C266.03 24.0621 266.202 24.1648 266.346 24.301C266.49 24.4372 266.603 24.6036 266.675 24.7884C266.747 24.9731 266.778 25.1715 266.765 25.3695L264.963 45.746C264.903 46.2882 264.657 46.793 264.268 47.1749C263.879 47.5569 263.37 47.7926 262.827 47.8424Z"
        fill="#B8C1D8" />
    <path
        d="M261.779 47.1724L229.939 49.6461C229.749 49.6585 229.558 49.63 229.38 49.5628C229.201 49.4955 229.039 49.3909 228.904 49.256C228.77 49.1211 228.665 48.9589 228.598 48.7804C228.531 48.6019 228.502 48.411 228.515 48.2206L229.855 29.8146C229.893 29.281 230.114 28.7767 230.48 28.3871C230.847 27.9975 231.336 27.7465 231.866 27.6764L264.209 23.274C264.405 23.2495 264.605 23.2687 264.793 23.3305C264.982 23.3922 265.154 23.4949 265.298 23.6311C265.443 23.7673 265.555 23.9337 265.627 24.1184C265.699 24.3032 265.73 24.5016 265.717 24.6995L263.915 45.0761C263.869 45.6238 263.628 46.1367 263.236 46.5214C262.844 46.9062 262.327 47.1372 261.779 47.1724Z"
        fill="#A8B8E1" />
    <path
        d="M240.58 34.8447C240.521 35.4711 240.254 36.0595 239.821 36.5156C239.388 36.9718 238.814 37.2692 238.192 37.3603C237.92 37.3961 237.643 37.3687 237.382 37.2802C237.122 37.1917 236.886 37.0445 236.691 36.85C236.497 36.6555 236.35 36.4188 236.261 36.1584C236.173 35.8979 236.145 35.6206 236.181 35.3478C236.231 34.725 236.49 34.1374 236.916 33.6807C237.342 33.2239 237.91 32.9249 238.527 32.8322C239.784 32.6645 240.664 33.5869 240.58 34.8447Z"
        fill="#22272E" />
    <path
        d="M239.952 42.854L235.595 43.2733C235.376 43.2969 235.155 43.2704 234.949 43.1959C234.742 43.1214 234.555 43.0009 234.401 42.8433C234.248 42.6858 234.133 42.4955 234.063 42.2867C233.994 42.0779 233.974 41.8561 234.003 41.6381C234.111 40.5264 234.585 39.4821 235.351 38.6699C236.117 37.8576 237.131 37.3236 238.234 37.1519C240.413 36.9004 242.089 38.5775 241.879 40.8834C241.826 41.3808 241.607 41.8457 241.257 42.2032C240.907 42.5607 240.448 42.79 239.952 42.854Z"
        fill="#22272E" />
    <path d="M245.733 32.5815L259.307 30.9883" stroke="#63737A" stroke-linecap="round"
        stroke-linejoin="round" stroke-width="1.8" />
    <path d="M245.398 36.3131L258.972 34.8457" stroke="#63737A" stroke-linecap="round"
        stroke-linejoin="round" stroke-width="1.8" />
    <path d="M245.105 40.0447L253.275 39.248" stroke="#63737A" stroke-linecap="round"
        stroke-linejoin="round" stroke-width="1.8" />
    <path
        d="M226.713 15.1412C225.079 13.506 222.775 12.5417 219.926 12.2063C218.035 11.9271 216.103 12.1887 214.354 12.961C212.343 13.8414 210.835 15.3927 209.704 17.6568L207.818 18.4534L208.908 19.5855L213.809 20.4659C214.147 19.4046 214.736 18.4407 215.527 17.6568C216.365 16.8183 217.496 16.4829 218.92 16.6925C220.345 16.9021 221.308 17.4472 221.685 18.3276C222.062 19.2187 222.107 20.2156 221.811 21.1368C221.557 21.9979 221.063 22.7687 220.387 23.3589C219.962 23.7376 219.482 24.0487 218.962 24.2813L217.287 25.1198C215.653 25.9164 214.563 26.6711 214.019 27.4258C213.479 28.2641 213.042 29.1652 212.72 30.1092L211.044 30.6542L212.133 31.7862L217.161 33.1698C217.355 32.3605 217.665 31.5837 218.083 30.8638C218.587 30.0782 219.317 29.4642 220.177 29.1029L221.895 28.3063C223.239 27.7418 224.506 27.0093 225.665 26.1261C226.954 25.0293 227.851 23.543 228.221 21.8914C228.933 19.1243 228.43 16.8602 226.713 15.1412Z"
        fill="#F8AB5D" />
    <path
        d="M213.894 34.8042L213.726 34.7622C213.363 34.6688 212.985 34.6492 212.614 34.7045C212.243 34.7599 211.887 34.8891 211.566 35.0845C211.246 35.28 210.968 35.5376 210.749 35.8423C210.53 36.147 210.374 36.4926 210.291 36.8586C210.055 37.5989 210.11 38.4014 210.444 39.1026C210.779 39.8037 211.369 40.3507 212.092 40.632L212.26 40.7159C213.768 41.219 215.36 40.2966 215.821 38.6195C216.282 36.9424 215.402 35.2234 213.894 34.8042Z"
        fill="#F8AB5D" />
    <path
        d="M213.307 11.8282C215.067 11.0964 216.987 10.8363 218.879 11.0735C221.727 11.4089 223.99 12.3733 225.665 14.0084C227.341 15.6436 227.886 17.9915 227.132 20.8425C226.75 22.4897 225.855 23.9728 224.576 25.0772C223.864 25.7061 222.607 26.4188 220.806 27.2574L219.088 28.054C218.228 28.4152 217.497 29.0293 216.993 29.8149C216.601 30.547 216.292 31.3204 216.072 32.1209L211.044 30.7373C211.756 28.5571 212.343 27.1316 212.929 26.3769C213.516 25.6222 214.563 24.8675 216.197 24.0709L217.873 23.2324C218.389 22.9944 218.869 22.6838 219.297 22.31C219.996 21.7391 220.494 20.9609 220.722 20.0878C220.977 19.1616 220.933 18.1785 220.596 17.2787C220.261 16.3983 219.297 15.8532 217.831 15.6436C216.365 15.4339 215.276 15.7693 214.438 16.6079C213.63 17.3782 213.038 18.3467 212.72 19.417L207.818 18.5365C208.991 15.1404 210.751 12.9602 213.307 11.8282ZM212.762 34.1334L212.929 34.1753C213.678 34.4304 214.297 34.967 214.657 35.6713C215.017 36.3757 215.088 37.1925 214.857 37.9488C214.396 39.6259 212.762 40.5483 211.296 40.0451L211.128 39.9613C210.404 39.68 209.815 39.133 209.48 38.4318C209.145 37.7307 209.09 36.9281 209.327 36.1878C209.51 35.4598 209.975 34.8346 210.62 34.4494C211.264 34.0642 212.034 33.9506 212.762 34.1334Z"
        fill="#FFE779" />
    <path
        d="M99.3115 37.6984H115.399L117.033 38.7466C117.152 38.8239 117.291 38.8673 117.433 38.8723C117.575 38.8772 117.716 38.8435 117.841 38.7747C117.965 38.7059 118.069 38.6045 118.141 38.4815C118.212 38.3584 118.249 38.2182 118.248 38.0758V26.7135C118.248 26.1576 118.027 25.6243 117.634 25.2312C117.241 24.8381 116.709 24.6172 116.153 24.6172H99.3115C98.756 24.6172 98.2232 24.8381 97.8303 25.2312C97.4375 25.6243 97.2168 26.1576 97.2168 26.7135V35.6021C97.2168 36.1581 97.4375 36.6913 97.8303 37.0844C98.2232 37.4776 98.756 37.6984 99.3115 37.6984Z"
        fill="#F4C2C9" />
    <path d="M113.053 28.3477H102.328" stroke="#22272E" stroke-linecap="round" stroke-linejoin="round"
        stroke-width="1.8" />
    <path d="M113.053 31.2812H102.328" stroke="#22272E" stroke-linecap="round" stroke-linejoin="round"
        stroke-width="1.8" />
    <path d="M113.053 34.2168H106.895" stroke="#22272E" stroke-linecap="round" stroke-linejoin="round"
        stroke-width="1.8" />
</svg>
