<svg fill="none" height="479" viewBox="0 0 440 479" width="440" xmlns="http://www.w3.org/2000/svg">
    <g opacity="0.5">
        <circle cx="114" cy="114" fill="url(#paint0_linear_3001_2314)" opacity="0.1"
            r="114"
            transform="matrix(0.5 0.866025 0.866025 -0.5 -65 45)" />
        <circle cx="114" cy="114" fill="url(#paint1_linear_3001_2314)" opacity="0.1"
            r="114"
            transform="matrix(0.5 0.866025 0.866025 -0.5 239 51)" />
        <circle cx="114" cy="114" fill="url(#paint2_linear_3001_2314)" opacity="0.1"
            r="114"
            transform="matrix(0.5 0.866025 0.866025 -0.5 78 51)" />
    </g>
    <g opacity="0.5">
        <circle cx="372.726" cy="316.727" fill="url(#paint3_linear_3001_2314)" opacity="0.1"
            r="114" transform="rotate(120 372.726 316.727)" />
        <circle cx="68.7262" cy="322.727" fill="url(#paint4_linear_3001_2314)" opacity="0.1"
            r="114" transform="rotate(120 68.7262 322.727)" />
        <circle cx="229.726" cy="322.727" fill="url(#paint5_linear_3001_2314)" opacity="0.1"
            r="114" transform="rotate(120 229.726 322.727)" />
    </g>
    <defs>
        <linearGradient gradientUnits="userSpaceOnUse" id="paint0_linear_3001_2314" x1="114" x2="114" y1="0"
            y2="228">
            <stop stop-color="white" stop-opacity="0" />
            <stop offset="1" stop-color="white" />
        </linearGradient>
        <linearGradient gradientUnits="userSpaceOnUse" id="paint1_linear_3001_2314" x1="114" x2="114" y1="0"
            y2="228">
            <stop stop-color="white" stop-opacity="0" />
            <stop offset="1" stop-color="white" />
        </linearGradient>
        <linearGradient gradientUnits="userSpaceOnUse" id="paint2_linear_3001_2314" x1="114" x2="114" y1="0"
            y2="228">
            <stop stop-color="white" stop-opacity="0" />
            <stop offset="1" stop-color="white" />
        </linearGradient>
        <linearGradient gradientUnits="userSpaceOnUse" id="paint3_linear_3001_2314" x1="372.726" x2="372.726"
            y1="202.727" y2="430.727">
            <stop stop-color="white" stop-opacity="0" />
            <stop offset="1" stop-color="white" />
        </linearGradient>
        <linearGradient gradientUnits="userSpaceOnUse" id="paint4_linear_3001_2314" x1="68.7262" x2="68.7262"
            y1="208.727" y2="436.727">
            <stop stop-color="white" stop-opacity="0" />
            <stop offset="1" stop-color="white" />
        </linearGradient>
        <linearGradient gradientUnits="userSpaceOnUse" id="paint5_linear_3001_2314" x1="229.726" x2="229.726"
            y1="208.727" y2="436.727">
            <stop stop-color="white" stop-opacity="0" />
            <stop offset="1" stop-color="white" />
        </linearGradient>
    </defs>
</svg>
