<svg fill="none" height="34" viewBox="0 0 34 34" width="34" xmlns="http://www.w3.org/2000/svg">
    <g clip-path="url(#clip0_575_2297)">
        <path clip-rule="evenodd" d="M33.3409 16.8509C33.3409 25.8576 25.9718 33.2267 16.9652 33.2267C7.95855 33.2267 0.589478 25.8576 0.589478 16.8509C0.589478 7.84429 7.95855 0.47522 16.9652 0.47522C25.9718 0.47522 33.3409 7.84429 33.3409 16.8509Z"
            fill="url(#paint0_linear_575_2297)"
            fill-rule="evenodd" />
        <path clip-rule="evenodd" d="M33.3409 16.8509C33.3409 25.8576 25.9718 33.2267 16.9652 33.2267C7.95855 33.2267 0.589478 25.8576 0.589478 16.8509C0.589478 7.84429 7.95855 0.47522 16.9652 0.47522C25.9718 0.47522 33.3409 7.84429 33.3409 16.8509Z"
            fill="url(#paint1_radial_575_2297)"
            fill-rule="evenodd" />
        <path clip-rule="evenodd" d="M33.3409 16.8509C33.3409 25.8576 25.9718 33.2267 16.9652 33.2267C7.95855 33.2267 0.589478 25.8576 0.589478 16.8509C0.589478 7.84429 7.95855 0.47522 16.9652 0.47522C25.9718 0.47522 33.3409 7.84429 33.3409 16.8509Z"
            fill="url(#paint2_radial_575_2297)"
            fill-rule="evenodd" />
        <path clip-rule="evenodd" d="M33.3409 16.8509C33.3409 25.8576 25.9718 33.2267 16.9652 33.2267C7.95855 33.2267 0.589478 25.8576 0.589478 16.8509C0.589478 7.84429 7.95855 0.47522 16.9652 0.47522C25.9718 0.47522 33.3409 7.84429 33.3409 16.8509Z"
            fill="url(#paint3_radial_575_2297)"
            fill-rule="evenodd" />
        <path clip-rule="evenodd" d="M33.3409 16.8509C33.3409 25.8576 25.9718 33.2267 16.9652 33.2267C7.95855 33.2267 0.589478 25.8576 0.589478 16.8509C0.589478 7.84429 7.95855 0.47522 16.9652 0.47522C25.9718 0.47522 33.3409 7.84429 33.3409 16.8509Z"
            fill="url(#paint4_radial_575_2297)"
            fill-rule="evenodd" />
        <path clip-rule="evenodd" d="M33.3409 16.8509C33.3409 25.8576 25.9718 33.2267 16.9652 33.2267C7.95855 33.2267 0.589478 25.8576 0.589478 16.8509C0.589478 7.84429 7.95855 0.47522 16.9652 0.47522C25.9718 0.47522 33.3409 7.84429 33.3409 16.8509Z"
            fill="url(#paint5_radial_575_2297)"
            fill-rule="evenodd" />
        <path clip-rule="evenodd" d="M20.4461 12.5519C20.2414 11.9378 13.6911 11.9378 13.4864 12.5519C13.2817 13.166 14.7146 13.9848 16.9663 13.9848C19.2179 13.9848 20.6508 13.166 20.4461 12.5519Z"
            fill="url(#paint6_linear_575_2297)"
            fill-rule="evenodd" />
        <path clip-rule="evenodd" d="M12.8708 8.86801C12.8708 10.3009 12.052 10.7103 10.8238 10.915C9.59563 11.1197 8.57214 10.5056 8.57214 8.86801C8.57214 7.63983 9.18623 6.00226 10.8238 6.00226C12.2567 6.00226 12.8708 7.63983 12.8708 8.86801Z"
            fill="url(#paint7_radial_575_2297)"
            fill-rule="evenodd" />
        <path clip-rule="evenodd" d="M10.6205 6.82143C10.8252 7.02613 10.8252 7.64022 10.4158 7.84491C10.2111 8.04961 9.8017 8.25431 9.597 7.84491C9.39231 7.43552 9.39231 7.23082 9.597 6.82143C10.0064 6.61673 10.4158 6.61673 10.6205 6.82143Z"
            fill="#4E506A"
            fill-rule="evenodd" />
        <path clip-rule="evenodd" d="M21.0624 8.86801C21.0624 10.3009 21.8812 10.7103 23.314 10.915C24.5422 11.1197 25.5657 10.5056 25.5657 8.86801C25.5657 7.63983 24.9516 6.00226 23.314 6.00226C21.6765 6.00226 21.0624 7.63983 21.0624 8.86801Z"
            fill="url(#paint8_radial_575_2297)"
            fill-rule="evenodd" />
        <path clip-rule="evenodd" d="M23.1066 6.82029C23.3113 7.02499 23.1066 7.43438 22.9019 7.84377C22.6972 8.04847 22.2878 8.04847 22.0831 7.84377C21.8784 7.63908 22.0831 7.22968 22.2878 6.82029C22.6972 6.4109 22.9019 6.4109 23.1066 6.82029Z"
            fill="#4E506A"
            fill-rule="evenodd" />
        <path clip-rule="evenodd" d="M7.55347 4.77253C7.14407 5.18192 7.55347 5.79601 8.16755 5.59132C9.39573 4.97723 11.8521 4.36314 13.8991 4.56783C14.5131 4.56783 14.7178 4.56783 14.5131 3.74905C14.5131 3.13496 13.6944 2.72557 12.0568 2.93026C9.60043 3.13496 7.96286 4.36314 7.55347 4.77253Z"
            fill="url(#paint9_radial_575_2297)"
            fill-rule="evenodd" />
        <path clip-rule="evenodd" d="M21.8849 2.93026C20.2474 2.72557 19.4286 3.13496 19.4286 3.74905C19.2239 4.56783 19.4286 4.56783 20.0427 4.56783C22.2943 4.36314 24.7507 4.97723 25.7742 5.59132C26.5929 6.00071 26.7976 5.18192 26.3883 4.77253C25.9789 4.36314 24.3413 3.13496 21.8849 2.93026Z"
            fill="url(#paint10_radial_575_2297)"
            fill-rule="evenodd" />
        <path clip-rule="evenodd" d="M20.4449 17.8747C16.1462 16.6465 14.7134 19.5122 14.7134 19.5122C14.7134 19.5122 15.1228 16.2371 10.8241 14.8042C6.7302 13.576 4.27384 17.4653 4.06915 19.7169C3.65976 24.8344 8.16308 30.5659 9.80065 32.6128C10.0053 33.2269 10.6194 33.2269 11.2335 33.2269C13.6899 32.6128 20.6496 30.3612 23.3106 25.8578C24.3341 23.6062 24.5388 19.1029 20.4449 17.8747Z"
            fill="url(#paint11_linear_575_2297)"
            fill-rule="evenodd" />
        <path clip-rule="evenodd" d="M20.4449 17.8747C16.1462 16.6465 14.7134 19.5122 14.7134 19.5122C14.7134 19.5122 15.1228 16.2371 10.8241 14.8042C6.7302 13.576 4.27384 17.4653 4.06915 19.7169C3.65976 24.8344 8.16308 30.5659 9.80065 32.6128C10.0053 33.2269 10.6194 33.2269 11.2335 33.2269C13.6899 32.6128 20.6496 30.3612 23.3106 25.8578C24.3341 23.6062 24.5388 19.1029 20.4449 17.8747Z"
            fill="url(#paint12_radial_575_2297)"
            fill-rule="evenodd" />
        <path clip-rule="evenodd" d="M20.4449 17.8747C16.1462 16.6465 14.7134 19.5122 14.7134 19.5122C14.7134 19.5122 15.1228 16.2371 10.8241 14.8042C6.7302 13.576 4.27384 17.4653 4.06915 19.7169C3.65976 24.8344 8.16308 30.5659 9.80065 32.6128C10.0053 33.2269 10.6194 33.2269 11.2335 33.2269C13.6899 32.6128 20.6496 30.3612 23.3106 25.8578C24.3341 23.6062 24.5388 19.1029 20.4449 17.8747Z"
            fill="url(#paint13_radial_575_2297)"
            fill-rule="evenodd" />
        <path clip-rule="evenodd" d="M20.4449 17.8747C16.1462 16.6465 14.7134 19.5122 14.7134 19.5122C14.7134 19.5122 15.1228 16.2371 10.8241 14.8042C6.7302 13.576 4.27384 17.4653 4.06915 19.7169C3.65976 24.8344 8.16308 30.5659 9.80065 32.6128C10.0053 33.2269 10.6194 33.2269 11.2335 33.2269C13.6899 32.6128 20.6496 30.3612 23.3106 25.8578C24.3341 23.6062 24.5388 19.1029 20.4449 17.8747Z"
            fill="url(#paint14_radial_575_2297)"
            fill-rule="evenodd" />
        <path clip-rule="evenodd" d="M20.4449 17.8747C16.1462 16.6465 14.7134 19.5122 14.7134 19.5122C14.7134 19.5122 15.1228 16.2371 10.8241 14.8042C6.7302 13.576 4.27384 17.4653 4.06915 19.7169C3.65976 24.8344 8.16308 30.5659 9.80065 32.6128C10.0053 33.2269 10.6194 33.2269 11.2335 33.2269C13.6899 32.6128 20.6496 30.3612 23.3106 25.8578C24.3341 23.6062 24.5388 19.1029 20.4449 17.8747Z"
            fill="url(#paint15_radial_575_2297)"
            fill-rule="evenodd" />
        <path clip-rule="evenodd" d="M20.4449 17.8747C16.1462 16.6465 14.7134 19.5122 14.7134 19.5122C14.7134 19.5122 15.1228 16.2371 10.8241 14.8042C6.7302 13.576 4.27384 17.4653 4.06915 19.7169C3.65976 24.8344 8.16308 30.5659 9.80065 32.6128C10.0053 33.2269 10.6194 33.2269 11.2335 33.2269C13.6899 32.6128 20.6496 30.3612 23.3106 25.8578C24.3341 23.6062 24.5388 19.1029 20.4449 17.8747Z"
            fill="url(#paint16_radial_575_2297)"
            fill-rule="evenodd" />
        <path clip-rule="evenodd" d="M20.4449 17.8747C16.1462 16.6465 14.7134 19.5122 14.7134 19.5122C14.7134 19.5122 15.1228 16.2371 10.8241 14.8042C6.7302 13.576 4.27384 17.4653 4.06915 19.7169C3.65976 24.8344 8.16308 30.5659 9.80065 32.6128C10.0053 33.2269 10.6194 33.2269 11.2335 33.2269C13.6899 32.6128 20.6496 30.3612 23.3106 25.8578C24.3341 23.6062 24.5388 19.1029 20.4449 17.8747Z"
            fill="url(#paint17_radial_575_2297)"
            fill-rule="evenodd" />
        <mask style="mask-type:luminance" height="34" id="mask0_575_2297" maskUnits="userSpaceOnUse" width="34"
            x="0" y="0">
            <path clip-rule="evenodd" d="M33.3379 16.8505C33.3379 25.8571 25.9688 33.2262 16.9621 33.2262C7.9555 33.2262 0.586426 25.8571 0.586426 16.8505C0.586426 7.8438 7.9555 0.474731 16.9621 0.474731C25.9688 0.474731 33.3379 7.8438 33.3379 16.8505Z"
                fill="white"
                fill-rule="evenodd" />
        </mask>
        <g mask="url(#mask0_575_2297)">
            <path clip-rule="evenodd" d="M3.25835 16.2361C2.23486 15.2126 0.392596 14.5985 0.1879 17.0549C-0.0167968 18.8972 0.801989 22.1723 3.05365 24.0146C8.78515 28.5179 13.9026 26.0615 14.1073 22.7864C14.312 20.33 11.2415 20.5347 10.4227 20.5347V20.33C10.6274 20.1253 11.0368 19.9206 11.2415 19.7159C12.0603 19.1019 11.6509 18.0784 10.6274 18.2831C10.4227 18.2831 7.96637 19.1019 6.32879 18.4878C4.69122 17.8737 4.48653 17.2596 3.25835 16.2361Z"
                fill="url(#paint18_radial_575_2297)"
                fill-rule="evenodd" />
        </g>
        <path
            d="M29.8694 16.4404C30.4835 15.2122 31.507 15.6216 32.1211 15.8263C32.9399 16.031 33.554 16.6451 33.554 17.8733C33.554 20.9437 33.1446 23.8095 30.4835 26.6752C25.7755 31.9973 17.7923 31.1786 16.9735 27.9034C16.3595 25.4471 19.2252 25.0377 20.2487 25.0377V24.833C19.8393 24.6283 19.6346 24.4236 19.2252 24.2189C18.4064 23.6048 18.6111 22.3766 19.6346 22.5813C20.8628 22.786 22.5004 23.1954 23.7285 22.9907C27.6178 22.5813 28.2319 19.5109 29.8694 16.4404Z"
            fill="url(#paint19_radial_575_2297)" />
    </g>
    <defs>
        <linearGradient gradientUnits="userSpaceOnUse" id="paint0_linear_575_2297" x1="16.9488" x2="16.9488"
            y1="31.6055" y2="2.9152">
            <stop stop-color="#F28A2D" />
            <stop offset="1" stop-color="#FDE86F" />
        </linearGradient>
        <radialGradient cx="0" cy="0" gradientTransform="translate(16.9488 16.8346) scale(16.3757)" gradientUnits="userSpaceOnUse"
            id="paint1_radial_575_2297"
            r="1">
            <stop stop-color="#F28A2D" stop-opacity="0" />
            <stop offset="1" stop-color="#F08423" stop-opacity="0.34" />
        </radialGradient>
        <radialGradient cx="0" cy="0" gradientTransform="translate(4.13213 17.5072) rotate(24.1484) scale(3.30789 2.55862)" gradientUnits="userSpaceOnUse"
            id="paint2_radial_575_2297"
            r="1">
            <stop stop-color="#F28A2D" stop-opacity="0.5" />
            <stop offset="1" stop-color="#F28A2D" stop-opacity="0" />
        </radialGradient>
        <radialGradient cx="0" cy="0" gradientTransform="translate(24.8823 24.5754) rotate(-38.243) scale(9.26868 3.37203)" gradientUnits="userSpaceOnUse"
            id="paint3_radial_575_2297"
            r="1">
            <stop stop-color="#F28A2D" stop-opacity="0.5" />
            <stop offset="1" stop-color="#F28A2D" stop-opacity="0" />
        </radialGradient>
        <radialGradient cx="0" cy="0" gradientTransform="translate(11.0161 4.63007) rotate(-10.3559) scale(3.50441 0.696881)" gradientUnits="userSpaceOnUse"
            id="paint4_radial_575_2297"
            r="1">
            <stop stop-color="#D45F00" stop-opacity="0.15" />
            <stop offset="1" stop-color="#F28A2D" stop-opacity="0" />
        </radialGradient>
        <radialGradient cx="0" cy="0" gradientTransform="translate(22.8838 4.87014) rotate(11.5352) scale(3.47164 0.690397)" gradientUnits="userSpaceOnUse"
            id="paint5_radial_575_2297"
            r="1">
            <stop stop-color="#D45F00" stop-opacity="0.15" />
            <stop offset="1" stop-color="#D45F00" stop-opacity="0" />
        </radialGradient>
        <linearGradient gradientUnits="userSpaceOnUse" id="paint6_linear_575_2297" x1="16.9657" x2="16.9657"
            y1="11.3428" y2="14.2575">
            <stop stop-color="#482314" />
            <stop offset="1" stop-color="#9A4111" />
        </linearGradient>
        <radialGradient cx="0" cy="0" gradientTransform="translate(10.809 9.21833) rotate(-90) scale(3.80659 3.80677)" gradientUnits="userSpaceOnUse"
            id="paint7_radial_575_2297"
            r="1">
            <stop stop-color="#3B446B" />
            <stop offset="0.688" stop-color="#202340" />
        </radialGradient>
        <radialGradient cx="0" cy="0" gradientTransform="translate(23.1232 9.21599) rotate(-90) scale(3.80659 3.80677)" gradientUnits="userSpaceOnUse"
            id="paint8_radial_575_2297"
            r="1">
            <stop stop-color="#3B446B" />
            <stop offset="0.688" stop-color="#202340" />
        </radialGradient>
        <radialGradient cx="0" cy="0" gradientTransform="translate(10.8317 3.97554) rotate(-104.427) scale(0.829965 3.84722)" gradientUnits="userSpaceOnUse"
            id="paint9_radial_575_2297"
            r="1">
            <stop stop-color="#E38200" />
            <stop offset="1" stop-color="#CD6700" />
        </radialGradient>
        <radialGradient cx="0" cy="0" gradientTransform="translate(22.9797 3.60831) rotate(-79.0815) scale(0.874476 5.18951)" gradientUnits="userSpaceOnUse"
            id="paint10_radial_575_2297"
            r="1">
            <stop stop-color="#E38200" />
            <stop offset="1" stop-color="#CD6700" />
        </radialGradient>
        <linearGradient gradientUnits="userSpaceOnUse" id="paint11_linear_575_2297" x1="14.4132" x2="10.2565"
            y1="20.4287" y2="33.8201">
            <stop stop-color="#F34462" />
            <stop offset="1" stop-color="#CC0820" />
        </linearGradient>
        <radialGradient cx="0" cy="0" gradientTransform="translate(18.6856 22.8591) rotate(20.3927) scale(5.38948 5.3895)" gradientUnits="userSpaceOnUse"
            id="paint12_radial_575_2297"
            r="1">
            <stop stop-color="#FF7091" stop-opacity="0.7" />
            <stop offset="1" stop-color="#FE6D8E" stop-opacity="0" />
        </radialGradient>
        <radialGradient cx="0" cy="0" gradientTransform="translate(9.32625 20.1444) rotate(20.3927) scale(5.38948 5.3895)" gradientUnits="userSpaceOnUse"
            id="paint13_radial_575_2297"
            r="1">
            <stop stop-color="#FF7091" stop-opacity="0.7" />
            <stop offset="1" stop-color="#FE6D8E" stop-opacity="0" />
        </radialGradient>
        <radialGradient cx="0" cy="0" gradientTransform="translate(8.74521 24.5527) rotate(101.61) scale(4.62749 6.37207)" gradientUnits="userSpaceOnUse"
            id="paint14_radial_575_2297"
            r="1">
            <stop stop-color="#9C0600" />
            <stop offset="1" stop-color="#9C0600" stop-opacity="0" />
        </radialGradient>
        <radialGradient cx="0" cy="0" gradientTransform="translate(23.9536 25.0242) rotate(30.6331) scale(2.78766 3.4986)" gradientUnits="userSpaceOnUse"
            id="paint15_radial_575_2297"
            r="1">
            <stop stop-color="#9C0600" stop-opacity="0.5" />
            <stop offset="1" stop-color="#9C0600" stop-opacity="0" />
        </radialGradient>
        <radialGradient cx="0" cy="0" gradientTransform="translate(4.79937 19.1304) rotate(-20.1593) scale(2.41597 3.11337)" gradientUnits="userSpaceOnUse"
            id="paint16_radial_575_2297"
            r="1">
            <stop stop-color="#9C0600" stop-opacity="0.5" />
            <stop offset="1" stop-color="#9C0600" stop-opacity="0" />
        </radialGradient>
        <radialGradient cx="0" cy="0" gradientTransform="translate(18.879 28.9582) rotate(34.0715) scale(3.25227 3.5224)" gradientUnits="userSpaceOnUse"
            id="paint17_radial_575_2297"
            r="1">
            <stop stop-color="#9C0600" stop-opacity="0.999" />
            <stop offset="1" stop-color="#9C0600" stop-opacity="0" />
        </radialGradient>
        <radialGradient cx="0" cy="0" gradientTransform="translate(0.431724 15.7636) rotate(36.5187) scale(13.6093 13.6091)" gradientUnits="userSpaceOnUse"
            id="paint18_radial_575_2297"
            r="1">
            <stop stop-color="#EDA83A" />
            <stop offset="1" stop-color="#FFDC5E" />
        </radialGradient>
        <radialGradient cx="0" cy="0" gradientTransform="translate(32.641 16.3114) scale(18.1075)" gradientUnits="userSpaceOnUse"
            id="paint19_radial_575_2297"
            r="1">
            <stop stop-color="#EDA83A" />
            <stop offset="1" stop-color="#FFDC5E" />
        </radialGradient>
        <clipPath id="clip0_575_2297">
            <rect fill="white" height="32.7514" transform="translate(0.591064 0.475403)"
                width="32.7514" />
        </clipPath>
    </defs>
</svg>
