<svg fill="none" height="34" viewBox="0 0 34 34" width="34" xmlns="http://www.w3.org/2000/svg">
    <g clip-path="url(#clip0_575_2349)">
        <path
            d="M33.4783 16.8493C33.4783 18.9999 33.0547 21.1295 32.2317 23.1164C31.4087 25.1033 30.2024 26.9087 28.6817 28.4294C27.161 29.9501 25.3556 31.1564 23.3687 31.9794C21.3818 32.8024 19.2522 33.226 17.1016 33.226C14.951 33.226 12.8214 32.8024 10.8345 31.9794C8.84757 31.1564 7.04221 29.9501 5.52149 28.4294C4.00077 26.9087 2.79447 25.1033 1.97146 23.1164C1.14845 21.1295 0.724853 18.9999 0.724854 16.8493C0.724854 12.5059 2.45026 8.34041 5.52149 5.26917C8.59273 2.19794 12.7582 0.472534 17.1016 0.472534C21.445 0.472534 25.6105 2.19794 28.6817 5.26917C31.7529 8.34041 33.4783 12.5059 33.4783 16.8493Z"
            fill="url(#paint0_linear_575_2349)" />
        <g filter="url(#filter0_d_575_2349)">
            <path
                d="M11.3755 28.2136C11.3755 29.2944 13.9403 29.1225 17.107 29.1225C20.2716 29.1225 22.8385 29.2944 22.8385 28.2136C22.8385 26.9117 20.2716 26.0623 17.107 26.0623C13.9403 26.0623 11.3755 26.9117 11.3755 28.2136Z"
                fill="black" />
        </g>
        <path
            d="M11.3755 28.2136C11.3755 29.2944 13.9403 29.1225 17.107 29.1225C20.2716 29.1225 22.8385 29.2944 22.8385 28.2136C22.8385 26.9117 20.2716 26.0623 17.107 26.0623C13.9403 26.0623 11.3755 26.9117 11.3755 28.2136Z"
            fill="url(#paint1_linear_575_2349)" />
        <path
            d="M8.09439 20.5993C8.09439 18.9822 9.19566 17.6722 10.5508 17.6722C11.9079 17.6722 13.0071 18.9822 13.0071 20.5993C13.0071 21.2748 12.8167 21.8951 12.4913 22.3884C12.3392 22.6156 12.1065 22.7765 11.8403 22.8387C11.5333 22.9124 11.0768 22.9922 10.5508 22.9922C10.0247 22.9922 9.56616 22.9124 9.26116 22.8387C8.99471 22.7771 8.76186 22.616 8.61023 22.3884C8.26751 21.8551 8.08821 21.2332 8.09439 20.5993ZM21.195 20.5993C21.195 18.9822 22.2942 17.6722 23.6513 17.6722C25.0064 17.6722 26.1077 18.9822 26.1077 20.5993C26.1077 21.2748 25.9153 21.8951 25.5919 22.3884C25.4402 22.616 25.2074 22.7771 24.9409 22.8387C24.5172 22.9411 24.0853 22.9922 23.6513 22.9922C23.1253 22.9922 22.6688 22.9124 22.3617 22.8387C22.0943 22.7769 21.8602 22.616 21.7067 22.3884C21.3663 21.8543 21.1885 21.2327 21.195 20.5993Z"
            fill="url(#paint2_linear_575_2349)" />
        <g filter="url(#filter1_i_575_2349)">
            <path
                d="M8.09439 20.5993C8.09439 18.9822 9.19566 17.6722 10.5508 17.6722C11.9079 17.6722 13.0071 18.9822 13.0071 20.5993C13.0071 21.2748 12.8167 21.8951 12.4913 22.3884C12.3392 22.6156 12.1065 22.7765 11.8403 22.8387C11.5333 22.9124 11.0768 22.9922 10.5508 22.9922C10.0247 22.9922 9.56616 22.9124 9.26116 22.8387C8.99471 22.7771 8.76186 22.616 8.61023 22.3884C8.26751 21.8551 8.08821 21.2332 8.09439 20.5993ZM21.195 20.5993C21.195 18.9822 22.2942 17.6722 23.6513 17.6722C25.0064 17.6722 26.1077 18.9822 26.1077 20.5993C26.1077 21.2748 25.9153 21.8951 25.5919 22.3884C25.4402 22.616 25.2074 22.7771 24.9409 22.8387C24.5172 22.9411 24.0853 22.9922 23.6513 22.9922C23.1253 22.9922 22.6688 22.9124 22.3617 22.8387C22.0943 22.7769 21.8602 22.616 21.7067 22.3884C21.3663 21.8543 21.1885 21.2327 21.195 20.5993Z"
                fill="black" />
        </g>
        <path
            d="M10.8851 19.5782C10.895 19.6253 10.8998 19.6733 10.8994 19.7215C10.8994 20.1349 10.5391 20.4727 10.0929 20.4727C9.64872 20.4727 9.28845 20.1349 9.28845 19.7235C9.28845 19.5536 9.34986 19.396 9.45221 19.2711C9.91073 19.3796 10.3938 19.484 10.8851 19.5782ZM23.0174 20.4727C22.5855 20.4727 22.2335 20.1595 22.213 19.7603C22.7411 19.6826 23.2672 19.5864 23.7789 19.482C23.8076 19.5597 23.8219 19.6416 23.8199 19.7255C23.8199 20.1349 23.4616 20.4727 23.0154 20.4727H23.0174Z"
            fill="#4F4F67" />
        <g filter="url(#filter2_d_575_2349)">
            <path
                d="M19.1395 16.032C19.1395 15.119 19.4732 14.8038 20.0504 14.8038C20.6236 14.8038 20.8979 15.3687 21.0862 16.9858C23.3951 16.9858 27.3049 15.8928 27.6815 15.8928C28.0459 15.8928 28.2485 16.0667 28.3304 16.4393C28.402 16.7627 28.2833 17.0698 27.878 17.2581C26.6068 17.8456 22.8773 19.172 19.7229 19.172C19.379 19.172 19.1395 18.996 19.1395 18.5559V16.032ZM13.0989 16.9858C13.2852 15.3687 13.5615 14.8038 14.1347 14.8038C14.7119 14.8038 15.0456 15.119 15.0456 16.032V18.5559C15.0456 18.996 14.8061 19.172 14.4622 19.172C11.3078 19.172 7.57825 17.8456 6.30708 17.2581C5.90179 17.0698 5.78306 16.7627 5.85471 16.4393C5.93658 16.0667 6.14128 15.8928 6.50359 15.8928C6.88024 15.8928 10.7899 16.9858 13.0989 16.9858Z"
                fill="black" />
        </g>
        <path
            d="M19.1395 16.032C19.1395 15.119 19.4732 14.8038 20.0504 14.8038C20.6236 14.8038 20.8979 15.3687 21.0862 16.9858C23.3951 16.9858 27.3049 15.8928 27.6815 15.8928C28.0459 15.8928 28.2485 16.0667 28.3304 16.4393C28.402 16.7627 28.2833 17.0698 27.878 17.2581C26.6068 17.8456 22.8773 19.172 19.7229 19.172C19.379 19.172 19.1395 18.996 19.1395 18.5559V16.032ZM13.0989 16.9858C13.2852 15.3687 13.5615 14.8038 14.1347 14.8038C14.7119 14.8038 15.0456 15.119 15.0456 16.032V18.5559C15.0456 18.996 14.8061 19.172 14.4622 19.172C11.3078 19.172 7.57825 17.8456 6.30708 17.2581C5.90179 17.0698 5.78306 16.7627 5.85471 16.4393C5.93658 16.0667 6.14128 15.8928 6.50359 15.8928C6.88024 15.8928 10.7899 16.9858 13.0989 16.9858Z"
            fill="url(#paint3_linear_575_2349)" />
    </g>
    <defs>
        <filter color-interpolation-filters="sRGB" filterUnits="userSpaceOnUse" height="7.16418" id="filter0_d_575_2349" width="15.5569"
            x="9.32852" y="26.0623">
            <feFlood flood-opacity="0" result="BackgroundImageFix" />
            <feColorMatrix in="SourceAlpha" result="hardAlpha"
                type="matrix" values="0 0 0 0 0 0 0 0 0 0 0 0 0 0 0 0 0 0 127 0" />
            <feOffset dy="2.04697" />
            <feGaussianBlur stdDeviation="1.02348" />
            <feColorMatrix type="matrix"
                values="0 0 0 0 1 0 0 0 0 0.509681 0 0 0 0 0 0 0 0 0.371207 0" />
            <feBlend in2="BackgroundImageFix" mode="normal" result="effect1_dropShadow_575_2349" />
            <feBlend in="SourceGraphic" in2="effect1_dropShadow_575_2349" mode="normal"
                result="shape" />
        </filter>
        <filter color-interpolation-filters="sRGB" filterUnits="userSpaceOnUse" height="5.32007" id="filter1_i_575_2349" width="18.0134"
            x="8.09424" y="17.6722">
            <feFlood flood-opacity="0" result="BackgroundImageFix" />
            <feBlend in="SourceGraphic" in2="BackgroundImageFix" mode="normal" result="shape" />
            <feColorMatrix in="SourceAlpha" result="hardAlpha"
                type="matrix" values="0 0 0 0 0 0 0 0 0 0 0 0 0 0 0 0 0 0 127 0" />
            <feOffset />
            <feGaussianBlur stdDeviation="1.02348" />
            <feComposite in2="hardAlpha" k2="-1" k3="1" operator="arithmetic" />
            <feColorMatrix type="matrix"
                values="0 0 0 0 0.0387428 0 0 0 0 0.0406183 0 0 0 0 0.0875053 0 0 0 1 0" />
            <feBlend in2="shape" mode="normal" result="effect1_innerShadow_575_2349" />
        </filter>
        <filter color-interpolation-filters="sRGB" filterUnits="userSpaceOnUse" height="5.8011" id="filter2_d_575_2349" width="22.9243"
            x="5.63039" y="14.8038">
            <feFlood flood-opacity="0" result="BackgroundImageFix" />
            <feColorMatrix in="SourceAlpha" result="hardAlpha"
                type="matrix" values="0 0 0 0 0 0 0 0 0 0 0 0 0 0 0 0 0 0 127 0" />
            <feOffset dy="1.22818" />
            <feGaussianBlur stdDeviation="0.102348" />
            <feColorMatrix type="matrix"
                values="0 0 0 0 0.565875 0 0 0 0 0.151272 0 0 0 0 0 0 0 0 0.15024 0" />
            <feBlend in2="BackgroundImageFix" mode="normal" result="effect1_dropShadow_575_2349" />
            <feBlend in="SourceGraphic" in2="effect1_dropShadow_575_2349" mode="normal"
                result="shape" />
        </filter>
        <linearGradient gradientUnits="userSpaceOnUse" id="paint0_linear_575_2349" x1="17.1026" x2="17.1026"
            y1="0.473557" y2="22.4805">
            <stop stop-color="#E04300" />
            <stop offset="1" stop-color="#FFA320" />
        </linearGradient>
        <linearGradient gradientUnits="userSpaceOnUse" id="paint1_linear_575_2349" x1="17.107" x2="17.107"
            y1="26.4778" y2="29.1327">
            <stop stop-color="#3D0D00" />
            <stop offset="1" stop-color="#661C04" />
        </linearGradient>
        <linearGradient gradientUnits="userSpaceOnUse" id="paint2_linear_575_2349" x1="17.101" x2="17.101"
            y1="17.6701" y2="22.9922">
            <stop stop-color="#191A33" />
            <stop offset="0.872" stop-color="#3B426A" />
        </linearGradient>
        <linearGradient gradientUnits="userSpaceOnUse" id="paint3_linear_575_2349" x1="24.4923" x2="24.4923"
            y1="19.5793" y2="14.8038">
            <stop stop-color="#9A2F00" />
            <stop offset="1" stop-color="#D44800" />
        </linearGradient>
        <clipPath id="clip0_575_2349">
            <rect fill="white" height="32.7514" transform="translate(0.723999 0.475403)"
                width="32.7514" />
        </clipPath>
    </defs>
</svg>
