<svg fill="none" height="20" viewBox="0 0 20 20" width="20" xmlns="http://www.w3.org/2000/svg">
    <rect fill="#F04438" height="19" rx="9.5" transform="matrix(-1 0 0 1 20 1)" width="19" x="0.5"
        y="-0.5" />
    <rect height="19" rx="9.5" stroke="#F3F3F3" transform="matrix(-1 0 0 1 20 1)" width="19" x="0.5"
        y="-0.5" />
    <path
        d="M13.9283 5.6777C12.4379 4.76343 11.1007 5.12781 10.293 5.73443C10.1601 5.83422 10.0689 5.90252 10.001 5.94864C9.93309 5.90252 9.84189 5.83422 9.70899 5.73443C8.90124 5.12781 7.56409 4.76343 6.07364 5.6777C5.04299 6.30988 4.46309 7.63042 4.66659 9.14767C4.87104 10.6723 5.85784 12.3966 7.94764 13.9434C8.67334 14.4808 9.20594 14.8753 10.001 14.8753C10.796 14.8753 11.3286 14.4808 12.0543 13.9434C14.1441 12.3966 15.1309 10.6723 15.3354 9.14767C15.5389 7.63042 14.959 6.30988 13.9283 5.6777Z"
        fill="white" />
</svg>
