<svg fill="none" height="34" viewBox="0 0 34 34" width="34" xmlns="http://www.w3.org/2000/svg">
    <g clip-path="url(#clip0_575_2328)">
        <mask style="mask-type:luminance" height="34" id="mask0_575_2328" maskUnits="userSpaceOnUse" width="34"
            x="0" y="0">
            <path d="M0.651611 0.474731H33.403V33.2262H0.651611V0.474731Z" fill="white" />
        </mask>
        <g mask="url(#mask0_575_2328)">
            <path
                d="M33.4051 16.8498C33.4051 19.0004 32.9815 21.13 32.1585 23.1169C31.3355 25.1038 30.1292 26.9092 28.6085 28.4299C27.0877 29.9506 25.2824 31.1569 23.2955 31.9799C21.3085 32.8029 19.179 33.2265 17.0284 33.2265C14.8777 33.2265 12.7482 32.8029 10.7612 31.9799C8.77433 31.1569 6.96897 29.9506 5.44825 28.4299C3.92753 26.9092 2.72123 25.1038 1.89822 23.1169C1.07521 21.13 0.651611 19.0004 0.651611 16.8498C0.651611 12.5064 2.37701 8.3409 5.44825 5.26966C8.51948 2.19842 12.685 0.473022 17.0284 0.473022C21.3717 0.473022 25.5372 2.19842 28.6085 5.26966C31.6797 8.3409 33.4051 12.5064 33.4051 16.8498Z"
                fill="url(#paint0_linear_575_2328)" />
            <path
                d="M12.1999 22.7626C11.8764 26.5393 13.688 29.1328 17.0246 29.1328C20.3611 29.1328 22.1727 26.5393 21.8493 22.7626C21.5279 18.9839 19.5669 16.851 17.0246 16.851C14.4822 16.851 12.5212 18.9839 12.1999 22.7626Z"
                fill="url(#paint1_linear_575_2328)" />
            <path
                d="M7.81653 11.7332C7.81653 10.0383 8.96078 8.66272 10.3752 8.66272C11.7897 8.66272 12.9339 10.0383 12.9339 11.7332C12.9339 13.4301 11.7897 14.8036 10.3752 14.8036C8.96078 14.8036 7.81653 13.4301 7.81653 11.7332ZM21.1218 11.7332C21.1218 10.0383 22.2681 8.66272 23.6805 8.66272C25.095 8.66272 26.2392 10.0383 26.2392 11.7332C26.2392 13.4301 25.095 14.8036 23.6805 14.8036C22.2681 14.8036 21.1218 13.4301 21.1218 11.7332Z"
                fill="url(#paint2_linear_575_2328)" />
            <g filter="url(#filter0_i_575_2328)">
                <path
                    d="M7.81653 11.7332C7.81653 10.0383 8.96078 8.66272 10.3752 8.66272C11.7897 8.66272 12.9339 10.0383 12.9339 11.7332C12.9339 13.4301 11.7897 14.8036 10.3752 14.8036C8.96078 14.8036 7.81653 13.4301 7.81653 11.7332ZM21.1218 11.7332C21.1218 10.0383 22.2681 8.66272 23.6805 8.66272C25.095 8.66272 26.2392 10.0383 26.2392 11.7332C26.2392 13.4301 25.095 14.8036 23.6805 14.8036C22.2681 14.8036 21.1218 13.4301 21.1218 11.7332Z"
                    fill="black" />
            </g>
            <path
                d="M9.82589 9.82134C10.2066 9.90732 10.4195 10.3372 10.3008 10.7834C10.1841 11.2276 9.78085 11.5203 9.40012 11.4323C9.01938 11.3463 8.8065 10.9165 8.92522 10.4702C9.0419 10.0281 9.44515 9.73332 9.82589 9.82134ZM23.4566 9.9503C23.8763 10.0465 24.1137 10.5235 23.9847 11.0147C23.8537 11.5121 23.4075 11.8335 22.9817 11.7394C22.5621 11.6452 22.3226 11.1662 22.4536 10.6749C22.5826 10.1775 23.0309 9.85614 23.4566 9.9503Z"
                fill="#4E506A" />
            <g filter="url(#filter1_d_575_2328)">
                <path
                    d="M23.3099 3.94683C23.4163 3.9366 23.5228 3.9325 23.6312 3.9325C24.6281 3.9325 25.6577 4.35008 26.4397 5.0829C26.5267 5.166 26.5926 5.26874 26.6317 5.38252C26.6709 5.49629 26.6822 5.6178 26.6648 5.73686C26.6474 5.85592 26.6016 5.96907 26.5315 6.06683C26.4613 6.1646 26.3688 6.24414 26.2616 6.29879C26.1327 6.36132 25.9879 6.38306 25.8463 6.36112C25.7048 6.33917 25.5733 6.27459 25.4694 6.17598C24.9065 5.64377 24.1266 5.35719 23.4388 5.4186C23.2001 5.4367 22.9682 5.50693 22.7595 5.62435C22.5509 5.74177 22.3705 5.90351 22.2311 6.09819C22.1751 6.17405 22.1044 6.23795 22.0233 6.28613C21.9422 6.33431 21.8523 6.36581 21.7589 6.37877C21.6655 6.39174 21.5704 6.38591 21.4792 6.36163C21.3881 6.33735 21.3027 6.29511 21.2281 6.23739C21.0749 6.11622 20.9747 5.94025 20.9487 5.74662C20.9227 5.55299 20.973 5.35684 21.0889 5.19957C21.3468 4.84287 21.6788 4.54621 22.0622 4.32997C22.4456 4.11372 22.8712 3.98302 23.3099 3.94683ZM7.61989 5.0829C8.37931 4.36032 9.38028 3.95093 10.4283 3.9325C10.9231 3.9216 11.4131 4.03125 11.856 4.252C12.2989 4.47275 12.6815 4.79796 12.9707 5.19957C13.0865 5.35653 13.1372 5.55222 13.112 5.74567C13.0868 5.93912 12.9877 6.11533 12.8356 6.23739C12.7607 6.29549 12.675 6.33803 12.5835 6.36252C12.492 6.38701 12.3965 6.39294 12.3027 6.37997C12.2088 6.367 12.1185 6.33539 12.0371 6.287C11.9556 6.23861 11.8847 6.17441 11.8284 6.09819C11.6889 5.90389 11.5084 5.74254 11.2997 5.62548C11.0911 5.50842 10.8593 5.4385 10.6207 5.42065C9.935 5.35719 9.15306 5.64581 8.59015 6.17598C8.52119 6.24126 8.43974 6.29192 8.3507 6.32491C8.26166 6.3579 8.16687 6.37254 8.07202 6.36795C7.97718 6.36336 7.88424 6.33964 7.7988 6.2982C7.71336 6.25677 7.63718 6.19848 7.57485 6.12685C7.44589 5.9808 7.37853 5.79046 7.38693 5.5958C7.39533 5.40114 7.47882 5.2173 7.61989 5.0829Z"
                    fill="black" />
            </g>
            <path
                d="M23.3099 3.94683C23.4163 3.9366 23.5228 3.9325 23.6312 3.9325C24.6281 3.9325 25.6577 4.35008 26.4397 5.0829C26.5267 5.166 26.5926 5.26874 26.6317 5.38252C26.6709 5.49629 26.6822 5.6178 26.6648 5.73686C26.6474 5.85592 26.6016 5.96907 26.5315 6.06683C26.4613 6.1646 26.3688 6.24414 26.2616 6.29879C26.1327 6.36132 25.9879 6.38306 25.8463 6.36112C25.7048 6.33917 25.5733 6.27459 25.4694 6.17598C24.9065 5.64377 24.1266 5.35719 23.4388 5.4186C23.2001 5.4367 22.9682 5.50693 22.7595 5.62435C22.5509 5.74177 22.3705 5.90351 22.2311 6.09819C22.1751 6.17405 22.1044 6.23795 22.0233 6.28613C21.9422 6.33431 21.8523 6.36581 21.7589 6.37877C21.6655 6.39174 21.5704 6.38591 21.4792 6.36163C21.3881 6.33735 21.3027 6.29511 21.2281 6.23739C21.0749 6.11622 20.9747 5.94025 20.9487 5.74662C20.9227 5.55299 20.973 5.35684 21.0889 5.19957C21.3468 4.84287 21.6788 4.54621 22.0622 4.32997C22.4456 4.11372 22.8712 3.98302 23.3099 3.94683ZM7.61989 5.0829C8.37931 4.36032 9.38028 3.95093 10.4283 3.9325C10.9231 3.9216 11.4131 4.03125 11.856 4.252C12.2989 4.47275 12.6815 4.79796 12.9707 5.19957C13.0865 5.35653 13.1372 5.55222 13.112 5.74567C13.0868 5.93912 12.9877 6.11533 12.8356 6.23739C12.7607 6.29549 12.675 6.33803 12.5835 6.36252C12.492 6.38701 12.3965 6.39294 12.3027 6.37997C12.2088 6.367 12.1185 6.33539 12.0371 6.287C11.9556 6.23861 11.8847 6.17441 11.8284 6.09819C11.6889 5.90389 11.5084 5.74254 11.2997 5.62548C11.0911 5.50842 10.8593 5.4385 10.6207 5.42065C9.935 5.35719 9.15306 5.64581 8.59015 6.17598C8.52119 6.24126 8.43974 6.29192 8.3507 6.32491C8.26166 6.3579 8.16687 6.37254 8.07202 6.36795C7.97718 6.36336 7.88424 6.33964 7.7988 6.2982C7.71336 6.25677 7.63718 6.19848 7.57485 6.12685C7.44589 5.9808 7.37853 5.79046 7.38693 5.5958C7.39533 5.40114 7.47882 5.2173 7.61989 5.0829Z"
                fill="url(#paint3_linear_575_2328)" />
        </g>
    </g>
    <defs>
        <filter color-interpolation-filters="sRGB" filterUnits="userSpaceOnUse" height="6.14087" id="filter0_i_575_2328" width="18.4227"
            x="7.81653" y="8.66272">
            <feFlood flood-opacity="0" result="BackgroundImageFix" />
            <feBlend in="SourceGraphic" in2="BackgroundImageFix" mode="normal" result="shape" />
            <feColorMatrix in="SourceAlpha" result="hardAlpha"
                type="matrix" values="0 0 0 0 0 0 0 0 0 0 0 0 0 0 0 0 0 0 127 0" />
            <feOffset />
            <feGaussianBlur stdDeviation="1.02348" />
            <feComposite in2="hardAlpha" k2="-1" k3="1" operator="arithmetic" />
            <feColorMatrix type="matrix"
                values="0 0 0 0 0.0980392 0 0 0 0 0.101961 0 0 0 0 0.2 0 0 0 0.819684 0" />
            <feBlend in2="shape" mode="normal" result="effect1_innerShadow_575_2328" />
        </filter>
        <filter color-interpolation-filters="sRGB" filterUnits="userSpaceOnUse" height="14.7367" id="filter1_d_575_2328" width="31.5683"
            x="1.24534" y="-0.162168">
            <feFlood flood-opacity="0" result="BackgroundImageFix" />
            <feColorMatrix in="SourceAlpha" result="hardAlpha"
                type="matrix" values="0 0 0 0 0 0 0 0 0 0 0 0 0 0 0 0 0 0 127 0" />
            <feOffset dy="2.04697" />
            <feGaussianBlur stdDeviation="3.07045" />
            <feColorMatrix type="matrix"
                values="0 0 0 0 0.803922 0 0 0 0 0.388235 0 0 0 0 0.00392157 0 0 0 0.145679 0" />
            <feBlend in2="BackgroundImageFix" mode="normal" result="effect1_dropShadow_575_2328" />
            <feBlend in="SourceGraphic" in2="effect1_dropShadow_575_2328" mode="normal"
                result="shape" />
        </filter>
        <linearGradient gradientUnits="userSpaceOnUse" id="paint0_linear_575_2328" x1="17.0294" x2="17.0294"
            y1="3.83107" y2="33.2255">
            <stop stop-color="#FEEA70" />
            <stop offset="1" stop-color="#F69B30" />
        </linearGradient>
        <linearGradient gradientUnits="userSpaceOnUse" id="paint1_linear_575_2328" x1="17.0246" x2="17.0246"
            y1="16.851" y2="29.1328">
            <stop stop-color="#472315" />
            <stop offset="1" stop-color="#8B3A0E" />
        </linearGradient>
        <linearGradient gradientUnits="userSpaceOnUse" id="paint2_linear_575_2328" x1="17.0279" x2="17.0279"
            y1="8.66272" y2="14.8036">
            <stop stop-color="#191A33" />
            <stop offset="0.872" stop-color="#3B426A" />
        </linearGradient>
        <linearGradient gradientUnits="userSpaceOnUse" id="paint3_linear_575_2328" x1="17.0298" x2="17.0298"
            y1="3.93046" y2="6.38681">
            <stop stop-color="#E78E0D" />
            <stop offset="1" stop-color="#CB6000" />
        </linearGradient>
        <clipPath id="clip0_575_2328">
            <rect fill="white" height="32.7514" transform="translate(0.657471 0.475403)"
                width="32.7514" />
        </clipPath>
    </defs>
</svg>
