<svg fill="none" height="34" viewBox="0 0 34 34" width="34" xmlns="http://www.w3.org/2000/svg">
    <g clip-path="url(#clip0_575_2323)">
        <path
            d="M33.3787 16.8493C33.3787 18.9999 32.9551 21.1295 32.1321 23.1164C31.3091 25.1033 30.1028 26.9087 28.5821 28.4294C27.0614 29.9501 25.256 31.1564 23.2691 31.9794C21.2822 32.8024 19.1526 33.226 17.002 33.226C14.8514 33.226 12.7218 32.8024 10.7349 31.9794C8.74796 31.1564 6.9426 29.9501 5.42188 28.4294C3.90116 26.9087 2.69486 25.1033 1.87185 23.1164C1.04884 21.1295 0.625244 18.9999 0.625244 16.8493C0.625244 12.5059 2.35065 8.34041 5.42188 5.26917C8.49312 2.19794 12.6586 0.472534 17.002 0.472534C21.3454 0.472534 25.5109 2.19794 28.5821 5.26917C31.6533 8.34041 33.3787 12.5059 33.3787 16.8493Z"
            fill="url(#paint0_linear_575_2323)" />
        <path
            d="M6.76819 16.8671C6.76819 20.9917 8.82744 29.1325 17.003 29.1325C25.1765 29.1325 27.2378 20.9917 27.2378 16.8671C27.2378 16.5416 23.9422 14.8038 17.003 14.8038C10.0638 14.8038 6.76819 16.5416 6.76819 16.8671Z"
            fill="url(#paint1_linear_575_2323)" />
        <path
            d="M9.90967 26.0612C11.5554 28.098 13.8132 29.1317 17.0106 29.1317C20.21 29.1317 22.4453 28.098 24.091 26.0612C22.9632 24.8576 20.8179 22.9908 17.0106 22.9908C13.2032 22.9908 11.0396 24.8576 9.90967 26.0612Z"
            fill="url(#paint2_linear_575_2323)" />
        <path
            d="M13.345 8.95676C13.8834 9.34159 14.3726 9.88813 14.1843 10.5698C14.0389 11.0897 13.7872 11.3251 13.3205 11.3271C11.7238 11.3517 9.82424 11.8512 8.19077 12.5819C8.05771 12.6413 7.78751 12.7621 7.51117 12.7559C7.25735 12.7498 6.99739 12.6372 6.84182 12.2708C6.70467 11.9494 6.69239 11.4766 7.40678 11.0467C8.52237 10.3712 9.97981 10.0642 11.3144 9.81035C10.4752 9.19012 9.57451 8.66405 8.62268 8.23828C7.74862 7.84117 7.84483 7.30281 7.96151 7.0101C8.22147 6.36121 9.20811 6.60889 10.1681 7.06332C11.2879 7.58631 12.3523 8.22065 13.345 8.95676ZM20.667 8.95676C21.6581 8.22037 22.7211 7.586 23.8398 7.06332C24.8019 6.60889 25.7844 6.36121 26.0464 7.0101C26.1631 7.30281 26.2593 7.84117 25.3853 8.23828C24.4351 8.66352 23.534 9.19063 22.6976 9.81035C24.0281 10.0621 25.4876 10.3712 26.6012 11.0467C27.3156 11.4766 27.3012 11.9474 27.1661 12.2708C27.0085 12.6393 26.7506 12.7498 26.4968 12.7559C26.2204 12.7621 25.9502 12.6413 25.8172 12.5819C24.1857 11.8512 22.2862 11.3538 20.6916 11.3292C20.2249 11.3251 19.9731 11.0897 19.8278 10.5718C19.6415 9.89018 20.1287 9.34159 20.667 8.95676Z"
            fill="#2A3755" />
    </g>
    <defs>
        <linearGradient gradientUnits="userSpaceOnUse" id="paint0_linear_575_2323" x1="17.003" x2="17.003" y1="3.83058"
            y2="33.225">
            <stop stop-color="#FEEA70" />
            <stop offset="1" stop-color="#F69B30" />
        </linearGradient>
        <linearGradient gradientUnits="userSpaceOnUse" id="paint1_linear_575_2323" x1="17.003" x2="17.003"
            y1="14.8038" y2="29.1325">
            <stop stop-color="#472315" />
            <stop offset="1" stop-color="#8B3A0E" />
        </linearGradient>
        <linearGradient gradientUnits="userSpaceOnUse" id="paint2_linear_575_2323" x1="17.0004" x2="17.0004"
            y1="22.9908" y2="28.0202">
            <stop stop-color="#FC607C" />
            <stop offset="1" stop-color="#D91F3A" />
        </linearGradient>
        <clipPath id="clip0_575_2323">
            <rect fill="white" height="32.7514" transform="translate(0.624268 0.475403)"
                width="32.7514" />
        </clipPath>
    </defs>
</svg>
