<svg fill="none" height="34" viewBox="0 0 34 34" width="34" xmlns="http://www.w3.org/2000/svg">
    <g clip-path="url(#clip0_575_2294)">
        <path
            d="M16.9372 0.47522C12.5941 0.47522 8.4289 2.20051 5.35786 5.27156C2.28682 8.3426 0.561523 12.5078 0.561523 16.8509C0.561523 21.194 2.28682 25.3593 5.35786 28.4303C8.4289 31.5014 12.5941 33.2267 16.9372 33.2267C21.2804 33.2267 25.4456 31.5014 28.5166 28.4303C31.5877 25.3593 33.313 21.194 33.313 16.8509C33.313 12.5078 31.5877 8.3426 28.5166 5.27156C25.4456 2.20051 21.2804 0.47522 16.9372 0.47522Z"
            fill="url(#paint0_linear_575_2294)" />
        <path
            d="M21.9999 8.66223C17.5007 8.66223 16.9378 12.3959 16.9378 12.3959C16.9378 12.3959 16.3769 8.66223 11.8777 8.66223C7.55039 8.66223 6.28946 13.2106 6.81758 15.6424C8.20951 22.0699 16.9378 26.5732 16.9378 26.5732C16.9378 26.5732 25.6681 22.0699 27.06 15.6424C27.5861 13.2106 26.3231 8.66223 21.9999 8.66223Z"
            fill="white" />
    </g>
    <defs>
        <linearGradient gradientUnits="userSpaceOnUse" id="paint0_linear_575_2294" x1="16.9372" x2="16.9372"
            y1="0.47522" y2="33.2267">
            <stop stop-color="#FF6680" />
            <stop offset="1" stop-color="#E61739" />
        </linearGradient>
        <clipPath id="clip0_575_2294">
            <rect fill="white" height="32.7514" transform="translate(0.557861 0.475403)"
                width="32.7514" />
        </clipPath>
    </defs>
</svg>
