<svg fill="none" height="20" viewBox="0 0 20 20" width="20" xmlns="http://www.w3.org/2000/svg">
    <rect fill="#6662FF" height="19" rx="9.5" width="19" x="0.5" y="0.5" />
    <rect height="19" rx="9.5" stroke="#F3F3F3" width="19" x="0.5" y="0.5" />
    <path
        d="M5 10.25C5 9.6977 5.44772 9.25 6 9.25C6.82843 9.25 7.5 9.92155 7.5 10.75V12.75C7.5 13.5785 6.82843 14.25 6 14.25C5.44772 14.25 5 13.8023 5 13.25V10.25Z"
        stroke="white" stroke-linecap="round" stroke-linejoin="round" stroke-width="0.875" />
    <path
        d="M11.7394 7.90313L11.6062 8.33317C11.4971 8.68556 11.4426 8.86175 11.4845 9.0009C11.5185 9.11345 11.593 9.2105 11.6945 9.27435C11.82 9.35325 12.0099 9.35325 12.3896 9.35325H12.5916C13.8766 9.35325 14.5191 9.35325 14.8226 9.73365C14.8573 9.7771 14.8881 9.82335 14.9148 9.87185C15.1483 10.2961 14.8829 10.8676 14.352 12.0106C13.8649 13.0595 13.6213 13.5839 13.169 13.8926C13.1253 13.9225 13.0803 13.9507 13.0342 13.9771C12.558 14.25 11.9681 14.25 10.7882 14.25H10.5323C9.10285 14.25 8.38814 14.25 7.94407 13.8198C7.5 13.3895 7.5 12.697 7.5 11.312V10.8252C7.5 10.0973 7.5 9.7334 7.62917 9.4003C7.75834 9.0672 8.00568 8.79332 8.50035 8.24556L10.5461 5.98028C10.5974 5.92347 10.623 5.89506 10.6457 5.87538C10.8568 5.69164 11.1826 5.71232 11.3672 5.92118C11.387 5.94355 11.4086 5.97496 11.4518 6.03777C11.5194 6.13603 11.5532 6.18516 11.5827 6.23383C11.8464 6.66957 11.9262 7.18718 11.8054 7.67858C11.7919 7.73346 11.7744 7.79005 11.7394 7.90313Z"
        stroke="white" stroke-linecap="round" stroke-linejoin="round" stroke-width="0.875" />
</svg>
