<svg fill="none" height="34" viewBox="0 0 34 34" width="34" xmlns="http://www.w3.org/2000/svg">
    <g clip-path="url(#clip0_575_2340)">
        <path
            d="M33.4426 16.8493C33.4426 18.9999 33.019 21.1295 32.196 23.1164C31.373 25.1033 30.1667 26.9087 28.6459 28.4294C27.1252 29.9501 25.3199 31.1564 23.3329 31.9794C21.346 32.8024 19.2165 33.226 17.0658 33.226C14.9152 33.226 12.7856 32.8024 10.7987 31.9794C8.8118 31.1564 7.00645 29.9501 5.48572 28.4294C3.965 26.9087 2.7587 25.1033 1.93569 23.1164C1.11268 21.1295 0.689087 18.9999 0.689087 16.8493C0.689087 12.5059 2.41449 8.34041 5.48572 5.26917C8.55696 2.19794 12.7224 0.472534 17.0658 0.472534C21.4092 0.472534 25.5747 2.19794 28.6459 5.26917C31.7172 8.34041 33.4426 12.5059 33.4426 16.8493Z"
            fill="url(#paint0_linear_575_2340)" />
        <path
            d="M11.6086 26.6037C11.6086 26.8841 11.8011 27.0847 12.1204 27.0847C12.8389 27.0847 13.8316 25.8054 17.0679 25.8054C20.3041 25.8054 21.299 27.0847 22.0154 27.0847C22.3347 27.0847 22.5272 26.8841 22.5272 26.6037C22.5272 25.791 20.8097 22.9908 17.0679 22.9908C13.326 22.9908 11.6086 25.791 11.6086 26.6037Z"
            fill="url(#paint1_linear_575_2340)" />
        <path
            d="M8.06067 18.4878C8.06067 16.8297 9.10257 15.4869 10.3819 15.4869C11.6654 15.4869 12.7032 16.8297 12.7032 18.4878C12.7032 19.1797 12.519 19.8183 12.216 20.326C12.0797 20.555 11.8581 20.7206 11.5999 20.7865C11.3133 20.8623 10.8773 20.9441 10.3819 20.9441C9.88451 20.9441 9.45465 20.8623 9.16398 20.7865C8.90631 20.7205 8.68542 20.5548 8.54989 20.326C8.22257 19.7691 8.05481 19.1337 8.06067 18.4878ZM21.4355 18.4878C21.4355 16.8297 22.4754 15.4869 23.7547 15.4869C25.0382 15.4869 26.076 16.8297 26.076 18.4878C26.076 19.1797 25.8918 19.8183 25.5888 20.326C25.5215 20.4395 25.4324 20.5386 25.3267 20.6177C25.2209 20.6967 25.1006 20.7541 24.9727 20.7865C24.1744 20.9933 23.3351 20.9933 22.5368 20.7865C22.2791 20.7205 22.0582 20.5548 21.9227 20.326C21.5967 19.7687 21.4283 19.1333 21.4355 18.4878Z"
            fill="url(#paint2_linear_575_2340)" />
        <g filter="url(#filter0_i_575_2340)">
            <path
                d="M8.06067 18.4878C8.06067 16.8297 9.10257 15.4869 10.3819 15.4869C11.6654 15.4869 12.7032 16.8297 12.7032 18.4878C12.7032 19.1797 12.519 19.8183 12.216 20.326C12.0797 20.555 11.8581 20.7206 11.5999 20.7865C11.3133 20.8623 10.8773 20.9441 10.3819 20.9441C9.88451 20.9441 9.45465 20.8623 9.16398 20.7865C8.90631 20.7205 8.68542 20.5548 8.54989 20.326C8.22257 19.7691 8.05481 19.1337 8.06067 18.4878ZM21.4355 18.4878C21.4355 16.8297 22.4754 15.4869 23.7547 15.4869C25.0382 15.4869 26.076 16.8297 26.076 18.4878C26.076 19.1797 25.8918 19.8183 25.5888 20.326C25.5215 20.4395 25.4324 20.5386 25.3267 20.6177C25.2209 20.6967 25.1006 20.7541 24.9727 20.7865C24.1744 20.9933 23.3351 20.9933 22.5368 20.7865C22.2791 20.7205 22.0582 20.5548 21.9227 20.326C21.5967 19.7687 21.4283 19.1333 21.4355 18.4878Z"
                fill="black" />
        </g>
        <path
            d="M10.1371 16.8213C10.3992 17.0772 10.4155 17.5828 10.1719 17.9471C9.9263 18.3135 9.51691 18.4036 9.2549 18.1457C8.99289 17.8898 8.97856 17.3842 9.2201 17.0198C9.46574 16.6514 9.87513 16.5654 10.1371 16.8213ZM23.4199 16.8213C23.6819 17.0772 23.6983 17.5828 23.4567 17.9471C23.2111 18.3135 22.8017 18.4036 22.5356 18.1457C22.2756 17.8898 22.2613 17.3842 22.5049 17.0198C22.7485 16.6514 23.1579 16.5654 23.4199 16.8213Z"
            fill="#4E506A" />
        <path
            d="M9.20067 11.0221C9.88027 10.7089 10.4207 10.5718 10.8403 10.5718C11.4073 10.5718 11.7635 10.8174 11.9661 11.2002C12.3243 11.8736 12.1626 12.019 11.5608 12.1398C9.29688 12.5983 7.0227 14.068 6.03607 14.985C5.42198 15.5582 4.8304 14.9236 5.14359 14.4242C5.45882 13.9247 6.72794 12.1623 9.20067 11.0221ZM22.1682 11.2002C22.3729 10.8174 22.727 10.5738 23.294 10.5738C23.7157 10.5738 24.2561 10.7089 24.9336 11.0221C27.4064 12.1623 28.6755 13.9247 28.9887 14.4242C29.3019 14.9236 28.7144 15.5582 28.0983 14.985C27.1096 14.068 24.8374 12.5983 22.5714 12.1398C21.9696 12.021 21.8141 11.8757 22.1682 11.2002Z"
            fill="url(#paint3_linear_575_2340)" />
        <path
            d="M28.3206 33.2264C26.6257 33.2264 25.2501 31.6952 25.2501 29.8059C25.2501 27.9186 25.9788 26.6433 26.5663 25.4111C27.7904 22.836 28.0319 22.4798 28.3206 22.4798C28.6092 22.4798 28.8507 22.836 30.0748 25.4111C30.6623 26.6433 31.391 27.9186 31.391 29.8059C31.391 31.6952 30.0155 33.2264 28.3206 33.2264Z"
            fill="url(#paint4_linear_575_2340)" />
        <path
            d="M28.3164 28.3269C27.645 28.3269 27.1005 27.721 27.1005 26.9759C27.1005 26.2267 27.3891 25.7211 27.6224 25.2319C28.1055 24.2125 28.2017 24.0733 28.3184 24.0733C28.431 24.0733 28.5272 24.2125 29.0103 25.2319C29.2436 25.7232 29.5323 26.2267 29.5323 26.9739C29.5323 27.721 28.9878 28.3269 28.3164 28.3269Z"
            fill="url(#paint5_linear_575_2340)" />
    </g>
    <defs>
        <filter color-interpolation-filters="sRGB" filterUnits="userSpaceOnUse" height="5.45721" id="filter0_i_575_2340" width="18.0155"
            x="8.06055" y="15.4869">
            <feFlood flood-opacity="0" result="BackgroundImageFix" />
            <feBlend in="SourceGraphic" in2="BackgroundImageFix" mode="normal" result="shape" />
            <feColorMatrix in="SourceAlpha" result="hardAlpha"
                type="matrix" values="0 0 0 0 0 0 0 0 0 0 0 0 0 0 0 0 0 0 127 0" />
            <feOffset />
            <feGaussianBlur stdDeviation="1.02348" />
            <feComposite in2="hardAlpha" k2="-1" k3="1" operator="arithmetic" />
            <feColorMatrix type="matrix"
                values="0 0 0 0 0.0411227 0 0 0 0 0.0430885 0 0 0 0 0.0922353 0 0 0 0.819684 0" />
            <feBlend in2="shape" mode="normal" result="effect1_innerShadow_575_2340" />
        </filter>
        <linearGradient gradientUnits="userSpaceOnUse" id="paint0_linear_575_2340" x1="17.0669" x2="17.0669"
            y1="3.83058" y2="33.225">
            <stop stop-color="#FEEA70" />
            <stop offset="1" stop-color="#F69B30" />
        </linearGradient>
        <linearGradient gradientUnits="userSpaceOnUse" id="paint1_linear_575_2340" x1="17.0679" x2="17.0679"
            y1="22.9908" y2="27.0847">
            <stop stop-color="#472315" />
            <stop offset="1" stop-color="#8B3A0E" />
        </linearGradient>
        <linearGradient gradientUnits="userSpaceOnUse" id="paint2_linear_575_2340" x1="17.0673" x2="17.0673"
            y1="15.4869" y2="20.9441">
            <stop stop-color="#191A33" />
            <stop offset="0.872" stop-color="#3B426A" />
        </linearGradient>
        <linearGradient gradientUnits="userSpaceOnUse" id="paint3_linear_575_2340" x1="17.0672" x2="17.0672"
            y1="10.5738" y2="15.2102">
            <stop stop-color="#E78E0D" />
            <stop offset="1" stop-color="#CB6000" />
        </linearGradient>
        <linearGradient gradientUnits="userSpaceOnUse" id="paint4_linear_575_2340" x1="28.3206" x2="28.3206"
            y1="31.2817" y2="24.408">
            <stop stop-color="#35CAFC" />
            <stop offset="1" stop-color="#007EDB" />
        </linearGradient>
        <linearGradient gradientUnits="userSpaceOnUse" id="paint5_linear_575_2340" x1="28.3164" x2="28.3164"
            y1="24.0733" y2="28.3269">
            <stop stop-color="#6AE1FF" stop-opacity="0.287" />
            <stop offset="1" stop-color="#A8E3FF" stop-opacity="0.799" />
        </linearGradient>
        <clipPath id="clip0_575_2340">
            <rect fill="white" height="32.7514" transform="translate(0.690796 0.475403)"
                width="32.7514" />
        </clipPath>
    </defs>
</svg>
