<svg fill="none" height="140" viewBox="0 0 141 140" width="141" xmlns="http://www.w3.org/2000/svg">
    <g clip-path="url(#clip0_4429_57861)" id="Empty">
        <g id="Group">
            <g id="Group_2">
                <g id="Group_3">
                    <g id="Group_4">
                        <path d="M137.573 102.438V118.852C137.573 120.803 135.994 122.382 134.043 122.382H7.70739C5.75668 122.382 4.17758 120.803 4.17758 118.852V102.438C4.17758 102.063 4.23582 101.691 4.35532 101.336L22.2291 47.0426C22.7035 45.5939 24.0551 44.6172 25.5814 44.6172H116.169C117.696 44.6172 119.047 45.5939 119.522 47.0426L137.396 101.336C137.515 101.691 137.573 102.063 137.573 102.438Z"
                            fill="#9E9797"
                            id="Vector" />
                        <path d="M137.573 102.438V118.852C137.573 120.803 135.994 122.382 134.043 122.382H112.819C112.747 97.3595 113.133 56.0614 113.247 44.6172H116.169C117.695 44.6172 119.047 45.5939 119.521 47.0426L137.395 101.336C137.514 101.691 137.573 102.063 137.573 102.438Z"
                            fill="#B9ACAC"
                            id="Vector_2" />
                        <path d="M4.17676 102.438V118.852C4.17676 120.803 5.75586 122.382 7.70656 122.382H28.93C29.0021 97.3595 28.6163 56.0614 28.5026 44.6172H25.5806C24.0543 44.6172 22.703 45.5939 22.2283 47.0426L4.35449 101.336C4.23527 101.691 4.17676 102.063 4.17676 102.438Z"
                            fill="#B9ACAC"
                            id="Vector_3" />
                        <path d="M124.162 101.334L113.278 68.2733C112.801 66.8257 111.45 65.8477 109.925 65.8477H31.8243C30.3004 65.8477 28.9486 66.8257 28.472 68.2733L17.588 101.334C17.4707 101.69 17.4111 102.063 17.4111 102.437V118.852C17.4111 120.801 18.9913 122.381 20.9404 122.381H120.81C122.759 122.381 124.339 120.801 124.339 118.852V102.437C124.339 102.063 124.279 101.69 124.162 101.334Z"
                            fill="#756F6F"
                            id="Vector_4" />
                        <path d="M70.8757 95.1052C85.1249 95.1052 96.6761 91.8575 96.6761 87.8514C96.6761 83.8453 85.1249 80.5977 70.8757 80.5977C56.6265 80.5977 45.0752 83.8453 45.0752 87.8514C45.0752 91.8575 56.6265 95.1052 70.8757 95.1052Z"
                            fill="#5B5555"
                            id="Vector_5" />
                        <path d="M124.339 102.439V118.853C124.339 120.801 122.758 122.382 120.81 122.382H108.531C110.48 122.382 112.061 120.801 112.061 118.853V102.439C112.061 102.064 112.001 101.69 111.884 101.334L101 68.2722C100.524 66.8252 99.1719 65.8477 97.6475 65.8477H109.926C111.45 65.8477 112.802 66.8252 113.278 68.2722L124.162 101.334C124.279 101.69 124.339 102.064 124.339 102.439Z"
                            fill="#5B5555"
                            id="Vector_6" />
                        <path d="M137.574 105.846V136.472C137.574 138.421 135.994 140.001 134.045 140.001H7.70602C5.75695 140.001 4.17676 138.421 4.17676 136.472V105.846C4.17676 103.897 5.75695 102.316 7.70602 102.316H33.7638C35.1124 102.316 36.3431 103.085 36.9351 104.297L42.0555 114.781C42.6472 115.993 43.878 116.762 45.2268 116.762H96.5237C97.8723 116.762 99.1031 115.993 99.695 114.781L104.815 104.297C105.407 103.085 106.638 102.316 107.987 102.316H134.045C135.994 102.316 137.574 103.897 137.574 105.846Z"
                            fill="#31A7FB"
                            id="Vector_7" />
                        <path d="M137.573 105.846V136.472C137.573 138.42 135.992 140.001 134.044 140.001H120.605C122.554 140.001 124.135 138.42 124.135 136.472V105.846C124.135 103.898 122.554 102.316 120.605 102.316H134.044C135.992 102.316 137.573 103.898 137.573 105.846Z"
                            fill="#1C96F9"
                            id="Vector_8" />
                        <g id="Group_5">
                            <path d="M22.4113 132.479H14.795C13.6455 132.479 12.7139 131.547 12.7139 130.398C12.7139 129.248 13.6457 128.316 14.795 128.316H22.4113C23.5609 128.316 24.4925 129.248 24.4925 130.398C24.4925 131.547 23.5609 132.479 22.4113 132.479Z"
                                fill="#F8F3F1"
                                id="Vector_9" />
                            <path d="M22.4113 125.977H14.795C13.6455 125.977 12.7139 125.045 12.7139 123.896C12.7139 122.746 13.6457 121.814 14.795 121.814H22.4113C23.5609 121.814 24.4925 122.746 24.4925 123.896C24.4927 125.045 23.5609 125.977 22.4113 125.977Z"
                                fill="#F8F3F1"
                                id="Vector_10" />
                        </g>
                    </g>
                    <g id="Group_6">
                        <path d="M70.8757 88.7359C84.213 88.7359 95.0249 77.9239 95.0249 64.5867C95.0249 51.2495 84.213 40.4375 70.8757 40.4375C57.5385 40.4375 46.7266 51.2495 46.7266 64.5867C46.7266 77.9239 57.5385 88.7359 70.8757 88.7359Z"
                            fill="#A3E440"
                            id="Vector_11" />
                        <path d="M95.0243 64.585C95.0243 77.923 84.2118 88.7356 70.8768 88.7356C69.2556 88.7356 67.671 88.5762 66.1387 88.2696C77.2058 86.066 85.5451 76.2986 85.5451 64.585C85.5451 52.8715 77.2058 43.1071 66.1387 40.9034C67.671 40.5969 69.2556 40.4375 70.8768 40.4375C84.2118 40.4375 95.0243 51.247 95.0243 64.585Z"
                            fill="#99D53B"
                            id="Vector_12" />
                        <g id="Group_7">
                            <path d="M75.6747 73.8572C75.1967 73.8572 74.7166 73.6934 74.3245 73.359C73.3718 72.5458 72.0134 72.0771 70.597 72.0727C70.5907 72.0727 70.5841 72.0727 70.5775 72.0727C69.1685 72.0727 67.8156 72.5329 66.8624 73.3366C65.9838 74.0778 64.6705 73.966 63.9297 73.0872C63.1887 72.2083 63.3003 70.8956 64.1791 70.1546C65.9037 68.6999 68.1915 67.905 70.6098 67.9102C73.0322 67.9176 75.311 68.7283 77.0271 70.1928C77.9013 70.9391 78.0052 72.2529 77.259 73.1271C76.8469 73.6094 76.2626 73.8572 75.6747 73.8572Z"
                                fill="#82B732"
                                id="Vector_13" />
                            <g id="Group_8">
                                <g id="Group_9">
                                    <path d="M59.4007 64.2602C59.3968 64.2602 59.393 64.2602 59.3889 64.2602C58.2394 64.2539 57.3004 63.3171 57.3067 62.1676C57.313 61.018 58.2372 60.1048 59.387 60.0977H59.4119C60.5614 60.1039 61.4881 61.0407 61.4818 62.1903C61.4755 63.3357 60.5447 64.2602 59.4007 64.2602Z"
                                        fill="#82B732"
                                        id="Vector_14" />
                                </g>
                            </g>
                        </g>
                    </g>
                    <g id="Group_10">
                        <path d="M29.8359 22.0664C29.8359 17.9673 33.1587 14.6445 37.2579 14.6445C41.357 14.6445 44.6795 17.9673 44.6795 22.0664C44.6795 26.1655 41.3567 29.4884 37.2576 29.4884C33.1585 29.4884 29.8359 26.1655 29.8359 22.0664Z"
                            fill="#BCEA73"
                            id="Vector_15" />
                        <path d="M33.4932 28.4621C36.4066 27.7906 38.5772 25.1825 38.5772 22.0656C38.5772 18.952 36.4099 16.3404 33.4964 15.6688C34.5987 15.0175 35.8841 14.6445 37.2579 14.6445C41.355 14.6445 44.6787 17.9684 44.6787 22.0656C44.6787 26.1661 41.3548 29.49 37.2579 29.49C35.8841 29.49 34.5954 29.1168 33.4932 28.4621Z"
                            fill="#99D53B"
                            id="Vector_16" />
                    </g>
                    <g id="Group_11">
                        <path d="M61.3387 0.609697C60.5261 -0.203232 59.2084 -0.203232 58.3954 0.609697L56.713 2.29216L55.0305 0.609697C54.2179 -0.202959 52.8999 -0.202959 52.0872 0.609697C51.2743 1.42235 51.2743 2.74032 52.0872 3.55298L53.7697 5.23544L52.0872 6.9179C51.2743 7.73056 51.2743 9.04852 52.0872 9.86118C52.4936 10.2678 53.0262 10.4707 53.5589 10.4707C54.0913 10.4707 54.6242 10.2675 55.0305 9.86118L56.713 8.17872L58.3954 9.86118C58.8018 10.2675 59.3344 10.4707 59.8671 10.4707C60.3997 10.4707 60.9324 10.2675 61.3387 9.86118C62.1517 9.04852 62.1517 7.73056 61.3387 6.9179L59.6563 5.23544L61.3387 3.55298C62.1517 2.74005 62.1517 1.42235 61.3387 0.609697Z"
                            fill="#64B9FC"
                            id="Vector_17" />
                        <path d="M106.73 25.6591L108.412 23.9766C109.225 23.1639 109.225 21.846 108.412 21.0333C107.599 20.2207 106.281 20.2207 105.469 21.0333L103.786 22.7158L102.104 21.0333C101.291 20.2207 99.9731 20.2207 99.1605 21.0333C98.3475 21.846 98.3475 23.1639 99.1605 23.9766L100.843 25.6591L99.1605 27.3415C98.3475 28.1542 98.3475 29.4721 99.1605 30.2848C99.5668 30.6911 100.099 30.8943 100.632 30.8943C101.165 30.8943 101.697 30.6911 102.104 30.2848L103.786 28.6023L105.469 30.2848C105.875 30.6911 106.408 30.8943 106.94 30.8943C107.473 30.8943 108.006 30.6911 108.412 30.2848C109.225 29.4721 109.225 28.1542 108.412 27.3415L106.73 25.6591Z"
                            fill="#64B9FC"
                            id="Vector_18" />
                    </g>
                </g>
                <g id="Group_12">
                    <path d="M70.7669 29.9696C70.7647 29.9696 70.7628 29.9696 70.7606 29.9696C69.6111 29.9664 68.6822 29.0315 68.6855 27.8822L68.7038 21.6845C68.7071 20.5371 69.6384 19.6094 70.785 19.6094H70.7912C71.9408 19.6127 72.8696 20.5475 72.8664 21.6968L72.848 27.8945C72.8448 29.0419 71.9134 29.9696 70.7669 29.9696Z"
                        fill="#BCEA73"
                        id="Vector_19" />
                    <path d="M61.5265 32.6118C60.8188 32.6118 60.1289 32.2509 59.739 31.5998L56.5187 26.2235C55.9281 25.2372 56.2486 23.9591 57.2346 23.3685C58.2209 22.7776 59.4986 23.0984 60.0895 24.0844L63.3098 29.4607C63.9004 30.447 63.58 31.725 62.594 32.3157C62.259 32.5161 61.8904 32.6118 61.5265 32.6118Z"
                        fill="#BCEA73"
                        id="Vector_20" />
                    <path d="M79.9915 32.6974C79.6237 32.6974 79.251 32.5998 78.9136 32.395C77.9311 31.7986 77.618 30.5184 78.2144 29.5359L81.4667 24.1774C82.063 23.1947 83.343 22.8818 84.3257 23.4782C85.3082 24.0746 85.6213 25.3548 85.0249 26.3373L81.7727 31.6958C81.3811 32.3409 80.6948 32.6974 79.9915 32.6974Z"
                        fill="#BCEA73"
                        id="Vector_21" />
                </g>
            </g>
            <g id="Group_13">
                <path d="M89.8729 16.5094C93.1287 16.5094 95.7682 13.87 95.7682 10.6141C95.7682 7.35817 93.1287 4.71875 89.8729 4.71875C86.617 4.71875 83.9775 7.35817 83.9775 10.6141C83.9775 13.87 86.617 16.5094 89.8729 16.5094Z"
                    fill="#A8E7EF"
                    id="Vector_22" />
                <path d="M95.7676 10.6132C95.7676 13.8704 93.1276 16.5105 89.8731 16.5105C88.7821 16.5105 87.7584 16.2141 86.8828 15.6943C89.1969 15.1608 90.9212 13.0892 90.9212 10.6132C90.9212 8.14 89.1997 6.0657 86.8855 5.53223C87.7611 5.01488 88.7821 4.71875 89.8731 4.71875C93.1276 4.71848 95.7676 7.35879 95.7676 10.6132Z"
                    fill="#70D9E6"
                    id="Vector_23" />
            </g>
        </g>
        <path d="M82.3725 64.2585C82.3687 64.2585 82.3649 64.2585 82.3608 64.2585C81.2112 64.2522 80.2722 63.3152 80.2785 62.1656C80.2848 61.0202 81.2033 60.0957 82.3471 60.0957H82.3588H82.3835C83.533 60.102 84.4597 61.0388 84.4534 62.1883C84.4471 63.334 83.5163 64.2585 82.3725 64.2585Z"
            fill="#82B732"
            id="Vector_24" />
    </g>
    <defs>
        <clipPath id="clip0_4429_57861">
            <rect fill="white" height="140" transform="translate(0.875)" width="140" />
        </clipPath>
    </defs>
</svg>
