<svg fill="none" height="58" viewBox="0 0 289 58" width="289" xmlns="http://www.w3.org/2000/svg">
    <path
        d="M89.7449 26.52C89.836 25.8367 89.836 25.3356 89.836 24.5158C89.836 18.6401 87.0575 12.7643 78.9956 12.7643C71.3889 12.7643 67.6084 18.0479 67.6084 25.4723C67.6084 31.6668 70.979 37.4515 78.7677 37.4515C86.1466 37.4515 88.7429 32.7145 89.5627 29.8449H83.0493C82.4116 31.2569 81.6373 32.3501 78.9044 32.3501C75.6705 32.3501 74.1674 29.4805 74.1674 26.52H89.7449ZM74.3041 22.5116C74.5773 19.5966 75.8527 17.4558 78.95 17.4558C82.1384 17.4558 83.2316 19.7787 83.277 22.5116H74.3041ZM93.6024 36.9049H112.687L113.461 31.7579H101.209L112.641 18.4123V13.3109H94.1488V18.4578H105.263L93.6024 31.9857V36.9049ZM115.971 13.3109L124.579 37.6336C123.669 40.23 122.484 41.0498 120.07 41.0498C119.524 41.0498 118.84 41.0042 118.385 40.9587V46.1968C119.524 46.3335 120.845 46.379 121.437 46.379C127.085 46.379 128.998 44.3749 131.23 37.5882L139.156 13.3109H132.642C129.863 23.2405 128.451 28.524 127.95 30.8925H127.904C127.54 28.7062 125.399 21.464 122.985 13.3109H115.971ZM157.039 29.2984C156.447 31.0748 155.263 32.3957 152.986 32.3957C150.161 32.3957 148.34 30.1182 148.34 25.0624C148.34 20.5076 150.025 17.9112 153.031 17.9112C155.582 17.9112 156.675 19.2321 157.085 21.1452H163.416C163.325 18.5034 161.093 12.7643 153.167 12.7643C145.972 12.7643 141.735 18.3212 141.735 25.2901C141.735 32.3957 145.516 37.4515 152.848 37.4515C159.864 37.4515 162.641 33.2155 163.416 29.2984H157.039ZM179.218 12.7643C171.748 12.7643 167.331 17.9112 167.331 25.1989C167.331 32.2134 171.612 37.4515 178.9 37.4515C186.37 37.4515 190.651 32.2134 190.651 25.0624C190.651 17.6836 186.143 12.7643 179.218 12.7643ZM178.946 17.9112C182.225 17.9112 184.047 20.2342 184.047 25.1534C184.047 29.6628 182.271 32.3501 179.037 32.3501C175.894 32.3501 173.935 29.6628 173.935 25.1079C173.935 20.1431 175.939 17.9112 178.946 17.9112ZM216.8 13.3109H210.286V25.8822C210.286 30.5282 209.057 32.1223 206.096 32.1223C203.272 32.1223 202.452 29.9816 202.452 27.3854V13.3109H195.938V28.7062C195.938 34.5364 198.991 37.4515 203.774 37.4515C206.825 37.4515 208.874 36.5405 210.286 34.172C210.332 34.9919 210.377 36.2672 210.469 36.9049H216.845C216.8 34.8097 216.8 32.3045 216.8 30.0727V13.3109ZM223.585 36.9049H230.144V26.6109C230.144 20.1431 232.968 18.8678 237.705 19.0044V12.7643C233.696 12.8098 231.191 14.7684 230.144 17.4558C230.144 16.1804 230.052 13.8575 229.961 13.3109H223.539C223.585 15.315 223.585 17.3646 223.585 19.7332V36.9049ZM240.827 29.7993C241.374 33.9898 244.29 37.4515 251.485 37.4515C258.636 37.4515 261.643 33.8988 261.643 29.9816C261.643 26.52 260.504 23.8325 252.624 22.0106C248.798 21.0996 248.07 20.553 248.07 19.3688C248.07 18.3212 248.798 17.3646 250.94 17.3646C253.991 17.3646 254.583 19.0044 254.811 19.8698H261.006C260.823 16.6815 258.363 12.7643 251.213 12.7643C244.107 12.7643 241.692 16.4537 241.692 19.9154C241.692 23.2405 242.923 25.609 250.62 27.5219C253.991 28.3419 254.993 28.9339 254.993 30.437C254.993 31.8946 254.128 32.76 251.713 32.76C249.3 32.76 247.75 31.7124 247.25 29.7993H240.827ZM287.767 26.52C287.857 25.8367 287.857 25.3356 287.857 24.5158C287.857 18.6401 285.08 12.7643 277.018 12.7643C269.41 12.7643 265.63 18.0479 265.63 25.4723C265.63 31.6668 269.001 37.4515 276.79 37.4515C284.168 37.4515 286.764 32.7145 287.584 29.8449H281.07C280.433 31.2569 279.659 32.3501 276.926 32.3501C273.692 32.3501 272.189 29.4805 272.189 26.52H287.767ZM272.325 22.5116C272.599 19.5966 273.875 17.4558 276.971 17.4558C280.159 17.4558 281.253 19.7787 281.298 22.5116H272.325Z"
        fill="white" />
    <path
        d="M55.749 48.7942H23.8887V40.1924L43.2425 17.2168H31.821C30.4291 17.2168 29.1449 16.4676 28.4599 15.2559L24.7375 8.67165H55.5226V15.0423C55.5226 16.2634 55.0887 17.4447 54.298 18.3754L35.7161 40.2491H50.6009C53.4441 40.2491 55.749 42.5539 55.749 45.3972V48.7942Z"
        fill="#E8F54A" />
    <path d="M16.5966 48.8446L43.3502 17.2517L31.3718 40.6786L32.0078 48.7349L16.5966 48.8446Z"
        fill="#E8F54A" />
    <path
        d="M0.100731 12.5169C0.100731 10.3832 1.83133 8.65406 3.96497 8.65579L19.4804 8.66842C21.4071 8.66999 23.1715 9.74712 24.0534 11.46L27.0173 17.2169L3.96621 17.2429C1.83207 17.2453 0.100731 15.5159 0.100731 13.3818V12.5169Z"
        fill="white" />
    <path
        d="M0.100731 28.5189C0.100731 26.0842 2.07438 24.1105 4.509 24.1105H34.3663L26.7748 32.9271H4.509C2.07438 32.9271 0.100731 30.9535 0.100731 28.5189Z"
        fill="white" />
    <path
        d="M8.91727 24.1105V48.3372L6.44352 48.3017C2.92586 48.2512 0.100731 45.3852 0.100731 41.8671L0.100731 29.2587C0.100732 26.4155 2.40563 24.1105 5.24887 24.1105H8.91727Z"
        fill="white" />
    <path
        d="M0.100731 39.9781H21.2538L13.675 48.7947H5.24887C2.40563 48.7947 0.100731 46.4897 0.100731 43.6465V39.9781Z"
        fill="white" />
</svg>
