<svg width="19" height="18" viewBox="0 0 19 18" fill="none" xmlns="http://www.w3.org/2000/svg">
<path d="M18.4628 6.99066L16.1114 5.07423V2.00931C16.1114 1.66417 15.8306 1.38334 15.4854 1.38334H14.0059C13.6607 1.38334 13.3799 1.66417 13.3799 2.00931V2.84794L10.2379 0.287206C10.0106 0.102033 9.71109 0 9.39446 0C9.07909 0 8.78095 0.101407 8.55492 0.285613L0.330061 6.99061C-0.0436436 7.29511 -0.0212225 7.56035 0.0253839 7.69135C0.0718765 7.82207 0.221597 8.04138 0.70166 8.04138H1.8279V16.8589C1.8279 17.4881 2.33846 18 2.96603 18H6.52268C7.14495 18 7.63235 17.4987 7.63235 16.8589V13.243C7.63235 12.9331 7.91717 12.6509 8.22987 12.6509H10.6199C10.918 12.6509 11.1606 12.9165 11.1606 13.243V16.8589C11.1606 17.4774 11.6948 18 12.3271 18H15.8269C16.4544 18 16.965 17.4881 16.965 16.8589V8.04138H18.0912C18.5713 8.04138 18.721 7.82207 18.7675 7.69135C18.8141 7.56035 18.8366 7.29511 18.4628 6.99066Z" fill="white"/>
</svg>
