<svg fill="none" height="15" viewBox="0 0 14 15" width="14" xmlns="http://www.w3.org/2000/svg">
    <g id="Group">
        <path clip-rule="evenodd" d="M10.892 0.833533H3.10798C2.75665 0.833533 2.45398 0.833533 2.20398 0.853533C1.94065 0.875533 1.67798 0.922866 1.42598 1.05153C1.04967 1.24328 0.743724 1.54923 0.55198 1.92553C0.423313 2.17753 0.37598 2.4402 0.354646 2.70353C0.333313 2.95353 0.333313 3.25687 0.333313 3.60753V11.3935C0.333313 11.7449 0.333313 12.0482 0.353313 12.2975C0.375313 12.5609 0.422646 12.8235 0.551313 13.0755C0.743057 13.4518 1.04901 13.7578 1.42531 13.9495C1.67731 14.0782 1.93998 14.1255 2.20331 14.1469C2.45331 14.1675 2.75665 14.1675 3.10731 14.1675H10.8933C11.2446 14.1675 11.548 14.1675 11.7973 14.1475C12.0606 14.1255 12.3233 14.0782 12.5753 13.9495C12.9516 13.7578 13.2576 13.4518 13.4493 13.0755C13.578 12.8235 13.6253 12.5609 13.6466 12.2975C13.6673 12.0475 13.6673 11.7442 13.6673 11.3935V3.60687C13.6673 3.25553 13.6673 2.95287 13.6473 2.70287C13.6253 2.43953 13.578 2.17687 13.4493 1.92487C13.2576 1.54856 12.9516 1.24261 12.5753 1.05087C12.3233 0.922199 12.0606 0.874866 11.7973 0.853533C11.4959 0.835414 11.1939 0.828743 10.892 0.833533ZM6.99998 4.16687C6.82317 4.16687 6.6536 4.2371 6.52858 4.36213C6.40355 4.48715 6.33331 4.65672 6.33331 4.83353C6.33331 5.01034 6.40355 5.17991 6.52858 5.30494C6.6536 5.42996 6.82317 5.5002 6.99998 5.5002H7.00665C7.18346 5.5002 7.35303 5.42996 7.47805 5.30494C7.60308 5.17991 7.67331 5.01034 7.67331 4.83353C7.67331 4.65672 7.60308 4.48715 7.47805 4.36213C7.35303 4.2371 7.18346 4.16687 7.00665 4.16687H6.99998ZM7.66665 7.5002C7.66665 7.32339 7.59641 7.15382 7.47138 7.0288C7.34636 6.90377 7.17679 6.83353 6.99998 6.83353C6.82317 6.83353 6.6536 6.90377 6.52858 7.0288C6.40355 7.15382 6.33331 7.32339 6.33331 7.5002V10.1669C6.33331 10.3437 6.40355 10.5132 6.52858 10.6383C6.6536 10.7633 6.82317 10.8335 6.99998 10.8335C7.17679 10.8335 7.34636 10.7633 7.47138 10.6383C7.59641 10.5132 7.66665 10.3437 7.66665 10.1669V7.5002Z" fill="#6C727F"
            fill-rule="evenodd"
            id="Vector" />
    </g>
</svg>
