<svg width="18" height="18" viewBox="0 0 18 18" fill="none" xmlns="http://www.w3.org/2000/svg">
<path d="M9.02723 0C6.50821 0 4.47046 2.03781 4.47046 4.55081C4.47046 5.62024 4.83876 6.60047 5.45073 7.37876C6.28247 8.43032 7.57764 9.10759 9.02723 9.10759C10.4768 9.10759 11.766 8.43032 12.5977 7.37876C13.2097 6.60047 13.5781 5.62024 13.5781 4.55081C13.5781 2.03781 11.5403 0 9.02723 0Z" fill="white"/>
<path d="M9.01962 1C8.7596 1 8.51024 1.0903 8.32638 1.25104C8.14252 1.41178 8.03923 1.62979 8.03923 1.85711V3.57134C8.03923 3.79866 8.14252 4.01667 8.32638 4.17741C8.51024 4.33815 8.7596 4.42846 9.01962 4.42846C9.27963 4.42846 9.529 4.33815 9.71285 4.17741C9.89671 4.01667 10 3.79866 10 3.57134V1.85711C10 1.62979 9.89671 1.41178 9.71285 1.25104C9.529 1.0903 9.27963 1 9.01962 1ZM8.28433 5.53413C8.10518 5.69839 8.00363 5.91575 8.00002 6.14269C7.99927 6.25549 8.024 6.36731 8.07279 6.47174C8.12158 6.57617 8.19347 6.67115 8.28433 6.75124C8.37962 6.82695 8.48905 6.88783 8.60786 6.93123C8.72521 6.97658 8.8521 7 8.9804 7C9.1087 7 9.23559 6.97658 9.35295 6.93123C9.47461 6.89274 9.5851 6.83132 9.67659 6.75134C9.76807 6.67135 9.83832 6.57475 9.88235 6.46839C9.93724 6.36667 9.9641 6.25512 9.96078 6.14269C9.96192 5.97244 9.90503 5.80576 9.79739 5.66389C9.68974 5.52202 9.53621 5.41139 9.35636 5.34611C9.17651 5.28083 8.97851 5.26384 8.78758 5.29733C8.59665 5.33082 8.42146 5.41326 8.28433 5.53413Z" fill="#2F80ED"/>
<path d="M13.5716 7.73889C13.5108 7.82581 13.4511 7.91333 13.3849 7.99756C12.3159 9.34852 10.7188 10.122 9.00015 10.122C7.27769 10.122 5.67807 9.34857 4.61103 8C4.54453 7.91542 4.48461 7.82745 4.42339 7.74014C1.8167 8.8952 0 11.4981 0 14.5315V17.2975H18V14.5315C18 11.4984 16.1789 8.89091 13.5716 7.73889Z" fill="white"/>
</svg>
