<svg fill="none" height="20" viewBox="0 0 20 20" width="20" xmlns="http://www.w3.org/2000/svg">
    <path
        d="M1.66669 10.4167C1.66669 9.49617 2.41288 8.75 3.33335 8.75C4.71406 8.75 5.83335 9.86925 5.83335 11.25V14.5833C5.83335 15.9641 4.71406 17.0833 3.33335 17.0833C2.41288 17.0833 1.66669 16.3372 1.66669 15.4167V10.4167Z"
        stroke="#1B1B35" stroke-linecap="round" stroke-linejoin="round" stroke-width="1.25" />
    <path
        d="M12.8989 6.50524L12.677 7.22197C12.4951 7.80928 12.4042 8.10293 12.4741 8.33485C12.5307 8.52244 12.6549 8.68419 12.8241 8.79061C13.0333 8.92211 13.3497 8.9221 13.9826 8.9221H14.3192C16.461 8.9221 17.5318 8.92211 18.0376 9.55611C18.0954 9.62852 18.1468 9.7056 18.1913 9.78644C18.5804 10.4934 18.1381 11.4459 17.2533 13.3509C16.4414 15.0991 16.0354 15.9732 15.2816 16.4877C15.2087 16.5374 15.1337 16.5844 15.0569 16.6284C14.2633 17.0834 13.2801 17.0834 11.3136 17.0834H10.8871C8.50473 17.0834 7.31355 17.0834 6.57343 16.3663C5.83331 15.6491 5.83331 14.4949 5.83331 12.1866V11.3753C5.83331 10.1622 5.83331 9.55569 6.0486 9.00052C6.26388 8.44535 6.67611 7.98889 7.50055 7.07595L10.9101 3.30049C10.9956 3.2058 11.0383 3.15845 11.0761 3.12565C11.4279 2.81942 11.971 2.85389 12.2786 3.20198C12.3116 3.23927 12.3476 3.29161 12.4196 3.3963C12.5323 3.56006 12.5886 3.64195 12.6378 3.72306C13.0773 4.4493 13.2103 5.31199 13.009 6.13098C12.9865 6.22245 12.9573 6.31677 12.8989 6.50524Z"
        stroke="#1B1B35" stroke-linecap="round" stroke-linejoin="round" stroke-width="1.25" />
</svg>
