<svg fill="none" height="40" viewBox="0 0 40 40" width="40" xmlns="http://www.w3.org/2000/svg">
    <g id="icon_onleave">
        <path clip-rule="evenodd" d="M33.9181 24.5362C35.9907 24.5362 37.6708 22.7704 37.6708 20.5923C37.6708 18.4142 35.9907 16.6484 33.9181 16.6484C31.8456 16.6484 30.1655 18.4142 30.1655 20.5923C30.1655 22.7704 31.8456 24.5362 33.9181 24.5362ZM0.000112486 37.4345C-0.00992167 38.584 0.652333 39.5964 1.59554 39.9022C1.75609 39.9444 6.3116 39.9971 11.72 39.9971C21.0799 40.0064 22.0092 40.0157 22.7449 39.6236C22.846 39.5697 22.9434 39.5083 23.0586 39.4382C23.2994 39.28 23.9918 38.7316 24.5838 38.1938C25.1758 37.6665 26.9117 36.1902 28.4269 34.9142C29.9421 33.6381 31.6378 32.1828 32.1897 31.6872L33.1831 30.7803L35.8522 30.717C38.16 30.6748 38.5614 30.6432 38.8624 30.4745C39.5347 30.1054 39.8358 29.6835 39.9762 28.8821C40.1368 27.9963 39.4645 25.3493 38.5514 23.3457L38.0497 22.2384L37.6985 22.9238C37.257 23.7991 36.5746 24.5268 35.792 24.9486L35.1799 25.286L35.4107 25.8977C35.5411 26.2351 35.6515 26.5515 35.6515 26.6148C35.6515 26.6781 35.2602 26.7202 34.628 26.7202H33.6045L33.0928 26.2035C31.8385 24.9064 30.2732 24.6322 28.8483 25.4548L28.3065 25.7606L28.0657 25.17C27.7847 24.5057 27.3231 22.9027 27.3231 22.5864C27.3231 22.3966 27.3733 22.386 27.8048 22.4387C27.988 22.461 28.3048 22.4936 28.6162 22.5256C28.7482 22.5392 28.8793 22.5527 28.9989 22.5653L29.7213 22.6286L29.5708 22.1224C29.35 21.3631 29.3902 20.1504 29.6611 19.3173L29.8919 18.6107L29.5407 18.558C29.34 18.5158 28.2162 18.4209 27.0422 18.3365C24.6842 18.1572 24.4734 18.1889 23.8915 18.7794C23.3797 19.2962 23.2794 19.8024 23.3396 21.4264C23.4299 23.546 23.8513 25.3071 24.7644 27.3424C25.0153 27.8803 25.216 28.3654 25.216 28.4181C25.216 28.5024 22.0452 31.2021 21.6137 31.4868C21.4431 31.5923 21.3328 31.5185 20.6003 30.8014C19.5467 29.7785 18.0516 28.5446 16.6067 27.5217C15.523 26.7519 15.4527 26.7202 14.8908 26.7202C14.4493 26.7202 14.1684 26.7941 13.767 27.0155C12.9141 27.469 5.02723 34.0283 4.73624 34.524L4.49542 34.9352L3.1107 34.9458C2.18756 34.9458 1.62565 34.988 1.4049 35.0829C0.541957 35.4731 0.0101467 36.3589 0.000112486 37.4345ZM14.7604 32.4781C14.931 32.3727 17.6803 34.6189 17.6903 34.872C17.6903 34.9142 16.3759 34.9458 14.7704 34.9458C12.9843 34.9458 11.8806 34.9036 11.9207 34.8509C11.9709 34.7454 14.5196 32.6258 14.7604 32.4781Z" fill="#F64F3E"
            fill-rule="evenodd"
            id="Union" />
        <path clip-rule="evenodd" d="M27.8576 1.8306C27.9235 2.3809 28.4015 2.77081 28.9251 2.70147L31.9281 2.30382L28.7175 6.65091C28.4805 6.97179 28.4508 7.4111 28.6422 7.764C28.8336 8.11691 29.2084 8.3139 29.5919 8.26312L34.8838 7.56238C35.4074 7.49304 35.7784 6.99073 35.7124 6.44042C35.6465 5.89012 35.1685 5.50022 34.6449 5.56955L31.6418 5.96721L34.8525 1.62012C35.0894 1.29924 35.1192 0.859924 34.9278 0.507022C34.7364 0.15412 34.3616 -0.0428709 33.9781 0.00790644L28.6862 0.708645C28.1626 0.77798 27.7916 1.2803 27.8576 1.8306ZM25.8379 12.6501C25.9868 12.9851 26.366 13.1298 26.6847 12.9732L28.0482 12.3036L27.1045 15.0355C27.0166 15.29 27.0832 15.5752 27.2733 15.758C27.4634 15.9408 27.7396 15.9852 27.973 15.8705L30.7299 14.5166C31.0486 14.36 31.1863 13.9616 31.0373 13.6266C30.8883 13.2916 30.5092 13.1469 30.1904 13.3035L28.827 13.9731L29.7707 11.2412C29.8586 10.9866 29.792 10.7015 29.6019 10.5187C29.4118 10.3359 29.1356 10.2915 28.9022 10.4061L26.1453 11.7601C25.8266 11.9166 25.6889 12.3151 25.8379 12.6501Z" fill="black"
            fill-rule="evenodd"
            id="Union_2" />
    </g>
</svg>
