<svg width="56" height="41" viewBox="0 0 56 41" fill="none" xmlns="http://www.w3.org/2000/svg">
<path d="M55.749 40.7942H23.8887V32.1924L43.2425 9.21681H31.821C30.4291 9.21681 29.1449 8.46763 28.4599 7.25588L24.7375 0.671646H55.5226V7.04231C55.5226 8.26337 55.0887 9.44474 54.298 10.3754L35.7161 32.2491H50.6009C53.4441 32.2491 55.749 34.5539 55.749 37.3972V40.7942Z" fill="#E8F54A"/>
<path d="M16.5966 40.8446L43.3502 9.25171L31.3718 32.6786L32.0078 40.7349L16.5966 40.8446Z" fill="#E8F54A"/>
<path d="M0.100731 4.5169C0.100731 2.38324 1.83133 0.654056 3.96497 0.655794L19.4804 0.668419C21.4071 0.669989 23.1715 1.74712 24.0534 3.46L27.0173 9.21687L3.96621 9.24286C1.83207 9.24531 0.100731 7.51592 0.100731 5.38181V4.5169Z" fill="white"/>
<path d="M0.100731 20.5189C0.100731 18.0842 2.07438 16.1105 4.509 16.1105H34.3663L26.7748 24.9271H4.509C2.07438 24.9271 0.100731 22.9535 0.100731 20.5189Z" fill="white"/>
<path d="M8.91727 16.1105V40.3372L6.44352 40.3017C2.92586 40.2512 0.100731 37.3852 0.100731 33.8671L0.100731 21.2587C0.100732 18.4155 2.40563 16.1105 5.24887 16.1105H8.91727Z" fill="white"/>
<path d="M0.100731 31.9781H21.2538L13.675 40.7947H5.24887C2.40563 40.7947 0.100731 38.4897 0.100731 35.6465V31.9781Z" fill="white"/>
</svg>
