<svg fill="none" height="42" viewBox="0 0 42 42" width="42" xmlns="http://www.w3.org/2000/svg">
    <g id="user-01">
        <path d="M35 36.75C35 34.3078 35 33.0866 34.6986 32.093C34.0199 29.8558 32.2692 28.1051 30.032 27.4264C29.0384 27.125 27.8172 27.125 25.375 27.125H16.625C14.1828 27.125 12.9616 27.125 11.968 27.4264C9.7308 28.1051 7.98007 29.8558 7.30142 32.093C7 33.0866 7 34.3078 7 36.75M28.875 13.125C28.875 17.4742 25.3492 21 21 21C16.6508 21 13.125 17.4742 13.125 13.125C13.125 8.77576 16.6508 5.25 21 5.25C25.3492 5.25 28.875 8.77576 28.875 13.125Z"
            id="Icon"
            stroke="#676767" stroke-linecap="round" stroke-linejoin="round"
            stroke-width="2.89655" />
    </g>
</svg>
