<svg width="10" height="12" viewBox="0 0 10 12" fill="none" xmlns="http://www.w3.org/2000/svg">
    <path d="M9.06022 5V4H3.39355V1C3.39355 0.734784 3.2882 0.48043 3.10066 0.292893C2.91313 0.105357 2.65877 0 2.39355 0C2.12834 0 1.87398 0.105357 1.68645 0.292893C1.49891 0.48043 1.39355 0.734784 1.39355 1C1.39355 1.26522 1.49891 1.51957 1.68645 1.70711C1.87398 1.89464 2.12834 2 2.39355 2V4H0.393555V5H2.39355V9.13333C2.39355 10.7067 3.66689 11.98 5.22689 12C6.78689 11.9733 8.02689 10.6933 8.00022 9.13333C8.00022 8.07333 7.50022 7.07333 6.66689 6.41333C6.52022 6.29333 6.36689 6.18667 6.20022 6.1C6.05356 6.03333 5.89356 6 5.73355 6C5.26022 6 4.82689 6.26 4.59355 6.66667C4.46689 6.86667 4.40022 7.1 4.40022 7.33333C4.40689 8.06667 5.00022 8.66667 5.74022 8.66667C6.15355 8.66667 6.54022 8.46 6.79355 8.13333C6.93355 8.44667 7.00022 8.78667 7.00022 9.13333C7.02689 10.1333 6.24022 10.9667 5.22689 11C4.20689 11 3.38689 10.1533 3.39355 9.13333V5H9.06022Z" fill="#828282"/>
</svg>
